<?xml version="1.0" encoding="utf-8" standalone="no"?>
<!DOCTYPE svg PUBLIC "-//W3C//DTD SVG 1.1//EN"
  "http://www.w3.org/Graphics/SVG/1.1/DTD/svg11.dtd">
<svg xmlns:xlink="http://www.w3.org/1999/xlink" width="648pt" height="360pt" viewBox="0 0 648 360" xmlns="http://www.w3.org/2000/svg" version="1.1">
 <metadata>
  <rdf:RDF xmlns:dc="http://purl.org/dc/elements/1.1/" xmlns:cc="http://creativecommons.org/ns#" xmlns:rdf="http://www.w3.org/1999/02/22-rdf-syntax-ns#">
   <cc:Work>
    <dc:type rdf:resource="http://purl.org/dc/dcmitype/StillImage"/>
    <dc:date>2026-03-10T21:40:08.403165</dc:date>
    <dc:format>image/svg+xml</dc:format>
    <dc:creator>
     <cc:Agent>
      <dc:title>Matplotlib v3.10.8, https://matplotlib.org/</dc:title>
     </cc:Agent>
    </dc:creator>
   </cc:Work>
  </rdf:RDF>
 </metadata>
 <defs>
  <style type="text/css">*{stroke-linejoin: round; stroke-linecap: butt}</style>
 </defs>
 <g id="figure_1">
  <g id="patch_1">
   <path d="M 0 360 
L 648 360 
L 648 0 
L 0 0 
z
" style="fill: #ffffff"/>
  </g>
  <g id="axes_1">
   <g id="matplotlib.axis_1">
    <g id="xtick_1">
     <g id="line2d_1">
      <path d="M 122.140192 301.319687 
L 122.140192 107.664688 
" clip-path="url(#pc9a2987fee)" style="fill: none; stroke: #e8e8e8; stroke-width: 0.5; stroke-linecap: square"/>
     </g>
     <g id="text_1">
      <!-- 1 -->
      <g style="fill: #4d4d4d" transform="translate(118.958942 311.118125) scale(0.1 -0.1)">
       <defs>
        <path id="DejaVuSans-31" d="M 794 531 
L 1825 531 
L 1825 4091 
L 703 3866 
L 703 4441 
L 1819 4666 
L 2450 4666 
L 2450 531 
L 3481 531 
L 3481 0 
L 794 0 
L 794 531 
z
" transform="scale(0.015625)"/>
       </defs>
       <use xlink:href="#DejaVuSans-31"/>
      </g>
     </g>
    </g>
    <g id="xtick_2">
     <g id="line2d_2">
      <path d="M 235.048846 301.319687 
L 235.048846 107.664688 
" clip-path="url(#pc9a2987fee)" style="fill: none; stroke: #e8e8e8; stroke-width: 0.5; stroke-linecap: square"/>
     </g>
     <g id="text_2">
      <!-- 2 -->
      <g style="fill: #4d4d4d" transform="translate(231.867596 311.118125) scale(0.1 -0.1)">
       <defs>
        <path id="DejaVuSans-32" d="M 1228 531 
L 3431 531 
L 3431 0 
L 469 0 
L 469 531 
Q 828 903 1448 1529 
Q 2069 2156 2228 2338 
Q 2531 2678 2651 2914 
Q 2772 3150 2772 3378 
Q 2772 3750 2511 3984 
Q 2250 4219 1831 4219 
Q 1534 4219 1204 4116 
Q 875 4013 500 3803 
L 500 4441 
Q 881 4594 1212 4672 
Q 1544 4750 1819 4750 
Q 2544 4750 2975 4387 
Q 3406 4025 3406 3419 
Q 3406 3131 3298 2873 
Q 3191 2616 2906 2266 
Q 2828 2175 2409 1742 
Q 1991 1309 1228 531 
z
" transform="scale(0.015625)"/>
       </defs>
       <use xlink:href="#DejaVuSans-32"/>
      </g>
     </g>
    </g>
    <g id="xtick_3">
     <g id="line2d_3">
      <path d="M 347.9575 301.319687 
L 347.9575 107.664688 
" clip-path="url(#pc9a2987fee)" style="fill: none; stroke: #e8e8e8; stroke-width: 0.5; stroke-linecap: square"/>
     </g>
     <g id="text_3">
      <!-- 3 -->
      <g style="fill: #4d4d4d" transform="translate(344.77625 311.118125) scale(0.1 -0.1)">
       <defs>
        <path id="DejaVuSans-33" d="M 2597 2516 
Q 3050 2419 3304 2112 
Q 3559 1806 3559 1356 
Q 3559 666 3084 287 
Q 2609 -91 1734 -91 
Q 1441 -91 1130 -33 
Q 819 25 488 141 
L 488 750 
Q 750 597 1062 519 
Q 1375 441 1716 441 
Q 2309 441 2620 675 
Q 2931 909 2931 1356 
Q 2931 1769 2642 2001 
Q 2353 2234 1838 2234 
L 1294 2234 
L 1294 2753 
L 1863 2753 
Q 2328 2753 2575 2939 
Q 2822 3125 2822 3475 
Q 2822 3834 2567 4026 
Q 2313 4219 1838 4219 
Q 1578 4219 1281 4162 
Q 984 4106 628 3988 
L 628 4550 
Q 988 4650 1302 4700 
Q 1616 4750 1894 4750 
Q 2613 4750 3031 4423 
Q 3450 4097 3450 3541 
Q 3450 3153 3228 2886 
Q 3006 2619 2597 2516 
z
" transform="scale(0.015625)"/>
       </defs>
       <use xlink:href="#DejaVuSans-33"/>
      </g>
     </g>
    </g>
    <g id="xtick_4">
     <g id="line2d_4">
      <path d="M 460.866154 301.319687 
L 460.866154 107.664688 
" clip-path="url(#pc9a2987fee)" style="fill: none; stroke: #e8e8e8; stroke-width: 0.5; stroke-linecap: square"/>
     </g>
     <g id="text_4">
      <!-- 4 -->
      <g style="fill: #4d4d4d" transform="translate(457.684904 311.118125) scale(0.1 -0.1)">
       <defs>
        <path id="DejaVuSans-34" d="M 2419 4116 
L 825 1625 
L 2419 1625 
L 2419 4116 
z
M 2253 4666 
L 3047 4666 
L 3047 1625 
L 3713 1625 
L 3713 1100 
L 3047 1100 
L 3047 0 
L 2419 0 
L 2419 1100 
L 313 1100 
L 313 1709 
L 2253 4666 
z
" transform="scale(0.015625)"/>
       </defs>
       <use xlink:href="#DejaVuSans-34"/>
      </g>
     </g>
    </g>
    <g id="xtick_5">
     <g id="line2d_5">
      <path d="M 573.774808 301.319687 
L 573.774808 107.664688 
" clip-path="url(#pc9a2987fee)" style="fill: none; stroke: #e8e8e8; stroke-width: 0.5; stroke-linecap: square"/>
     </g>
     <g id="text_5">
      <!-- 5 -->
      <g style="fill: #4d4d4d" transform="translate(570.593558 311.118125) scale(0.1 -0.1)">
       <defs>
        <path id="DejaVuSans-35" d="M 691 4666 
L 3169 4666 
L 3169 4134 
L 1269 4134 
L 1269 2991 
Q 1406 3038 1543 3061 
Q 1681 3084 1819 3084 
Q 2600 3084 3056 2656 
Q 3513 2228 3513 1497 
Q 3513 744 3044 326 
Q 2575 -91 1722 -91 
Q 1428 -91 1123 -41 
Q 819 9 494 109 
L 494 744 
Q 775 591 1075 516 
Q 1375 441 1709 441 
Q 2250 441 2565 725 
Q 2881 1009 2881 1497 
Q 2881 1984 2565 2268 
Q 2250 2553 1709 2553 
Q 1456 2553 1204 2497 
Q 953 2441 691 2322 
L 691 4666 
z
" transform="scale(0.015625)"/>
       </defs>
       <use xlink:href="#DejaVuSans-35"/>
      </g>
     </g>
    </g>
   </g>
   <g id="matplotlib.axis_2">
    <g id="ytick_1">
     <g id="line2d_6">
      <path d="M 54.395 292.517187 
L 641.52 292.517187 
" clip-path="url(#pc9a2987fee)" style="fill: none; stroke: #e8e8e8; stroke-width: 0.5; stroke-linecap: square"/>
     </g>
     <g id="text_6">
      <!-- 0% -->
      <g style="fill: #4d4d4d" transform="translate(36.330937 296.316406) scale(0.1 -0.1)">
       <defs>
        <path id="DejaVuSans-30" d="M 2034 4250 
Q 1547 4250 1301 3770 
Q 1056 3291 1056 2328 
Q 1056 1369 1301 889 
Q 1547 409 2034 409 
Q 2525 409 2770 889 
Q 3016 1369 3016 2328 
Q 3016 3291 2770 3770 
Q 2525 4250 2034 4250 
z
M 2034 4750 
Q 2819 4750 3233 4129 
Q 3647 3509 3647 2328 
Q 3647 1150 3233 529 
Q 2819 -91 2034 -91 
Q 1250 -91 836 529 
Q 422 1150 422 2328 
Q 422 3509 836 4129 
Q 1250 4750 2034 4750 
z
" transform="scale(0.015625)"/>
        <path id="DejaVuSans-25" d="M 4653 2053 
Q 4381 2053 4226 1822 
Q 4072 1591 4072 1178 
Q 4072 772 4226 539 
Q 4381 306 4653 306 
Q 4919 306 5073 539 
Q 5228 772 5228 1178 
Q 5228 1588 5073 1820 
Q 4919 2053 4653 2053 
z
M 4653 2450 
Q 5147 2450 5437 2106 
Q 5728 1763 5728 1178 
Q 5728 594 5436 251 
Q 5144 -91 4653 -91 
Q 4153 -91 3862 251 
Q 3572 594 3572 1178 
Q 3572 1766 3864 2108 
Q 4156 2450 4653 2450 
z
M 1428 4353 
Q 1159 4353 1004 4120 
Q 850 3888 850 3481 
Q 850 3069 1003 2837 
Q 1156 2606 1428 2606 
Q 1700 2606 1854 2837 
Q 2009 3069 2009 3481 
Q 2009 3884 1853 4118 
Q 1697 4353 1428 4353 
z
M 4250 4750 
L 4750 4750 
L 1831 -91 
L 1331 -91 
L 4250 4750 
z
M 1428 4750 
Q 1922 4750 2215 4408 
Q 2509 4066 2509 3481 
Q 2509 2891 2217 2550 
Q 1925 2209 1428 2209 
Q 931 2209 642 2551 
Q 353 2894 353 3481 
Q 353 4063 643 4406 
Q 934 4750 1428 4750 
z
" transform="scale(0.015625)"/>
       </defs>
       <use xlink:href="#DejaVuSans-30"/>
       <use xlink:href="#DejaVuSans-25" transform="translate(63.623047 0)"/>
      </g>
     </g>
    </g>
    <g id="ytick_2">
     <g id="line2d_7">
      <path d="M 54.395 248.504687 
L 641.52 248.504687 
" clip-path="url(#pc9a2987fee)" style="fill: none; stroke: #e8e8e8; stroke-width: 0.5; stroke-linecap: square"/>
     </g>
     <g id="text_7">
      <!-- 25% -->
      <g style="fill: #4d4d4d" transform="translate(29.968437 252.303906) scale(0.1 -0.1)">
       <use xlink:href="#DejaVuSans-32"/>
       <use xlink:href="#DejaVuSans-35" transform="translate(63.623047 0)"/>
       <use xlink:href="#DejaVuSans-25" transform="translate(127.246094 0)"/>
      </g>
     </g>
    </g>
    <g id="ytick_3">
     <g id="line2d_8">
      <path d="M 54.395 204.492188 
L 641.52 204.492188 
" clip-path="url(#pc9a2987fee)" style="fill: none; stroke: #e8e8e8; stroke-width: 0.5; stroke-linecap: square"/>
     </g>
     <g id="text_8">
      <!-- 50% -->
      <g style="fill: #4d4d4d" transform="translate(29.968437 208.291406) scale(0.1 -0.1)">
       <use xlink:href="#DejaVuSans-35"/>
       <use xlink:href="#DejaVuSans-30" transform="translate(63.623047 0)"/>
       <use xlink:href="#DejaVuSans-25" transform="translate(127.246094 0)"/>
      </g>
     </g>
    </g>
    <g id="ytick_4">
     <g id="line2d_9">
      <path d="M 54.395 160.479688 
L 641.52 160.479688 
" clip-path="url(#pc9a2987fee)" style="fill: none; stroke: #e8e8e8; stroke-width: 0.5; stroke-linecap: square"/>
     </g>
     <g id="text_9">
      <!-- 75% -->
      <g style="fill: #4d4d4d" transform="translate(29.968437 164.278906) scale(0.1 -0.1)">
       <defs>
        <path id="DejaVuSans-37" d="M 525 4666 
L 3525 4666 
L 3525 4397 
L 1831 0 
L 1172 0 
L 2766 4134 
L 525 4134 
L 525 4666 
z
" transform="scale(0.015625)"/>
       </defs>
       <use xlink:href="#DejaVuSans-37"/>
       <use xlink:href="#DejaVuSans-35" transform="translate(63.623047 0)"/>
       <use xlink:href="#DejaVuSans-25" transform="translate(127.246094 0)"/>
      </g>
     </g>
    </g>
    <g id="ytick_5">
     <g id="line2d_10">
      <path d="M 54.395 116.467187 
L 641.52 116.467187 
" clip-path="url(#pc9a2987fee)" style="fill: none; stroke: #e8e8e8; stroke-width: 0.5; stroke-linecap: square"/>
     </g>
     <g id="text_10">
      <!-- 100% -->
      <g style="fill: #4d4d4d" transform="translate(23.605937 120.266406) scale(0.1 -0.1)">
       <use xlink:href="#DejaVuSans-31"/>
       <use xlink:href="#DejaVuSans-30" transform="translate(63.623047 0)"/>
       <use xlink:href="#DejaVuSans-30" transform="translate(127.246094 0)"/>
       <use xlink:href="#DejaVuSans-25" transform="translate(190.869141 0)"/>
      </g>
     </g>
    </g>
    <g id="ytick_6"/>
    <g id="ytick_7"/>
    <g id="ytick_8"/>
    <g id="ytick_9"/>
   </g>
   <g id="PolyCollection_1">
    <path d="M 88.267596 292.517187 
L 88.267596 131.425388 
L 156.012788 131.425388 
L 156.012788 292.517187 
z
" clip-path="url(#pc9a2987fee)" style="fill: #5b8db8"/>
    <path d="M 88.267596 131.425388 
L 88.267596 116.467187 
L 156.012788 116.467187 
L 156.012788 131.425388 
z
" clip-path="url(#pc9a2987fee)" style="fill: #e05c6b"/>
    <path d="M 201.17625 292.517187 
L 201.17625 134.32352 
L 268.921442 134.32352 
L 268.921442 292.517187 
z
" clip-path="url(#pc9a2987fee)" style="fill: #5b8db8"/>
    <path d="M 201.17625 134.32352 
L 201.17625 116.467187 
L 268.921442 116.467187 
L 268.921442 134.32352 
z
" clip-path="url(#pc9a2987fee)" style="fill: #e05c6b"/>
    <path d="M 314.084904 292.517187 
L 314.084904 147.131995 
L 381.830096 147.131995 
L 381.830096 292.517187 
z
" clip-path="url(#pc9a2987fee)" style="fill: #5b8db8"/>
    <path d="M 314.084904 147.131995 
L 314.084904 116.467187 
L 381.830096 116.467187 
L 381.830096 147.131995 
z
" clip-path="url(#pc9a2987fee)" style="fill: #e05c6b"/>
    <path d="M 426.993558 292.517187 
L 426.993558 155.23433 
L 494.73875 155.23433 
L 494.73875 292.517187 
z
" clip-path="url(#pc9a2987fee)" style="fill: #5b8db8"/>
    <path d="M 426.993558 155.23433 
L 426.993558 116.467187 
L 494.73875 116.467187 
L 494.73875 155.23433 
z
" clip-path="url(#pc9a2987fee)" style="fill: #e05c6b"/>
    <path d="M 539.902212 292.517187 
L 539.902212 175.129769 
L 607.647404 175.129769 
L 607.647404 292.517187 
z
" clip-path="url(#pc9a2987fee)" style="fill: #5b8db8"/>
    <path d="M 539.902212 175.129769 
L 539.902212 116.467187 
L 607.647404 116.467187 
L 607.647404 175.129769 
z
" clip-path="url(#pc9a2987fee)" style="fill: #e05c6b"/>
   </g>
   <g id="LineCollection_1">
    <path d="M 54.395 260.476088 
L 641.52 260.476088 
" clip-path="url(#pc9a2987fee)" style="fill: none; stroke-dasharray: 3.934848,1.701556; stroke-dashoffset: 0; stroke: #555555; stroke-width: 1.063472"/>
   </g>
   <g id="text_11">
    <g clip-path="url(#pc9a2987fee)">
     <!-- Overall avg -->
     <g style="fill: #555555" transform="translate(522.193558 258.910375) scale(0.09 -0.09)">
      <defs>
       <path id="DejaVuSans-4f" d="M 2522 4238 
Q 1834 4238 1429 3725 
Q 1025 3213 1025 2328 
Q 1025 1447 1429 934 
Q 1834 422 2522 422 
Q 3209 422 3611 934 
Q 4013 1447 4013 2328 
Q 4013 3213 3611 3725 
Q 3209 4238 2522 4238 
z
M 2522 4750 
Q 3503 4750 4090 4092 
Q 4678 3434 4678 2328 
Q 4678 1225 4090 567 
Q 3503 -91 2522 -91 
Q 1538 -91 948 565 
Q 359 1222 359 2328 
Q 359 3434 948 4092 
Q 1538 4750 2522 4750 
z
" transform="scale(0.015625)"/>
       <path id="DejaVuSans-76" d="M 191 3500 
L 800 3500 
L 1894 563 
L 2988 3500 
L 3597 3500 
L 2284 0 
L 1503 0 
L 191 3500 
z
" transform="scale(0.015625)"/>
       <path id="DejaVuSans-65" d="M 3597 1894 
L 3597 1613 
L 953 1613 
Q 991 1019 1311 708 
Q 1631 397 2203 397 
Q 2534 397 2845 478 
Q 3156 559 3463 722 
L 3463 178 
Q 3153 47 2828 -22 
Q 2503 -91 2169 -91 
Q 1331 -91 842 396 
Q 353 884 353 1716 
Q 353 2575 817 3079 
Q 1281 3584 2069 3584 
Q 2775 3584 3186 3129 
Q 3597 2675 3597 1894 
z
M 3022 2063 
Q 3016 2534 2758 2815 
Q 2500 3097 2075 3097 
Q 1594 3097 1305 2825 
Q 1016 2553 972 2059 
L 3022 2063 
z
" transform="scale(0.015625)"/>
       <path id="DejaVuSans-72" d="M 2631 2963 
Q 2534 3019 2420 3045 
Q 2306 3072 2169 3072 
Q 1681 3072 1420 2755 
Q 1159 2438 1159 1844 
L 1159 0 
L 581 0 
L 581 3500 
L 1159 3500 
L 1159 2956 
Q 1341 3275 1631 3429 
Q 1922 3584 2338 3584 
Q 2397 3584 2469 3576 
Q 2541 3569 2628 3553 
L 2631 2963 
z
" transform="scale(0.015625)"/>
       <path id="DejaVuSans-61" d="M 2194 1759 
Q 1497 1759 1228 1600 
Q 959 1441 959 1056 
Q 959 750 1161 570 
Q 1363 391 1709 391 
Q 2188 391 2477 730 
Q 2766 1069 2766 1631 
L 2766 1759 
L 2194 1759 
z
M 3341 1997 
L 3341 0 
L 2766 0 
L 2766 531 
Q 2569 213 2275 61 
Q 1981 -91 1556 -91 
Q 1019 -91 701 211 
Q 384 513 384 1019 
Q 384 1609 779 1909 
Q 1175 2209 1959 2209 
L 2766 2209 
L 2766 2266 
Q 2766 2663 2505 2880 
Q 2244 3097 1772 3097 
Q 1472 3097 1187 3025 
Q 903 2953 641 2809 
L 641 3341 
Q 956 3463 1253 3523 
Q 1550 3584 1831 3584 
Q 2591 3584 2966 3190 
Q 3341 2797 3341 1997 
z
" transform="scale(0.015625)"/>
       <path id="DejaVuSans-6c" d="M 603 4863 
L 1178 4863 
L 1178 0 
L 603 0 
L 603 4863 
z
" transform="scale(0.015625)"/>
       <path id="DejaVuSans-20" transform="scale(0.015625)"/>
       <path id="DejaVuSans-67" d="M 2906 1791 
Q 2906 2416 2648 2759 
Q 2391 3103 1925 3103 
Q 1463 3103 1205 2759 
Q 947 2416 947 1791 
Q 947 1169 1205 825 
Q 1463 481 1925 481 
Q 2391 481 2648 825 
Q 2906 1169 2906 1791 
z
M 3481 434 
Q 3481 -459 3084 -895 
Q 2688 -1331 1869 -1331 
Q 1566 -1331 1297 -1286 
Q 1028 -1241 775 -1147 
L 775 -588 
Q 1028 -725 1275 -790 
Q 1522 -856 1778 -856 
Q 2344 -856 2625 -561 
Q 2906 -266 2906 331 
L 2906 616 
Q 2728 306 2450 153 
Q 2172 0 1784 0 
Q 1141 0 747 490 
Q 353 981 353 1791 
Q 353 2603 747 3093 
Q 1141 3584 1784 3584 
Q 2172 3584 2450 3431 
Q 2728 3278 2906 2969 
L 2906 3500 
L 3481 3500 
L 3481 434 
z
" transform="scale(0.015625)"/>
      </defs>
      <use xlink:href="#DejaVuSans-4f"/>
      <use xlink:href="#DejaVuSans-76" transform="translate(78.710938 0)"/>
      <use xlink:href="#DejaVuSans-65" transform="translate(137.890625 0)"/>
      <use xlink:href="#DejaVuSans-72" transform="translate(199.414062 0)"/>
      <use xlink:href="#DejaVuSans-61" transform="translate(240.527344 0)"/>
      <use xlink:href="#DejaVuSans-6c" transform="translate(301.806641 0)"/>
      <use xlink:href="#DejaVuSans-6c" transform="translate(329.589844 0)"/>
      <use xlink:href="#DejaVuSans-20" transform="translate(357.373047 0)"/>
      <use xlink:href="#DejaVuSans-61" transform="translate(389.160156 0)"/>
      <use xlink:href="#DejaVuSans-76" transform="translate(450.439453 0)"/>
      <use xlink:href="#DejaVuSans-67" transform="translate(509.619141 0)"/>
     </g>
    </g>
   </g>
  </g>
  <g id="text_12">
   <!-- Depression Rate by Financial Stress Level -->
   <g transform="translate(54.395 17.117813) scale(0.14 -0.14)">
    <defs>
     <path id="DejaVuSans-Bold-44" d="M 1791 3756 
L 1791 909 
L 2222 909 
Q 2959 909 3348 1275 
Q 3738 1641 3738 2338 
Q 3738 3031 3350 3393 
Q 2963 3756 2222 3756 
L 1791 3756 
z
M 588 4666 
L 1856 4666 
Q 2919 4666 3439 4514 
Q 3959 4363 4331 4000 
Q 4659 3684 4818 3271 
Q 4978 2859 4978 2338 
Q 4978 1809 4818 1395 
Q 4659 981 4331 666 
Q 3956 303 3431 151 
Q 2906 0 1856 0 
L 588 0 
L 588 4666 
z
" transform="scale(0.015625)"/>
     <path id="DejaVuSans-Bold-65" d="M 4031 1759 
L 4031 1441 
L 1416 1441 
Q 1456 1047 1700 850 
Q 1944 653 2381 653 
Q 2734 653 3104 758 
Q 3475 863 3866 1075 
L 3866 213 
Q 3469 63 3072 -14 
Q 2675 -91 2278 -91 
Q 1328 -91 801 392 
Q 275 875 275 1747 
Q 275 2603 792 3093 
Q 1309 3584 2216 3584 
Q 3041 3584 3536 3087 
Q 4031 2591 4031 1759 
z
M 2881 2131 
Q 2881 2450 2695 2645 
Q 2509 2841 2209 2841 
Q 1884 2841 1681 2658 
Q 1478 2475 1428 2131 
L 2881 2131 
z
" transform="scale(0.015625)"/>
     <path id="DejaVuSans-Bold-70" d="M 1656 506 
L 1656 -1331 
L 538 -1331 
L 538 3500 
L 1656 3500 
L 1656 2988 
Q 1888 3294 2169 3439 
Q 2450 3584 2816 3584 
Q 3463 3584 3878 3070 
Q 4294 2556 4294 1747 
Q 4294 938 3878 423 
Q 3463 -91 2816 -91 
Q 2450 -91 2169 54 
Q 1888 200 1656 506 
z
M 2400 2772 
Q 2041 2772 1848 2508 
Q 1656 2244 1656 1747 
Q 1656 1250 1848 986 
Q 2041 722 2400 722 
Q 2759 722 2948 984 
Q 3138 1247 3138 1747 
Q 3138 2247 2948 2509 
Q 2759 2772 2400 2772 
z
" transform="scale(0.015625)"/>
     <path id="DejaVuSans-Bold-72" d="M 3138 2547 
Q 2991 2616 2845 2648 
Q 2700 2681 2553 2681 
Q 2122 2681 1889 2404 
Q 1656 2128 1656 1613 
L 1656 0 
L 538 0 
L 538 3500 
L 1656 3500 
L 1656 2925 
Q 1872 3269 2151 3426 
Q 2431 3584 2822 3584 
Q 2878 3584 2943 3579 
Q 3009 3575 3134 3559 
L 3138 2547 
z
" transform="scale(0.015625)"/>
     <path id="DejaVuSans-Bold-73" d="M 3272 3391 
L 3272 2541 
Q 2913 2691 2578 2766 
Q 2244 2841 1947 2841 
Q 1628 2841 1473 2761 
Q 1319 2681 1319 2516 
Q 1319 2381 1436 2309 
Q 1553 2238 1856 2203 
L 2053 2175 
Q 2913 2066 3209 1816 
Q 3506 1566 3506 1031 
Q 3506 472 3093 190 
Q 2681 -91 1863 -91 
Q 1516 -91 1145 -36 
Q 775 19 384 128 
L 384 978 
Q 719 816 1070 734 
Q 1422 653 1784 653 
Q 2113 653 2278 743 
Q 2444 834 2444 1013 
Q 2444 1163 2330 1236 
Q 2216 1309 1875 1350 
L 1678 1375 
Q 931 1469 631 1722 
Q 331 1975 331 2491 
Q 331 3047 712 3315 
Q 1094 3584 1881 3584 
Q 2191 3584 2531 3537 
Q 2872 3491 3272 3391 
z
" transform="scale(0.015625)"/>
     <path id="DejaVuSans-Bold-69" d="M 538 3500 
L 1656 3500 
L 1656 0 
L 538 0 
L 538 3500 
z
M 538 4863 
L 1656 4863 
L 1656 3950 
L 538 3950 
L 538 4863 
z
" transform="scale(0.015625)"/>
     <path id="DejaVuSans-Bold-6f" d="M 2203 2784 
Q 1831 2784 1636 2517 
Q 1441 2250 1441 1747 
Q 1441 1244 1636 976 
Q 1831 709 2203 709 
Q 2569 709 2762 976 
Q 2956 1244 2956 1747 
Q 2956 2250 2762 2517 
Q 2569 2784 2203 2784 
z
M 2203 3584 
Q 3106 3584 3614 3096 
Q 4122 2609 4122 1747 
Q 4122 884 3614 396 
Q 3106 -91 2203 -91 
Q 1297 -91 786 396 
Q 275 884 275 1747 
Q 275 2609 786 3096 
Q 1297 3584 2203 3584 
z
" transform="scale(0.015625)"/>
     <path id="DejaVuSans-Bold-6e" d="M 4056 2131 
L 4056 0 
L 2931 0 
L 2931 347 
L 2931 1631 
Q 2931 2084 2911 2256 
Q 2891 2428 2841 2509 
Q 2775 2619 2662 2680 
Q 2550 2741 2406 2741 
Q 2056 2741 1856 2470 
Q 1656 2200 1656 1722 
L 1656 0 
L 538 0 
L 538 3500 
L 1656 3500 
L 1656 2988 
Q 1909 3294 2193 3439 
Q 2478 3584 2822 3584 
Q 3428 3584 3742 3212 
Q 4056 2841 4056 2131 
z
" transform="scale(0.015625)"/>
     <path id="DejaVuSans-Bold-20" transform="scale(0.015625)"/>
     <path id="DejaVuSans-Bold-52" d="M 2297 2597 
Q 2675 2597 2839 2737 
Q 3003 2878 3003 3200 
Q 3003 3519 2839 3656 
Q 2675 3794 2297 3794 
L 1791 3794 
L 1791 2597 
L 2297 2597 
z
M 1791 1766 
L 1791 0 
L 588 0 
L 588 4666 
L 2425 4666 
Q 3347 4666 3776 4356 
Q 4206 4047 4206 3378 
Q 4206 2916 3982 2619 
Q 3759 2322 3309 2181 
Q 3556 2125 3751 1926 
Q 3947 1728 4147 1325 
L 4800 0 
L 3519 0 
L 2950 1159 
Q 2778 1509 2601 1637 
Q 2425 1766 2131 1766 
L 1791 1766 
z
" transform="scale(0.015625)"/>
     <path id="DejaVuSans-Bold-61" d="M 2106 1575 
Q 1756 1575 1579 1456 
Q 1403 1338 1403 1106 
Q 1403 894 1545 773 
Q 1688 653 1941 653 
Q 2256 653 2472 879 
Q 2688 1106 2688 1447 
L 2688 1575 
L 2106 1575 
z
M 3816 1997 
L 3816 0 
L 2688 0 
L 2688 519 
Q 2463 200 2181 54 
Q 1900 -91 1497 -91 
Q 953 -91 614 226 
Q 275 544 275 1050 
Q 275 1666 698 1953 
Q 1122 2241 2028 2241 
L 2688 2241 
L 2688 2328 
Q 2688 2594 2478 2717 
Q 2269 2841 1825 2841 
Q 1466 2841 1156 2769 
Q 847 2697 581 2553 
L 581 3406 
Q 941 3494 1303 3539 
Q 1666 3584 2028 3584 
Q 2975 3584 3395 3211 
Q 3816 2838 3816 1997 
z
" transform="scale(0.015625)"/>
     <path id="DejaVuSans-Bold-74" d="M 1759 4494 
L 1759 3500 
L 2913 3500 
L 2913 2700 
L 1759 2700 
L 1759 1216 
Q 1759 972 1856 886 
Q 1953 800 2241 800 
L 2816 800 
L 2816 0 
L 1856 0 
Q 1194 0 917 276 
Q 641 553 641 1216 
L 641 2700 
L 84 2700 
L 84 3500 
L 641 3500 
L 641 4494 
L 1759 4494 
z
" transform="scale(0.015625)"/>
     <path id="DejaVuSans-Bold-62" d="M 2400 722 
Q 2759 722 2948 984 
Q 3138 1247 3138 1747 
Q 3138 2247 2948 2509 
Q 2759 2772 2400 2772 
Q 2041 2772 1848 2508 
Q 1656 2244 1656 1747 
Q 1656 1250 1848 986 
Q 2041 722 2400 722 
z
M 1656 2988 
Q 1888 3294 2169 3439 
Q 2450 3584 2816 3584 
Q 3463 3584 3878 3070 
Q 4294 2556 4294 1747 
Q 4294 938 3878 423 
Q 3463 -91 2816 -91 
Q 2450 -91 2169 54 
Q 1888 200 1656 506 
L 1656 0 
L 538 0 
L 538 4863 
L 1656 4863 
L 1656 2988 
z
" transform="scale(0.015625)"/>
     <path id="DejaVuSans-Bold-79" d="M 78 3500 
L 1197 3500 
L 2138 1125 
L 2938 3500 
L 4056 3500 
L 2584 -331 
Q 2363 -916 2067 -1148 
Q 1772 -1381 1288 -1381 
L 641 -1381 
L 641 -647 
L 991 -647 
Q 1275 -647 1404 -556 
Q 1534 -466 1606 -231 
L 1638 -134 
L 78 3500 
z
" transform="scale(0.015625)"/>
     <path id="DejaVuSans-Bold-46" d="M 588 4666 
L 3834 4666 
L 3834 3756 
L 1791 3756 
L 1791 2888 
L 3713 2888 
L 3713 1978 
L 1791 1978 
L 1791 0 
L 588 0 
L 588 4666 
z
" transform="scale(0.015625)"/>
     <path id="DejaVuSans-Bold-63" d="M 3366 3391 
L 3366 2478 
Q 3138 2634 2908 2709 
Q 2678 2784 2431 2784 
Q 1963 2784 1702 2511 
Q 1441 2238 1441 1747 
Q 1441 1256 1702 982 
Q 1963 709 2431 709 
Q 2694 709 2930 787 
Q 3166 866 3366 1019 
L 3366 103 
Q 3103 6 2833 -42 
Q 2563 -91 2291 -91 
Q 1344 -91 809 395 
Q 275 881 275 1747 
Q 275 2613 809 3098 
Q 1344 3584 2291 3584 
Q 2566 3584 2833 3536 
Q 3100 3488 3366 3391 
z
" transform="scale(0.015625)"/>
     <path id="DejaVuSans-Bold-6c" d="M 538 4863 
L 1656 4863 
L 1656 0 
L 538 0 
L 538 4863 
z
" transform="scale(0.015625)"/>
     <path id="DejaVuSans-Bold-53" d="M 3834 4519 
L 3834 3531 
Q 3450 3703 3084 3790 
Q 2719 3878 2394 3878 
Q 1963 3878 1756 3759 
Q 1550 3641 1550 3391 
Q 1550 3203 1689 3098 
Q 1828 2994 2194 2919 
L 2706 2816 
Q 3484 2659 3812 2340 
Q 4141 2022 4141 1434 
Q 4141 663 3683 286 
Q 3225 -91 2284 -91 
Q 1841 -91 1394 -6 
Q 947 78 500 244 
L 500 1259 
Q 947 1022 1364 901 
Q 1781 781 2169 781 
Q 2563 781 2772 912 
Q 2981 1044 2981 1288 
Q 2981 1506 2839 1625 
Q 2697 1744 2272 1838 
L 1806 1941 
Q 1106 2091 782 2419 
Q 459 2747 459 3303 
Q 459 4000 909 4375 
Q 1359 4750 2203 4750 
Q 2588 4750 2994 4692 
Q 3400 4634 3834 4519 
z
" transform="scale(0.015625)"/>
     <path id="DejaVuSans-Bold-4c" d="M 588 4666 
L 1791 4666 
L 1791 909 
L 3903 909 
L 3903 0 
L 588 0 
L 588 4666 
z
" transform="scale(0.015625)"/>
     <path id="DejaVuSans-Bold-76" d="M 97 3500 
L 1216 3500 
L 2088 1081 
L 2956 3500 
L 4078 3500 
L 2700 0 
L 1472 0 
L 97 3500 
z
" transform="scale(0.015625)"/>
    </defs>
    <use xlink:href="#DejaVuSans-Bold-44"/>
    <use xlink:href="#DejaVuSans-Bold-65" transform="translate(83.007812 0)"/>
    <use xlink:href="#DejaVuSans-Bold-70" transform="translate(150.830078 0)"/>
    <use xlink:href="#DejaVuSans-Bold-72" transform="translate(222.412109 0)"/>
    <use xlink:href="#DejaVuSans-Bold-65" transform="translate(271.728516 0)"/>
    <use xlink:href="#DejaVuSans-Bold-73" transform="translate(339.550781 0)"/>
    <use xlink:href="#DejaVuSans-Bold-73" transform="translate(399.072266 0)"/>
    <use xlink:href="#DejaVuSans-Bold-69" transform="translate(458.59375 0)"/>
    <use xlink:href="#DejaVuSans-Bold-6f" transform="translate(492.871094 0)"/>
    <use xlink:href="#DejaVuSans-Bold-6e" transform="translate(561.572266 0)"/>
    <use xlink:href="#DejaVuSans-Bold-20" transform="translate(632.763672 0)"/>
    <use xlink:href="#DejaVuSans-Bold-52" transform="translate(667.578125 0)"/>
    <use xlink:href="#DejaVuSans-Bold-61" transform="translate(744.580078 0)"/>
    <use xlink:href="#DejaVuSans-Bold-74" transform="translate(812.060547 0)"/>
    <use xlink:href="#DejaVuSans-Bold-65" transform="translate(859.863281 0)"/>
    <use xlink:href="#DejaVuSans-Bold-20" transform="translate(927.685547 0)"/>
    <use xlink:href="#DejaVuSans-Bold-62" transform="translate(962.5 0)"/>
    <use xlink:href="#DejaVuSans-Bold-79" transform="translate(1034.082031 0)"/>
    <use xlink:href="#DejaVuSans-Bold-20" transform="translate(1099.267578 0)"/>
    <use xlink:href="#DejaVuSans-Bold-46" transform="translate(1134.082031 0)"/>
    <use xlink:href="#DejaVuSans-Bold-69" transform="translate(1202.392578 0)"/>
    <use xlink:href="#DejaVuSans-Bold-6e" transform="translate(1236.669922 0)"/>
    <use xlink:href="#DejaVuSans-Bold-61" transform="translate(1307.861328 0)"/>
    <use xlink:href="#DejaVuSans-Bold-6e" transform="translate(1375.341797 0)"/>
    <use xlink:href="#DejaVuSans-Bold-63" transform="translate(1446.533203 0)"/>
    <use xlink:href="#DejaVuSans-Bold-69" transform="translate(1505.810547 0)"/>
    <use xlink:href="#DejaVuSans-Bold-61" transform="translate(1540.087891 0)"/>
    <use xlink:href="#DejaVuSans-Bold-6c" transform="translate(1607.568359 0)"/>
    <use xlink:href="#DejaVuSans-Bold-20" transform="translate(1641.845703 0)"/>
    <use xlink:href="#DejaVuSans-Bold-53" transform="translate(1676.660156 0)"/>
    <use xlink:href="#DejaVuSans-Bold-74" transform="translate(1748.681641 0)"/>
    <use xlink:href="#DejaVuSans-Bold-72" transform="translate(1796.484375 0)"/>
    <use xlink:href="#DejaVuSans-Bold-65" transform="translate(1845.800781 0)"/>
    <use xlink:href="#DejaVuSans-Bold-73" transform="translate(1913.623047 0)"/>
    <use xlink:href="#DejaVuSans-Bold-73" transform="translate(1973.144531 0)"/>
    <use xlink:href="#DejaVuSans-Bold-20" transform="translate(2032.666016 0)"/>
    <use xlink:href="#DejaVuSans-Bold-4c" transform="translate(2067.480469 0)"/>
    <use xlink:href="#DejaVuSans-Bold-65" transform="translate(2131.201172 0)"/>
    <use xlink:href="#DejaVuSans-Bold-76" transform="translate(2199.023438 0)"/>
    <use xlink:href="#DejaVuSans-Bold-65" transform="translate(2264.208984 0)"/>
    <use xlink:href="#DejaVuSans-Bold-6c" transform="translate(2332.03125 0)"/>
   </g>
  </g>
  <g id="text_13">
   <!-- Strong monotonic relationship — highest stress (5) shows ~2.5× the depression rate of lowest (1) -->
   <g style="fill: #555555" transform="translate(54.395 46.497031) scale(0.11 -0.11)">
    <defs>
     <path id="DejaVuSans-53" d="M 3425 4513 
L 3425 3897 
Q 3066 4069 2747 4153 
Q 2428 4238 2131 4238 
Q 1616 4238 1336 4038 
Q 1056 3838 1056 3469 
Q 1056 3159 1242 3001 
Q 1428 2844 1947 2747 
L 2328 2669 
Q 3034 2534 3370 2195 
Q 3706 1856 3706 1288 
Q 3706 609 3251 259 
Q 2797 -91 1919 -91 
Q 1588 -91 1214 -16 
Q 841 59 441 206 
L 441 856 
Q 825 641 1194 531 
Q 1563 422 1919 422 
Q 2459 422 2753 634 
Q 3047 847 3047 1241 
Q 3047 1584 2836 1778 
Q 2625 1972 2144 2069 
L 1759 2144 
Q 1053 2284 737 2584 
Q 422 2884 422 3419 
Q 422 4038 858 4394 
Q 1294 4750 2059 4750 
Q 2388 4750 2728 4690 
Q 3069 4631 3425 4513 
z
" transform="scale(0.015625)"/>
     <path id="DejaVuSans-74" d="M 1172 4494 
L 1172 3500 
L 2356 3500 
L 2356 3053 
L 1172 3053 
L 1172 1153 
Q 1172 725 1289 603 
Q 1406 481 1766 481 
L 2356 481 
L 2356 0 
L 1766 0 
Q 1100 0 847 248 
Q 594 497 594 1153 
L 594 3053 
L 172 3053 
L 172 3500 
L 594 3500 
L 594 4494 
L 1172 4494 
z
" transform="scale(0.015625)"/>
     <path id="DejaVuSans-6f" d="M 1959 3097 
Q 1497 3097 1228 2736 
Q 959 2375 959 1747 
Q 959 1119 1226 758 
Q 1494 397 1959 397 
Q 2419 397 2687 759 
Q 2956 1122 2956 1747 
Q 2956 2369 2687 2733 
Q 2419 3097 1959 3097 
z
M 1959 3584 
Q 2709 3584 3137 3096 
Q 3566 2609 3566 1747 
Q 3566 888 3137 398 
Q 2709 -91 1959 -91 
Q 1206 -91 779 398 
Q 353 888 353 1747 
Q 353 2609 779 3096 
Q 1206 3584 1959 3584 
z
" transform="scale(0.015625)"/>
     <path id="DejaVuSans-6e" d="M 3513 2113 
L 3513 0 
L 2938 0 
L 2938 2094 
Q 2938 2591 2744 2837 
Q 2550 3084 2163 3084 
Q 1697 3084 1428 2787 
Q 1159 2491 1159 1978 
L 1159 0 
L 581 0 
L 581 3500 
L 1159 3500 
L 1159 2956 
Q 1366 3272 1645 3428 
Q 1925 3584 2291 3584 
Q 2894 3584 3203 3211 
Q 3513 2838 3513 2113 
z
" transform="scale(0.015625)"/>
     <path id="DejaVuSans-6d" d="M 3328 2828 
Q 3544 3216 3844 3400 
Q 4144 3584 4550 3584 
Q 5097 3584 5394 3201 
Q 5691 2819 5691 2113 
L 5691 0 
L 5113 0 
L 5113 2094 
Q 5113 2597 4934 2840 
Q 4756 3084 4391 3084 
Q 3944 3084 3684 2787 
Q 3425 2491 3425 1978 
L 3425 0 
L 2847 0 
L 2847 2094 
Q 2847 2600 2669 2842 
Q 2491 3084 2119 3084 
Q 1678 3084 1418 2786 
Q 1159 2488 1159 1978 
L 1159 0 
L 581 0 
L 581 3500 
L 1159 3500 
L 1159 2956 
Q 1356 3278 1631 3431 
Q 1906 3584 2284 3584 
Q 2666 3584 2933 3390 
Q 3200 3197 3328 2828 
z
" transform="scale(0.015625)"/>
     <path id="DejaVuSans-69" d="M 603 3500 
L 1178 3500 
L 1178 0 
L 603 0 
L 603 3500 
z
M 603 4863 
L 1178 4863 
L 1178 4134 
L 603 4134 
L 603 4863 
z
" transform="scale(0.015625)"/>
     <path id="DejaVuSans-63" d="M 3122 3366 
L 3122 2828 
Q 2878 2963 2633 3030 
Q 2388 3097 2138 3097 
Q 1578 3097 1268 2742 
Q 959 2388 959 1747 
Q 959 1106 1268 751 
Q 1578 397 2138 397 
Q 2388 397 2633 464 
Q 2878 531 3122 666 
L 3122 134 
Q 2881 22 2623 -34 
Q 2366 -91 2075 -91 
Q 1284 -91 818 406 
Q 353 903 353 1747 
Q 353 2603 823 3093 
Q 1294 3584 2113 3584 
Q 2378 3584 2631 3529 
Q 2884 3475 3122 3366 
z
" transform="scale(0.015625)"/>
     <path id="DejaVuSans-73" d="M 2834 3397 
L 2834 2853 
Q 2591 2978 2328 3040 
Q 2066 3103 1784 3103 
Q 1356 3103 1142 2972 
Q 928 2841 928 2578 
Q 928 2378 1081 2264 
Q 1234 2150 1697 2047 
L 1894 2003 
Q 2506 1872 2764 1633 
Q 3022 1394 3022 966 
Q 3022 478 2636 193 
Q 2250 -91 1575 -91 
Q 1294 -91 989 -36 
Q 684 19 347 128 
L 347 722 
Q 666 556 975 473 
Q 1284 391 1588 391 
Q 1994 391 2212 530 
Q 2431 669 2431 922 
Q 2431 1156 2273 1281 
Q 2116 1406 1581 1522 
L 1381 1569 
Q 847 1681 609 1914 
Q 372 2147 372 2553 
Q 372 3047 722 3315 
Q 1072 3584 1716 3584 
Q 2034 3584 2315 3537 
Q 2597 3491 2834 3397 
z
" transform="scale(0.015625)"/>
     <path id="DejaVuSans-68" d="M 3513 2113 
L 3513 0 
L 2938 0 
L 2938 2094 
Q 2938 2591 2744 2837 
Q 2550 3084 2163 3084 
Q 1697 3084 1428 2787 
Q 1159 2491 1159 1978 
L 1159 0 
L 581 0 
L 581 4863 
L 1159 4863 
L 1159 2956 
Q 1366 3272 1645 3428 
Q 1925 3584 2291 3584 
Q 2894 3584 3203 3211 
Q 3513 2838 3513 2113 
z
" transform="scale(0.015625)"/>
     <path id="DejaVuSans-70" d="M 1159 525 
L 1159 -1331 
L 581 -1331 
L 581 3500 
L 1159 3500 
L 1159 2969 
Q 1341 3281 1617 3432 
Q 1894 3584 2278 3584 
Q 2916 3584 3314 3078 
Q 3713 2572 3713 1747 
Q 3713 922 3314 415 
Q 2916 -91 2278 -91 
Q 1894 -91 1617 61 
Q 1341 213 1159 525 
z
M 3116 1747 
Q 3116 2381 2855 2742 
Q 2594 3103 2138 3103 
Q 1681 3103 1420 2742 
Q 1159 2381 1159 1747 
Q 1159 1113 1420 752 
Q 1681 391 2138 391 
Q 2594 391 2855 752 
Q 3116 1113 3116 1747 
z
" transform="scale(0.015625)"/>
     <path id="DejaVuSans-2014" d="M 313 1978 
L 6088 1978 
L 6088 1528 
L 313 1528 
L 313 1978 
z
" transform="scale(0.015625)"/>
     <path id="DejaVuSans-28" d="M 1984 4856 
Q 1566 4138 1362 3434 
Q 1159 2731 1159 2009 
Q 1159 1288 1364 580 
Q 1569 -128 1984 -844 
L 1484 -844 
Q 1016 -109 783 600 
Q 550 1309 550 2009 
Q 550 2706 781 3412 
Q 1013 4119 1484 4856 
L 1984 4856 
z
" transform="scale(0.015625)"/>
     <path id="DejaVuSans-29" d="M 513 4856 
L 1013 4856 
Q 1481 4119 1714 3412 
Q 1947 2706 1947 2009 
Q 1947 1309 1714 600 
Q 1481 -109 1013 -844 
L 513 -844 
Q 928 -128 1133 580 
Q 1338 1288 1338 2009 
Q 1338 2731 1133 3434 
Q 928 4138 513 4856 
z
" transform="scale(0.015625)"/>
     <path id="DejaVuSans-77" d="M 269 3500 
L 844 3500 
L 1563 769 
L 2278 3500 
L 2956 3500 
L 3675 769 
L 4391 3500 
L 4966 3500 
L 4050 0 
L 3372 0 
L 2619 2869 
L 1863 0 
L 1184 0 
L 269 3500 
z
" transform="scale(0.015625)"/>
     <path id="DejaVuSans-7e" d="M 4684 2553 
L 4684 1997 
Q 4356 1750 4076 1644 
Q 3797 1538 3494 1538 
Q 3150 1538 2694 1722 
Q 2659 1734 2644 1741 
Q 2622 1750 2575 1766 
Q 2091 1959 1797 1959 
Q 1522 1959 1253 1839 
Q 984 1719 678 1459 
L 678 2016 
Q 1006 2263 1286 2370 
Q 1566 2478 1869 2478 
Q 2213 2478 2672 2291 
Q 2703 2278 2719 2272 
Q 2744 2263 2788 2247 
Q 3272 2053 3566 2053 
Q 3834 2053 4098 2172 
Q 4363 2291 4684 2553 
z
" transform="scale(0.015625)"/>
     <path id="DejaVuSans-2e" d="M 684 794 
L 1344 794 
L 1344 0 
L 684 0 
L 684 794 
z
" transform="scale(0.015625)"/>
     <path id="DejaVuSans-d7" d="M 4488 3438 
L 3059 2003 
L 4488 575 
L 4116 197 
L 2681 1631 
L 1247 197 
L 878 575 
L 2303 2003 
L 878 3438 
L 1247 3816 
L 2681 2381 
L 4116 3816 
L 4488 3438 
z
" transform="scale(0.015625)"/>
     <path id="DejaVuSans-64" d="M 2906 2969 
L 2906 4863 
L 3481 4863 
L 3481 0 
L 2906 0 
L 2906 525 
Q 2725 213 2448 61 
Q 2172 -91 1784 -91 
Q 1150 -91 751 415 
Q 353 922 353 1747 
Q 353 2572 751 3078 
Q 1150 3584 1784 3584 
Q 2172 3584 2448 3432 
Q 2725 3281 2906 2969 
z
M 947 1747 
Q 947 1113 1208 752 
Q 1469 391 1925 391 
Q 2381 391 2643 752 
Q 2906 1113 2906 1747 
Q 2906 2381 2643 2742 
Q 2381 3103 1925 3103 
Q 1469 3103 1208 2742 
Q 947 2381 947 1747 
z
" transform="scale(0.015625)"/>
     <path id="DejaVuSans-66" d="M 2375 4863 
L 2375 4384 
L 1825 4384 
Q 1516 4384 1395 4259 
Q 1275 4134 1275 3809 
L 1275 3500 
L 2222 3500 
L 2222 3053 
L 1275 3053 
L 1275 0 
L 697 0 
L 697 3053 
L 147 3053 
L 147 3500 
L 697 3500 
L 697 3744 
Q 697 4328 969 4595 
Q 1241 4863 1831 4863 
L 2375 4863 
z
" transform="scale(0.015625)"/>
    </defs>
    <use xlink:href="#DejaVuSans-53"/>
    <use xlink:href="#DejaVuSans-74" transform="translate(63.476562 0)"/>
    <use xlink:href="#DejaVuSans-72" transform="translate(102.685547 0)"/>
    <use xlink:href="#DejaVuSans-6f" transform="translate(141.548828 0)"/>
    <use xlink:href="#DejaVuSans-6e" transform="translate(202.730469 0)"/>
    <use xlink:href="#DejaVuSans-67" transform="translate(266.109375 0)"/>
    <use xlink:href="#DejaVuSans-20" transform="translate(329.585938 0)"/>
    <use xlink:href="#DejaVuSans-6d" transform="translate(361.373047 0)"/>
    <use xlink:href="#DejaVuSans-6f" transform="translate(458.785156 0)"/>
    <use xlink:href="#DejaVuSans-6e" transform="translate(519.966797 0)"/>
    <use xlink:href="#DejaVuSans-6f" transform="translate(583.345703 0)"/>
    <use xlink:href="#DejaVuSans-74" transform="translate(644.527344 0)"/>
    <use xlink:href="#DejaVuSans-6f" transform="translate(683.736328 0)"/>
    <use xlink:href="#DejaVuSans-6e" transform="translate(744.917969 0)"/>
    <use xlink:href="#DejaVuSans-69" transform="translate(808.296875 0)"/>
    <use xlink:href="#DejaVuSans-63" transform="translate(836.080078 0)"/>
    <use xlink:href="#DejaVuSans-20" transform="translate(891.060547 0)"/>
    <use xlink:href="#DejaVuSans-72" transform="translate(922.847656 0)"/>
    <use xlink:href="#DejaVuSans-65" transform="translate(961.710938 0)"/>
    <use xlink:href="#DejaVuSans-6c" transform="translate(1023.234375 0)"/>
    <use xlink:href="#DejaVuSans-61" transform="translate(1051.017578 0)"/>
    <use xlink:href="#DejaVuSans-74" transform="translate(1112.296875 0)"/>
    <use xlink:href="#DejaVuSans-69" transform="translate(1151.505859 0)"/>
    <use xlink:href="#DejaVuSans-6f" transform="translate(1179.289062 0)"/>
    <use xlink:href="#DejaVuSans-6e" transform="translate(1240.470703 0)"/>
    <use xlink:href="#DejaVuSans-73" transform="translate(1303.849609 0)"/>
    <use xlink:href="#DejaVuSans-68" transform="translate(1355.949219 0)"/>
    <use xlink:href="#DejaVuSans-69" transform="translate(1419.328125 0)"/>
    <use xlink:href="#DejaVuSans-70" transform="translate(1447.111328 0)"/>
    <use xlink:href="#DejaVuSans-20" transform="translate(1510.587891 0)"/>
    <use xlink:href="#DejaVuSans-2014" transform="translate(1542.375 0)"/>
    <use xlink:href="#DejaVuSans-20" transform="translate(1642.375 0)"/>
    <use xlink:href="#DejaVuSans-68" transform="translate(1674.162109 0)"/>
    <use xlink:href="#DejaVuSans-69" transform="translate(1737.541016 0)"/>
    <use xlink:href="#DejaVuSans-67" transform="translate(1765.324219 0)"/>
    <use xlink:href="#DejaVuSans-68" transform="translate(1828.800781 0)"/>
    <use xlink:href="#DejaVuSans-65" transform="translate(1892.179688 0)"/>
    <use xlink:href="#DejaVuSans-73" transform="translate(1953.703125 0)"/>
    <use xlink:href="#DejaVuSans-74" transform="translate(2005.802734 0)"/>
    <use xlink:href="#DejaVuSans-20" transform="translate(2045.011719 0)"/>
    <use xlink:href="#DejaVuSans-73" transform="translate(2076.798828 0)"/>
    <use xlink:href="#DejaVuSans-74" transform="translate(2128.898438 0)"/>
    <use xlink:href="#DejaVuSans-72" transform="translate(2168.107422 0)"/>
    <use xlink:href="#DejaVuSans-65" transform="translate(2206.970703 0)"/>
    <use xlink:href="#DejaVuSans-73" transform="translate(2268.494141 0)"/>
    <use xlink:href="#DejaVuSans-73" transform="translate(2320.59375 0)"/>
    <use xlink:href="#DejaVuSans-20" transform="translate(2372.693359 0)"/>
    <use xlink:href="#DejaVuSans-28" transform="translate(2404.480469 0)"/>
    <use xlink:href="#DejaVuSans-35" transform="translate(2443.494141 0)"/>
    <use xlink:href="#DejaVuSans-29" transform="translate(2507.117188 0)"/>
    <use xlink:href="#DejaVuSans-20" transform="translate(2546.130859 0)"/>
    <use xlink:href="#DejaVuSans-73" transform="translate(2577.917969 0)"/>
    <use xlink:href="#DejaVuSans-68" transform="translate(2630.017578 0)"/>
    <use xlink:href="#DejaVuSans-6f" transform="translate(2693.396484 0)"/>
    <use xlink:href="#DejaVuSans-77" transform="translate(2754.578125 0)"/>
    <use xlink:href="#DejaVuSans-73" transform="translate(2836.365234 0)"/>
    <use xlink:href="#DejaVuSans-20" transform="translate(2888.464844 0)"/>
    <use xlink:href="#DejaVuSans-7e" transform="translate(2920.251953 0)"/>
    <use xlink:href="#DejaVuSans-32" transform="translate(3004.041016 0)"/>
    <use xlink:href="#DejaVuSans-2e" transform="translate(3067.664062 0)"/>
    <use xlink:href="#DejaVuSans-35" transform="translate(3099.451172 0)"/>
    <use xlink:href="#DejaVuSans-d7" transform="translate(3163.074219 0)"/>
    <use xlink:href="#DejaVuSans-20" transform="translate(3246.863281 0)"/>
    <use xlink:href="#DejaVuSans-74" transform="translate(3278.650391 0)"/>
    <use xlink:href="#DejaVuSans-68" transform="translate(3317.859375 0)"/>
    <use xlink:href="#DejaVuSans-65" transform="translate(3381.238281 0)"/>
    <use xlink:href="#DejaVuSans-20" transform="translate(3442.761719 0)"/>
    <use xlink:href="#DejaVuSans-64" transform="translate(3474.548828 0)"/>
    <use xlink:href="#DejaVuSans-65" transform="translate(3538.025391 0)"/>
    <use xlink:href="#DejaVuSans-70" transform="translate(3599.548828 0)"/>
    <use xlink:href="#DejaVuSans-72" transform="translate(3663.025391 0)"/>
    <use xlink:href="#DejaVuSans-65" transform="translate(3701.888672 0)"/>
    <use xlink:href="#DejaVuSans-73" transform="translate(3763.412109 0)"/>
    <use xlink:href="#DejaVuSans-73" transform="translate(3815.511719 0)"/>
    <use xlink:href="#DejaVuSans-69" transform="translate(3867.611328 0)"/>
    <use xlink:href="#DejaVuSans-6f" transform="translate(3895.394531 0)"/>
    <use xlink:href="#DejaVuSans-6e" transform="translate(3956.576172 0)"/>
    <use xlink:href="#DejaVuSans-20" transform="translate(4019.955078 0)"/>
    <use xlink:href="#DejaVuSans-72" transform="translate(4051.742188 0)"/>
    <use xlink:href="#DejaVuSans-61" transform="translate(4092.855469 0)"/>
    <use xlink:href="#DejaVuSans-74" transform="translate(4154.134766 0)"/>
    <use xlink:href="#DejaVuSans-65" transform="translate(4193.34375 0)"/>
    <use xlink:href="#DejaVuSans-20" transform="translate(4254.867188 0)"/>
    <use xlink:href="#DejaVuSans-6f" transform="translate(4286.654297 0)"/>
    <use xlink:href="#DejaVuSans-66" transform="translate(4347.835938 0)"/>
    <use xlink:href="#DejaVuSans-20" transform="translate(4383.041016 0)"/>
    <use xlink:href="#DejaVuSans-6c" transform="translate(4414.828125 0)"/>
    <use xlink:href="#DejaVuSans-6f" transform="translate(4442.611328 0)"/>
    <use xlink:href="#DejaVuSans-77" transform="translate(4503.792969 0)"/>
    <use xlink:href="#DejaVuSans-65" transform="translate(4585.580078 0)"/>
    <use xlink:href="#DejaVuSans-73" transform="translate(4647.103516 0)"/>
    <use xlink:href="#DejaVuSans-74" transform="translate(4699.203125 0)"/>
    <use xlink:href="#DejaVuSans-20" transform="translate(4738.412109 0)"/>
    <use xlink:href="#DejaVuSans-28" transform="translate(4770.199219 0)"/>
    <use xlink:href="#DejaVuSans-31" transform="translate(4809.212891 0)"/>
    <use xlink:href="#DejaVuSans-29" transform="translate(4872.835938 0)"/>
   </g>
  </g>
  <g id="text_14">
   <!-- PS4E11 · train.csv -->
   <g style="fill: #888888" transform="translate(560.161406 351.648281) scale(0.09 -0.09)">
    <defs>
     <path id="DejaVuSans-50" d="M 1259 4147 
L 1259 2394 
L 2053 2394 
Q 2494 2394 2734 2622 
Q 2975 2850 2975 3272 
Q 2975 3691 2734 3919 
Q 2494 4147 2053 4147 
L 1259 4147 
z
M 628 4666 
L 2053 4666 
Q 2838 4666 3239 4311 
Q 3641 3956 3641 3272 
Q 3641 2581 3239 2228 
Q 2838 1875 2053 1875 
L 1259 1875 
L 1259 0 
L 628 0 
L 628 4666 
z
" transform="scale(0.015625)"/>
     <path id="DejaVuSans-45" d="M 628 4666 
L 3578 4666 
L 3578 4134 
L 1259 4134 
L 1259 2753 
L 3481 2753 
L 3481 2222 
L 1259 2222 
L 1259 531 
L 3634 531 
L 3634 0 
L 628 0 
L 628 4666 
z
" transform="scale(0.015625)"/>
     <path id="DejaVuSans-b7" d="M 684 2619 
L 1344 2619 
L 1344 1825 
L 684 1825 
L 684 2619 
z
" transform="scale(0.015625)"/>
    </defs>
    <use xlink:href="#DejaVuSans-50"/>
    <use xlink:href="#DejaVuSans-53" transform="translate(60.302734 0)"/>
    <use xlink:href="#DejaVuSans-34" transform="translate(123.779297 0)"/>
    <use xlink:href="#DejaVuSans-45" transform="translate(187.402344 0)"/>
    <use xlink:href="#DejaVuSans-31" transform="translate(250.585938 0)"/>
    <use xlink:href="#DejaVuSans-31" transform="translate(314.208984 0)"/>
    <use xlink:href="#DejaVuSans-20" transform="translate(377.832031 0)"/>
    <use xlink:href="#DejaVuSans-b7" transform="translate(409.619141 0)"/>
    <use xlink:href="#DejaVuSans-20" transform="translate(441.40625 0)"/>
    <use xlink:href="#DejaVuSans-74" transform="translate(473.193359 0)"/>
    <use xlink:href="#DejaVuSans-72" transform="translate(512.402344 0)"/>
    <use xlink:href="#DejaVuSans-61" transform="translate(553.515625 0)"/>
    <use xlink:href="#DejaVuSans-69" transform="translate(614.794922 0)"/>
    <use xlink:href="#DejaVuSans-6e" transform="translate(642.578125 0)"/>
    <use xlink:href="#DejaVuSans-2e" transform="translate(705.957031 0)"/>
    <use xlink:href="#DejaVuSans-63" transform="translate(737.744141 0)"/>
    <use xlink:href="#DejaVuSans-73" transform="translate(792.724609 0)"/>
    <use xlink:href="#DejaVuSans-76" transform="translate(844.824219 0)"/>
   </g>
  </g>
  <g id="text_15">
   <!-- Financial stress (1 = low, 5 = high) -->
   <g transform="translate(239.699453 328.036094) scale(0.11 -0.11)">
    <defs>
     <path id="DejaVuSans-Bold-28" d="M 2413 -844 
L 1484 -844 
Q 1006 -72 778 623 
Q 550 1319 550 2003 
Q 550 2688 779 3389 
Q 1009 4091 1484 4856 
L 2413 4856 
Q 2013 4116 1813 3408 
Q 1613 2700 1613 2009 
Q 1613 1319 1811 609 
Q 2009 -100 2413 -844 
z
" transform="scale(0.015625)"/>
     <path id="DejaVuSans-Bold-31" d="M 750 831 
L 1813 831 
L 1813 3847 
L 722 3622 
L 722 4441 
L 1806 4666 
L 2950 4666 
L 2950 831 
L 4013 831 
L 4013 0 
L 750 0 
L 750 831 
z
" transform="scale(0.015625)"/>
     <path id="DejaVuSans-Bold-3d" d="M 678 3084 
L 4684 3084 
L 4684 2350 
L 678 2350 
L 678 3084 
z
M 678 1663 
L 4684 1663 
L 4684 922 
L 678 922 
L 678 1663 
z
" transform="scale(0.015625)"/>
     <path id="DejaVuSans-Bold-77" d="M 225 3500 
L 1313 3500 
L 1900 1088 
L 2491 3500 
L 3425 3500 
L 4013 1113 
L 4603 3500 
L 5691 3500 
L 4769 0 
L 3547 0 
L 2956 2406 
L 2369 0 
L 1147 0 
L 225 3500 
z
" transform="scale(0.015625)"/>
     <path id="DejaVuSans-Bold-2c" d="M 653 1209 
L 1778 1209 
L 1778 256 
L 1006 -909 
L 341 -909 
L 653 256 
L 653 1209 
z
" transform="scale(0.015625)"/>
     <path id="DejaVuSans-Bold-35" d="M 678 4666 
L 3669 4666 
L 3669 3781 
L 1638 3781 
L 1638 3059 
Q 1775 3097 1914 3117 
Q 2053 3138 2203 3138 
Q 3056 3138 3531 2711 
Q 4006 2284 4006 1522 
Q 4006 766 3489 337 
Q 2972 -91 2053 -91 
Q 1656 -91 1267 -14 
Q 878 63 494 219 
L 494 1166 
Q 875 947 1217 837 
Q 1559 728 1863 728 
Q 2300 728 2551 942 
Q 2803 1156 2803 1522 
Q 2803 1891 2551 2103 
Q 2300 2316 1863 2316 
Q 1603 2316 1309 2248 
Q 1016 2181 678 2041 
L 678 4666 
z
" transform="scale(0.015625)"/>
     <path id="DejaVuSans-Bold-68" d="M 4056 2131 
L 4056 0 
L 2931 0 
L 2931 347 
L 2931 1625 
Q 2931 2084 2911 2256 
Q 2891 2428 2841 2509 
Q 2775 2619 2662 2680 
Q 2550 2741 2406 2741 
Q 2056 2741 1856 2470 
Q 1656 2200 1656 1722 
L 1656 0 
L 538 0 
L 538 4863 
L 1656 4863 
L 1656 2988 
Q 1909 3294 2193 3439 
Q 2478 3584 2822 3584 
Q 3428 3584 3742 3212 
Q 4056 2841 4056 2131 
z
" transform="scale(0.015625)"/>
     <path id="DejaVuSans-Bold-67" d="M 2919 594 
Q 2688 288 2409 144 
Q 2131 0 1766 0 
Q 1125 0 706 504 
Q 288 1009 288 1791 
Q 288 2575 706 3076 
Q 1125 3578 1766 3578 
Q 2131 3578 2409 3434 
Q 2688 3291 2919 2981 
L 2919 3500 
L 4044 3500 
L 4044 353 
Q 4044 -491 3511 -936 
Q 2978 -1381 1966 -1381 
Q 1638 -1381 1331 -1331 
Q 1025 -1281 716 -1178 
L 716 -306 
Q 1009 -475 1290 -558 
Q 1572 -641 1856 -641 
Q 2406 -641 2662 -400 
Q 2919 -159 2919 353 
L 2919 594 
z
M 2181 2772 
Q 1834 2772 1640 2515 
Q 1447 2259 1447 1791 
Q 1447 1309 1634 1061 
Q 1822 813 2181 813 
Q 2531 813 2725 1069 
Q 2919 1325 2919 1791 
Q 2919 2259 2725 2515 
Q 2531 2772 2181 2772 
z
" transform="scale(0.015625)"/>
     <path id="DejaVuSans-Bold-29" d="M 513 -844 
Q 913 -100 1113 609 
Q 1313 1319 1313 2009 
Q 1313 2700 1113 3408 
Q 913 4116 513 4856 
L 1441 4856 
Q 1916 4091 2145 3389 
Q 2375 2688 2375 2003 
Q 2375 1319 2147 623 
Q 1919 -72 1441 -844 
L 513 -844 
z
" transform="scale(0.015625)"/>
    </defs>
    <use xlink:href="#DejaVuSans-Bold-46"/>
    <use xlink:href="#DejaVuSans-Bold-69" transform="translate(68.310547 0)"/>
    <use xlink:href="#DejaVuSans-Bold-6e" transform="translate(102.587891 0)"/>
    <use xlink:href="#DejaVuSans-Bold-61" transform="translate(173.779297 0)"/>
    <use xlink:href="#DejaVuSans-Bold-6e" transform="translate(241.259766 0)"/>
    <use xlink:href="#DejaVuSans-Bold-63" transform="translate(312.451172 0)"/>
    <use xlink:href="#DejaVuSans-Bold-69" transform="translate(371.728516 0)"/>
    <use xlink:href="#DejaVuSans-Bold-61" transform="translate(406.005859 0)"/>
    <use xlink:href="#DejaVuSans-Bold-6c" transform="translate(473.486328 0)"/>
    <use xlink:href="#DejaVuSans-Bold-20" transform="translate(507.763672 0)"/>
    <use xlink:href="#DejaVuSans-Bold-73" transform="translate(542.578125 0)"/>
    <use xlink:href="#DejaVuSans-Bold-74" transform="translate(602.099609 0)"/>
    <use xlink:href="#DejaVuSans-Bold-72" transform="translate(649.902344 0)"/>
    <use xlink:href="#DejaVuSans-Bold-65" transform="translate(699.21875 0)"/>
    <use xlink:href="#DejaVuSans-Bold-73" transform="translate(767.041016 0)"/>
    <use xlink:href="#DejaVuSans-Bold-73" transform="translate(826.5625 0)"/>
    <use xlink:href="#DejaVuSans-Bold-20" transform="translate(886.083984 0)"/>
    <use xlink:href="#DejaVuSans-Bold-28" transform="translate(920.898438 0)"/>
    <use xlink:href="#DejaVuSans-Bold-31" transform="translate(966.601562 0)"/>
    <use xlink:href="#DejaVuSans-Bold-20" transform="translate(1036.181641 0)"/>
    <use xlink:href="#DejaVuSans-Bold-3d" transform="translate(1070.996094 0)"/>
    <use xlink:href="#DejaVuSans-Bold-20" transform="translate(1154.785156 0)"/>
    <use xlink:href="#DejaVuSans-Bold-6c" transform="translate(1189.599609 0)"/>
    <use xlink:href="#DejaVuSans-Bold-6f" transform="translate(1223.876953 0)"/>
    <use xlink:href="#DejaVuSans-Bold-77" transform="translate(1292.578125 0)"/>
    <use xlink:href="#DejaVuSans-Bold-2c" transform="translate(1378.585938 0)"/>
    <use xlink:href="#DejaVuSans-Bold-20" transform="translate(1416.574219 0)"/>
    <use xlink:href="#DejaVuSans-Bold-35" transform="translate(1451.388672 0)"/>
    <use xlink:href="#DejaVuSans-Bold-20" transform="translate(1520.96875 0)"/>
    <use xlink:href="#DejaVuSans-Bold-3d" transform="translate(1555.783203 0)"/>
    <use xlink:href="#DejaVuSans-Bold-20" transform="translate(1639.572266 0)"/>
    <use xlink:href="#DejaVuSans-Bold-68" transform="translate(1674.386719 0)"/>
    <use xlink:href="#DejaVuSans-Bold-69" transform="translate(1745.578125 0)"/>
    <use xlink:href="#DejaVuSans-Bold-67" transform="translate(1779.855469 0)"/>
    <use xlink:href="#DejaVuSans-Bold-68" transform="translate(1851.4375 0)"/>
    <use xlink:href="#DejaVuSans-Bold-29" transform="translate(1922.628906 0)"/>
   </g>
  </g>
  <g id="text_16">
   <!-- Proportion (%) -->
   <g transform="translate(14.838281 250.103516) rotate(-90) scale(0.11 -0.11)">
    <defs>
     <path id="DejaVuSans-Bold-50" d="M 588 4666 
L 2584 4666 
Q 3475 4666 3951 4270 
Q 4428 3875 4428 3144 
Q 4428 2409 3951 2014 
Q 3475 1619 2584 1619 
L 1791 1619 
L 1791 0 
L 588 0 
L 588 4666 
z
M 1791 3794 
L 1791 2491 
L 2456 2491 
Q 2806 2491 2997 2661 
Q 3188 2831 3188 3144 
Q 3188 3456 2997 3625 
Q 2806 3794 2456 3794 
L 1791 3794 
z
" transform="scale(0.015625)"/>
     <path id="DejaVuSans-Bold-25" d="M 4959 1925 
Q 4738 1925 4616 1733 
Q 4494 1541 4494 1184 
Q 4494 825 4614 633 
Q 4734 441 4959 441 
Q 5184 441 5303 633 
Q 5422 825 5422 1184 
Q 5422 1541 5301 1733 
Q 5181 1925 4959 1925 
z
M 4959 2450 
Q 5541 2450 5875 2112 
Q 6209 1775 6209 1184 
Q 6209 594 5875 251 
Q 5541 -91 4959 -91 
Q 4378 -91 4042 251 
Q 3706 594 3706 1184 
Q 3706 1772 4042 2111 
Q 4378 2450 4959 2450 
z
M 2094 -91 
L 1403 -91 
L 4319 4750 
L 5013 4750 
L 2094 -91 
z
M 1453 4750 
Q 2034 4750 2367 4411 
Q 2700 4072 2700 3481 
Q 2700 2891 2367 2550 
Q 2034 2209 1453 2209 
Q 872 2209 539 2550 
Q 206 2891 206 3481 
Q 206 4072 539 4411 
Q 872 4750 1453 4750 
z
M 1453 4225 
Q 1228 4225 1106 4031 
Q 984 3838 984 3481 
Q 984 3122 1106 2926 
Q 1228 2731 1453 2731 
Q 1678 2731 1798 2926 
Q 1919 3122 1919 3481 
Q 1919 3838 1797 4031 
Q 1675 4225 1453 4225 
z
" transform="scale(0.015625)"/>
    </defs>
    <use xlink:href="#DejaVuSans-Bold-50"/>
    <use xlink:href="#DejaVuSans-Bold-72" transform="translate(73.291016 0)"/>
    <use xlink:href="#DejaVuSans-Bold-6f" transform="translate(122.607422 0)"/>
    <use xlink:href="#DejaVuSans-Bold-70" transform="translate(191.308594 0)"/>
    <use xlink:href="#DejaVuSans-Bold-6f" transform="translate(262.890625 0)"/>
    <use xlink:href="#DejaVuSans-Bold-72" transform="translate(331.591797 0)"/>
    <use xlink:href="#DejaVuSans-Bold-74" transform="translate(380.908203 0)"/>
    <use xlink:href="#DejaVuSans-Bold-69" transform="translate(428.710938 0)"/>
    <use xlink:href="#DejaVuSans-Bold-6f" transform="translate(462.988281 0)"/>
    <use xlink:href="#DejaVuSans-Bold-6e" transform="translate(531.689453 0)"/>
    <use xlink:href="#DejaVuSans-Bold-20" transform="translate(602.880859 0)"/>
    <use xlink:href="#DejaVuSans-Bold-28" transform="translate(637.695312 0)"/>
    <use xlink:href="#DejaVuSans-Bold-25" transform="translate(683.398438 0)"/>
    <use xlink:href="#DejaVuSans-Bold-29" transform="translate(783.59375 0)"/>
   </g>
  </g>
  <g id="patch_2">
   <path d="M 266.994687 87.224687 
L 282.834687 87.224687 
L 282.834687 71.384687 
L 266.994687 71.384687 
z
" clip-path="url(#p8025bbb502)" style="fill: #e05c6b"/>
  </g>
  <g id="text_17">
   <!-- Depression -->
   <g transform="translate(287.154688 82.064062) scale(0.1 -0.1)">
    <defs>
     <path id="DejaVuSans-44" d="M 1259 4147 
L 1259 519 
L 2022 519 
Q 2988 519 3436 956 
Q 3884 1394 3884 2338 
Q 3884 3275 3436 3711 
Q 2988 4147 2022 4147 
L 1259 4147 
z
M 628 4666 
L 1925 4666 
Q 3281 4666 3915 4102 
Q 4550 3538 4550 2338 
Q 4550 1131 3912 565 
Q 3275 0 1925 0 
L 628 0 
L 628 4666 
z
" transform="scale(0.015625)"/>
    </defs>
    <use xlink:href="#DejaVuSans-44"/>
    <use xlink:href="#DejaVuSans-65" transform="translate(77.001953 0)"/>
    <use xlink:href="#DejaVuSans-70" transform="translate(138.525391 0)"/>
    <use xlink:href="#DejaVuSans-72" transform="translate(202.001953 0)"/>
    <use xlink:href="#DejaVuSans-65" transform="translate(240.865234 0)"/>
    <use xlink:href="#DejaVuSans-73" transform="translate(302.388672 0)"/>
    <use xlink:href="#DejaVuSans-73" transform="translate(354.488281 0)"/>
    <use xlink:href="#DejaVuSans-69" transform="translate(406.587891 0)"/>
    <use xlink:href="#DejaVuSans-6f" transform="translate(434.371094 0)"/>
    <use xlink:href="#DejaVuSans-6e" transform="translate(495.552734 0)"/>
   </g>
  </g>
  <g id="patch_3">
   <path d="M 349.048437 87.224687 
L 364.888437 87.224687 
L 364.888437 71.384687 
L 349.048437 71.384687 
z
" clip-path="url(#p82c7ff7178)" style="fill: #5b8db8"/>
  </g>
  <g id="text_18">
   <!-- No Depression -->
   <g transform="translate(369.208438 82.064062) scale(0.1 -0.1)">
    <defs>
     <path id="DejaVuSans-4e" d="M 628 4666 
L 1478 4666 
L 3547 763 
L 3547 4666 
L 4159 4666 
L 4159 0 
L 3309 0 
L 1241 3903 
L 1241 0 
L 628 0 
L 628 4666 
z
" transform="scale(0.015625)"/>
    </defs>
    <use xlink:href="#DejaVuSans-4e"/>
    <use xlink:href="#DejaVuSans-6f" transform="translate(74.804688 0)"/>
    <use xlink:href="#DejaVuSans-20" transform="translate(135.986328 0)"/>
    <use xlink:href="#DejaVuSans-44" transform="translate(167.773438 0)"/>
    <use xlink:href="#DejaVuSans-65" transform="translate(244.775391 0)"/>
    <use xlink:href="#DejaVuSans-70" transform="translate(306.298828 0)"/>
    <use xlink:href="#DejaVuSans-72" transform="translate(369.775391 0)"/>
    <use xlink:href="#DejaVuSans-65" transform="translate(408.638672 0)"/>
    <use xlink:href="#DejaVuSans-73" transform="translate(470.162109 0)"/>
    <use xlink:href="#DejaVuSans-73" transform="translate(522.261719 0)"/>
    <use xlink:href="#DejaVuSans-69" transform="translate(574.361328 0)"/>
    <use xlink:href="#DejaVuSans-6f" transform="translate(602.144531 0)"/>
    <use xlink:href="#DejaVuSans-6e" transform="translate(663.326172 0)"/>
   </g>
  </g>
 </g>
 <defs>
  <clipPath id="pc9a2987fee">
   <rect x="54.395" y="107.664688" width="587.125" height="193.655"/>
  </clipPath>
  <clipPath id="p8025bbb502">
   <path d="M 266.994687 87.224687 
L 266.994687 71.384687 
L 282.834687 71.384687 
L 282.834687 87.224687 
"/>
  </clipPath>
  <clipPath id="p82c7ff7178">
   <path d="M 349.048437 87.224687 
L 349.048437 71.384687 
L 364.888437 71.384687 
L 364.888437 87.224687 
"/>
  </clipPath>
 </defs>
</svg>
