<?xml version="1.0" encoding="utf-8" standalone="no"?>
<!DOCTYPE svg PUBLIC "-//W3C//DTD SVG 1.1//EN"
  "http://www.w3.org/Graphics/SVG/1.1/DTD/svg11.dtd">
<svg xmlns:xlink="http://www.w3.org/1999/xlink" width="720pt" height="360pt" viewBox="0 0 720 360" xmlns="http://www.w3.org/2000/svg" version="1.1">
 <metadata>
  <rdf:RDF xmlns:dc="http://purl.org/dc/elements/1.1/" xmlns:cc="http://creativecommons.org/ns#" xmlns:rdf="http://www.w3.org/1999/02/22-rdf-syntax-ns#">
   <cc:Work>
    <dc:type rdf:resource="http://purl.org/dc/dcmitype/StillImage"/>
    <dc:date>2026-03-10T21:40:08.684151</dc:date>
    <dc:format>image/svg+xml</dc:format>
    <dc:creator>
     <cc:Agent>
      <dc:title>Matplotlib v3.10.8, https://matplotlib.org/</dc:title>
     </cc:Agent>
    </dc:creator>
   </cc:Work>
  </rdf:RDF>
 </metadata>
 <defs>
  <style type="text/css">*{stroke-linejoin: round; stroke-linecap: butt}</style>
 </defs>
 <g id="figure_1">
  <g id="patch_1">
   <path d="M 0 360 
L 720 360 
L 720 0 
L 0 0 
z
" style="fill: #ffffff"/>
  </g>
  <g id="axes_1">
   <g id="matplotlib.axis_1">
    <g id="xtick_1">
     <g id="line2d_1">
      <path d="M 144.439318 316.211563 
L 144.439318 133.286438 
" clip-path="url(#pbd777b0f72)" style="fill: none; stroke: #e8e8e8; stroke-width: 0.5; stroke-linecap: square"/>
     </g>
     <g id="text_1">
      <!-- No -->
      <g style="fill: #4d4d4d" transform="translate(137.639318 326.01) scale(0.1 -0.1)">
       <defs>
        <path id="DejaVuSans-4e" d="M 628 4666 
L 1478 4666 
L 3547 763 
L 3547 4666 
L 4159 4666 
L 4159 0 
L 3309 0 
L 1241 3903 
L 1241 0 
L 628 0 
L 628 4666 
z
" transform="scale(0.015625)"/>
        <path id="DejaVuSans-6f" d="M 1959 3097 
Q 1497 3097 1228 2736 
Q 959 2375 959 1747 
Q 959 1119 1226 758 
Q 1494 397 1959 397 
Q 2419 397 2687 759 
Q 2956 1122 2956 1747 
Q 2956 2369 2687 2733 
Q 2419 3097 1959 3097 
z
M 1959 3584 
Q 2709 3584 3137 3096 
Q 3566 2609 3566 1747 
Q 3566 888 3137 398 
Q 2709 -91 1959 -91 
Q 1206 -91 779 398 
Q 353 888 353 1747 
Q 353 2609 779 3096 
Q 1206 3584 1959 3584 
z
" transform="scale(0.015625)"/>
       </defs>
       <use xlink:href="#DejaVuSans-4e"/>
       <use xlink:href="#DejaVuSans-6f" transform="translate(74.804688 0)"/>
      </g>
     </g>
    </g>
    <g id="xtick_2">
     <g id="line2d_2">
      <path d="M 292.113182 316.211563 
L 292.113182 133.286438 
" clip-path="url(#pbd777b0f72)" style="fill: none; stroke: #e8e8e8; stroke-width: 0.5; stroke-linecap: square"/>
     </g>
     <g id="text_2">
      <!-- Yes -->
      <g style="fill: #4d4d4d" transform="translate(284.040526 326.01) scale(0.1 -0.1)">
       <defs>
        <path id="DejaVuSans-59" d="M -13 4666 
L 666 4666 
L 1959 2747 
L 3244 4666 
L 3922 4666 
L 2272 2222 
L 2272 0 
L 1638 0 
L 1638 2222 
L -13 4666 
z
" transform="scale(0.015625)"/>
        <path id="DejaVuSans-65" d="M 3597 1894 
L 3597 1613 
L 953 1613 
Q 991 1019 1311 708 
Q 1631 397 2203 397 
Q 2534 397 2845 478 
Q 3156 559 3463 722 
L 3463 178 
Q 3153 47 2828 -22 
Q 2503 -91 2169 -91 
Q 1331 -91 842 396 
Q 353 884 353 1716 
Q 353 2575 817 3079 
Q 1281 3584 2069 3584 
Q 2775 3584 3186 3129 
Q 3597 2675 3597 1894 
z
M 3022 2063 
Q 3016 2534 2758 2815 
Q 2500 3097 2075 3097 
Q 1594 3097 1305 2825 
Q 1016 2553 972 2059 
L 3022 2063 
z
" transform="scale(0.015625)"/>
        <path id="DejaVuSans-73" d="M 2834 3397 
L 2834 2853 
Q 2591 2978 2328 3040 
Q 2066 3103 1784 3103 
Q 1356 3103 1142 2972 
Q 928 2841 928 2578 
Q 928 2378 1081 2264 
Q 1234 2150 1697 2047 
L 1894 2003 
Q 2506 1872 2764 1633 
Q 3022 1394 3022 966 
Q 3022 478 2636 193 
Q 2250 -91 1575 -91 
Q 1294 -91 989 -36 
Q 684 19 347 128 
L 347 722 
Q 666 556 975 473 
Q 1284 391 1588 391 
Q 1994 391 2212 530 
Q 2431 669 2431 922 
Q 2431 1156 2273 1281 
Q 2116 1406 1581 1522 
L 1381 1569 
Q 847 1681 609 1914 
Q 372 2147 372 2553 
Q 372 3047 722 3315 
Q 1072 3584 1716 3584 
Q 2034 3584 2315 3537 
Q 2597 3491 2834 3397 
z
" transform="scale(0.015625)"/>
       </defs>
       <use xlink:href="#DejaVuSans-59"/>
       <use xlink:href="#DejaVuSans-65" transform="translate(47.833984 0)"/>
       <use xlink:href="#DejaVuSans-73" transform="translate(109.357422 0)"/>
      </g>
     </g>
    </g>
   </g>
   <g id="matplotlib.axis_2">
    <g id="ytick_1">
     <g id="line2d_3">
      <path d="M 55.835 307.896784 
L 380.7175 307.896784 
" clip-path="url(#pbd777b0f72)" style="fill: none; stroke: #e8e8e8; stroke-width: 0.5; stroke-linecap: square"/>
     </g>
     <g id="text_3">
      <!-- 0% -->
      <g style="fill: #4d4d4d" transform="translate(37.770938 311.696003) scale(0.1 -0.1)">
       <defs>
        <path id="DejaVuSans-30" d="M 2034 4250 
Q 1547 4250 1301 3770 
Q 1056 3291 1056 2328 
Q 1056 1369 1301 889 
Q 1547 409 2034 409 
Q 2525 409 2770 889 
Q 3016 1369 3016 2328 
Q 3016 3291 2770 3770 
Q 2525 4250 2034 4250 
z
M 2034 4750 
Q 2819 4750 3233 4129 
Q 3647 3509 3647 2328 
Q 3647 1150 3233 529 
Q 2819 -91 2034 -91 
Q 1250 -91 836 529 
Q 422 1150 422 2328 
Q 422 3509 836 4129 
Q 1250 4750 2034 4750 
z
" transform="scale(0.015625)"/>
        <path id="DejaVuSans-25" d="M 4653 2053 
Q 4381 2053 4226 1822 
Q 4072 1591 4072 1178 
Q 4072 772 4226 539 
Q 4381 306 4653 306 
Q 4919 306 5073 539 
Q 5228 772 5228 1178 
Q 5228 1588 5073 1820 
Q 4919 2053 4653 2053 
z
M 4653 2450 
Q 5147 2450 5437 2106 
Q 5728 1763 5728 1178 
Q 5728 594 5436 251 
Q 5144 -91 4653 -91 
Q 4153 -91 3862 251 
Q 3572 594 3572 1178 
Q 3572 1766 3864 2108 
Q 4156 2450 4653 2450 
z
M 1428 4353 
Q 1159 4353 1004 4120 
Q 850 3888 850 3481 
Q 850 3069 1003 2837 
Q 1156 2606 1428 2606 
Q 1700 2606 1854 2837 
Q 2009 3069 2009 3481 
Q 2009 3884 1853 4118 
Q 1697 4353 1428 4353 
z
M 4250 4750 
L 4750 4750 
L 1831 -91 
L 1331 -91 
L 4250 4750 
z
M 1428 4750 
Q 1922 4750 2215 4408 
Q 2509 4066 2509 3481 
Q 2509 2891 2217 2550 
Q 1925 2209 1428 2209 
Q 931 2209 642 2551 
Q 353 2894 353 3481 
Q 353 4063 643 4406 
Q 934 4750 1428 4750 
z
" transform="scale(0.015625)"/>
       </defs>
       <use xlink:href="#DejaVuSans-30"/>
       <use xlink:href="#DejaVuSans-25" transform="translate(63.623047 0)"/>
      </g>
     </g>
    </g>
    <g id="ytick_2">
     <g id="line2d_4">
      <path d="M 55.835 266.322892 
L 380.7175 266.322892 
" clip-path="url(#pbd777b0f72)" style="fill: none; stroke: #e8e8e8; stroke-width: 0.5; stroke-linecap: square"/>
     </g>
     <g id="text_4">
      <!-- 25% -->
      <g style="fill: #4d4d4d" transform="translate(31.408438 270.122111) scale(0.1 -0.1)">
       <defs>
        <path id="DejaVuSans-32" d="M 1228 531 
L 3431 531 
L 3431 0 
L 469 0 
L 469 531 
Q 828 903 1448 1529 
Q 2069 2156 2228 2338 
Q 2531 2678 2651 2914 
Q 2772 3150 2772 3378 
Q 2772 3750 2511 3984 
Q 2250 4219 1831 4219 
Q 1534 4219 1204 4116 
Q 875 4013 500 3803 
L 500 4441 
Q 881 4594 1212 4672 
Q 1544 4750 1819 4750 
Q 2544 4750 2975 4387 
Q 3406 4025 3406 3419 
Q 3406 3131 3298 2873 
Q 3191 2616 2906 2266 
Q 2828 2175 2409 1742 
Q 1991 1309 1228 531 
z
" transform="scale(0.015625)"/>
        <path id="DejaVuSans-35" d="M 691 4666 
L 3169 4666 
L 3169 4134 
L 1269 4134 
L 1269 2991 
Q 1406 3038 1543 3061 
Q 1681 3084 1819 3084 
Q 2600 3084 3056 2656 
Q 3513 2228 3513 1497 
Q 3513 744 3044 326 
Q 2575 -91 1722 -91 
Q 1428 -91 1123 -41 
Q 819 9 494 109 
L 494 744 
Q 775 591 1075 516 
Q 1375 441 1709 441 
Q 2250 441 2565 725 
Q 2881 1009 2881 1497 
Q 2881 1984 2565 2268 
Q 2250 2553 1709 2553 
Q 1456 2553 1204 2497 
Q 953 2441 691 2322 
L 691 4666 
z
" transform="scale(0.015625)"/>
       </defs>
       <use xlink:href="#DejaVuSans-32"/>
       <use xlink:href="#DejaVuSans-35" transform="translate(63.623047 0)"/>
       <use xlink:href="#DejaVuSans-25" transform="translate(127.246094 0)"/>
      </g>
     </g>
    </g>
    <g id="ytick_3">
     <g id="line2d_5">
      <path d="M 55.835 224.749 
L 380.7175 224.749 
" clip-path="url(#pbd777b0f72)" style="fill: none; stroke: #e8e8e8; stroke-width: 0.5; stroke-linecap: square"/>
     </g>
     <g id="text_5">
      <!-- 50% -->
      <g style="fill: #4d4d4d" transform="translate(31.408438 228.548219) scale(0.1 -0.1)">
       <use xlink:href="#DejaVuSans-35"/>
       <use xlink:href="#DejaVuSans-30" transform="translate(63.623047 0)"/>
       <use xlink:href="#DejaVuSans-25" transform="translate(127.246094 0)"/>
      </g>
     </g>
    </g>
    <g id="ytick_4">
     <g id="line2d_6">
      <path d="M 55.835 183.175108 
L 380.7175 183.175108 
" clip-path="url(#pbd777b0f72)" style="fill: none; stroke: #e8e8e8; stroke-width: 0.5; stroke-linecap: square"/>
     </g>
     <g id="text_6">
      <!-- 75% -->
      <g style="fill: #4d4d4d" transform="translate(31.408438 186.974327) scale(0.1 -0.1)">
       <defs>
        <path id="DejaVuSans-37" d="M 525 4666 
L 3525 4666 
L 3525 4397 
L 1831 0 
L 1172 0 
L 2766 4134 
L 525 4134 
L 525 4666 
z
" transform="scale(0.015625)"/>
       </defs>
       <use xlink:href="#DejaVuSans-37"/>
       <use xlink:href="#DejaVuSans-35" transform="translate(63.623047 0)"/>
       <use xlink:href="#DejaVuSans-25" transform="translate(127.246094 0)"/>
      </g>
     </g>
    </g>
    <g id="ytick_5">
     <g id="line2d_7">
      <path d="M 55.835 141.601216 
L 380.7175 141.601216 
" clip-path="url(#pbd777b0f72)" style="fill: none; stroke: #e8e8e8; stroke-width: 0.5; stroke-linecap: square"/>
     </g>
     <g id="text_7">
      <!-- 100% -->
      <g style="fill: #4d4d4d" transform="translate(25.045938 145.400435) scale(0.1 -0.1)">
       <defs>
        <path id="DejaVuSans-31" d="M 794 531 
L 1825 531 
L 1825 4091 
L 703 3866 
L 703 4441 
L 1819 4666 
L 2450 4666 
L 2450 531 
L 3481 531 
L 3481 0 
L 794 0 
L 794 531 
z
" transform="scale(0.015625)"/>
       </defs>
       <use xlink:href="#DejaVuSans-31"/>
       <use xlink:href="#DejaVuSans-30" transform="translate(63.623047 0)"/>
       <use xlink:href="#DejaVuSans-30" transform="translate(127.246094 0)"/>
       <use xlink:href="#DejaVuSans-25" transform="translate(190.869141 0)"/>
      </g>
     </g>
    </g>
    <g id="ytick_6"/>
    <g id="ytick_7"/>
    <g id="ytick_8"/>
    <g id="ytick_9"/>
   </g>
   <g id="PolyCollection_1">
    <path d="M 103.829006 307.896784 
L 103.829006 170.767218 
L 185.049631 170.767218 
L 185.049631 307.896784 
z
" clip-path="url(#pbd777b0f72)" style="fill: #5b8db8"/>
    <path d="M 103.829006 170.767218 
L 103.829006 141.601216 
L 185.049631 141.601216 
L 185.049631 170.767218 
z
" clip-path="url(#pbd777b0f72)" style="fill: #e05c6b"/>
    <path d="M 251.502869 307.896784 
L 251.502869 172.883575 
L 332.723494 172.883575 
L 332.723494 307.896784 
z
" clip-path="url(#pbd777b0f72)" style="fill: #5b8db8"/>
    <path d="M 251.502869 172.883575 
L 251.502869 141.601216 
L 332.723494 141.601216 
L 332.723494 172.883575 
z
" clip-path="url(#pbd777b0f72)" style="fill: #e05c6b"/>
   </g>
   <g id="LineCollection_1">
    <path d="M 55.835 277.630991 
L 380.7175 277.630991 
" clip-path="url(#pbd777b0f72)" style="fill: none; stroke-dasharray: 3.934848,1.701556; stroke-dashoffset: 0; stroke: #555555; stroke-width: 1.063472"/>
   </g>
  </g>
  <g id="axes_2">
   <g id="matplotlib.axis_3">
    <g id="xtick_3">
     <g id="line2d_8">
      <path d="M 476.521818 316.211563 
L 476.521818 133.286438 
" clip-path="url(#pbe4c04ce26)" style="fill: none; stroke: #e8e8e8; stroke-width: 0.5; stroke-linecap: square"/>
     </g>
     <g id="text_8">
      <!-- No -->
      <g style="fill: #4d4d4d" transform="translate(469.721818 326.01) scale(0.1 -0.1)">
       <use xlink:href="#DejaVuSans-4e"/>
       <use xlink:href="#DejaVuSans-6f" transform="translate(74.804688 0)"/>
      </g>
     </g>
    </g>
    <g id="xtick_4">
     <g id="line2d_9">
      <path d="M 624.195682 316.211563 
L 624.195682 133.286438 
" clip-path="url(#pbe4c04ce26)" style="fill: none; stroke: #e8e8e8; stroke-width: 0.5; stroke-linecap: square"/>
     </g>
     <g id="text_9">
      <!-- Yes -->
      <g style="fill: #4d4d4d" transform="translate(616.123026 326.01) scale(0.1 -0.1)">
       <use xlink:href="#DejaVuSans-59"/>
       <use xlink:href="#DejaVuSans-65" transform="translate(47.833984 0)"/>
       <use xlink:href="#DejaVuSans-73" transform="translate(109.357422 0)"/>
      </g>
     </g>
    </g>
   </g>
   <g id="matplotlib.axis_4">
    <g id="ytick_10">
     <g id="line2d_10">
      <path d="M 387.9175 307.896784 
L 712.8 307.896784 
" clip-path="url(#pbe4c04ce26)" style="fill: none; stroke: #e8e8e8; stroke-width: 0.5; stroke-linecap: square"/>
     </g>
    </g>
    <g id="ytick_11">
     <g id="line2d_11">
      <path d="M 387.9175 266.322892 
L 712.8 266.322892 
" clip-path="url(#pbe4c04ce26)" style="fill: none; stroke: #e8e8e8; stroke-width: 0.5; stroke-linecap: square"/>
     </g>
    </g>
    <g id="ytick_12">
     <g id="line2d_12">
      <path d="M 387.9175 224.749 
L 712.8 224.749 
" clip-path="url(#pbe4c04ce26)" style="fill: none; stroke: #e8e8e8; stroke-width: 0.5; stroke-linecap: square"/>
     </g>
    </g>
    <g id="ytick_13">
     <g id="line2d_13">
      <path d="M 387.9175 183.175108 
L 712.8 183.175108 
" clip-path="url(#pbe4c04ce26)" style="fill: none; stroke: #e8e8e8; stroke-width: 0.5; stroke-linecap: square"/>
     </g>
    </g>
    <g id="ytick_14">
     <g id="line2d_14">
      <path d="M 387.9175 141.601216 
L 712.8 141.601216 
" clip-path="url(#pbe4c04ce26)" style="fill: none; stroke: #e8e8e8; stroke-width: 0.5; stroke-linecap: square"/>
     </g>
    </g>
    <g id="ytick_15"/>
    <g id="ytick_16"/>
    <g id="ytick_17"/>
    <g id="ytick_18"/>
   </g>
   <g id="PolyCollection_2">
    <path d="M 435.911506 307.896784 
L 435.911506 149.684801 
L 517.132131 149.684801 
L 517.132131 307.896784 
z
" clip-path="url(#pbe4c04ce26)" style="fill: #5b8db8"/>
    <path d="M 435.911506 149.684801 
L 435.911506 141.601216 
L 517.132131 141.601216 
L 517.132131 149.684801 
z
" clip-path="url(#pbe4c04ce26)" style="fill: #e05c6b"/>
    <path d="M 583.585369 307.896784 
L 583.585369 194.455198 
L 664.805994 194.455198 
L 664.805994 307.896784 
z
" clip-path="url(#pbe4c04ce26)" style="fill: #5b8db8"/>
    <path d="M 583.585369 194.455198 
L 583.585369 141.601216 
L 664.805994 141.601216 
L 664.805994 194.455198 
z
" clip-path="url(#pbe4c04ce26)" style="fill: #e05c6b"/>
   </g>
   <g id="LineCollection_2">
    <path d="M 387.9175 277.630991 
L 712.8 277.630991 
" clip-path="url(#pbe4c04ce26)" style="fill: none; stroke-dasharray: 3.934848,1.701556; stroke-dashoffset: 0; stroke: #555555; stroke-width: 1.063472"/>
   </g>
  </g>
  <g id="text_10">
   <!-- Depression Rate by Key Risk Factors -->
   <g transform="translate(55.835 17.837812) scale(0.14 -0.14)">
    <defs>
     <path id="DejaVuSans-Bold-44" d="M 1791 3756 
L 1791 909 
L 2222 909 
Q 2959 909 3348 1275 
Q 3738 1641 3738 2338 
Q 3738 3031 3350 3393 
Q 2963 3756 2222 3756 
L 1791 3756 
z
M 588 4666 
L 1856 4666 
Q 2919 4666 3439 4514 
Q 3959 4363 4331 4000 
Q 4659 3684 4818 3271 
Q 4978 2859 4978 2338 
Q 4978 1809 4818 1395 
Q 4659 981 4331 666 
Q 3956 303 3431 151 
Q 2906 0 1856 0 
L 588 0 
L 588 4666 
z
" transform="scale(0.015625)"/>
     <path id="DejaVuSans-Bold-65" d="M 4031 1759 
L 4031 1441 
L 1416 1441 
Q 1456 1047 1700 850 
Q 1944 653 2381 653 
Q 2734 653 3104 758 
Q 3475 863 3866 1075 
L 3866 213 
Q 3469 63 3072 -14 
Q 2675 -91 2278 -91 
Q 1328 -91 801 392 
Q 275 875 275 1747 
Q 275 2603 792 3093 
Q 1309 3584 2216 3584 
Q 3041 3584 3536 3087 
Q 4031 2591 4031 1759 
z
M 2881 2131 
Q 2881 2450 2695 2645 
Q 2509 2841 2209 2841 
Q 1884 2841 1681 2658 
Q 1478 2475 1428 2131 
L 2881 2131 
z
" transform="scale(0.015625)"/>
     <path id="DejaVuSans-Bold-70" d="M 1656 506 
L 1656 -1331 
L 538 -1331 
L 538 3500 
L 1656 3500 
L 1656 2988 
Q 1888 3294 2169 3439 
Q 2450 3584 2816 3584 
Q 3463 3584 3878 3070 
Q 4294 2556 4294 1747 
Q 4294 938 3878 423 
Q 3463 -91 2816 -91 
Q 2450 -91 2169 54 
Q 1888 200 1656 506 
z
M 2400 2772 
Q 2041 2772 1848 2508 
Q 1656 2244 1656 1747 
Q 1656 1250 1848 986 
Q 2041 722 2400 722 
Q 2759 722 2948 984 
Q 3138 1247 3138 1747 
Q 3138 2247 2948 2509 
Q 2759 2772 2400 2772 
z
" transform="scale(0.015625)"/>
     <path id="DejaVuSans-Bold-72" d="M 3138 2547 
Q 2991 2616 2845 2648 
Q 2700 2681 2553 2681 
Q 2122 2681 1889 2404 
Q 1656 2128 1656 1613 
L 1656 0 
L 538 0 
L 538 3500 
L 1656 3500 
L 1656 2925 
Q 1872 3269 2151 3426 
Q 2431 3584 2822 3584 
Q 2878 3584 2943 3579 
Q 3009 3575 3134 3559 
L 3138 2547 
z
" transform="scale(0.015625)"/>
     <path id="DejaVuSans-Bold-73" d="M 3272 3391 
L 3272 2541 
Q 2913 2691 2578 2766 
Q 2244 2841 1947 2841 
Q 1628 2841 1473 2761 
Q 1319 2681 1319 2516 
Q 1319 2381 1436 2309 
Q 1553 2238 1856 2203 
L 2053 2175 
Q 2913 2066 3209 1816 
Q 3506 1566 3506 1031 
Q 3506 472 3093 190 
Q 2681 -91 1863 -91 
Q 1516 -91 1145 -36 
Q 775 19 384 128 
L 384 978 
Q 719 816 1070 734 
Q 1422 653 1784 653 
Q 2113 653 2278 743 
Q 2444 834 2444 1013 
Q 2444 1163 2330 1236 
Q 2216 1309 1875 1350 
L 1678 1375 
Q 931 1469 631 1722 
Q 331 1975 331 2491 
Q 331 3047 712 3315 
Q 1094 3584 1881 3584 
Q 2191 3584 2531 3537 
Q 2872 3491 3272 3391 
z
" transform="scale(0.015625)"/>
     <path id="DejaVuSans-Bold-69" d="M 538 3500 
L 1656 3500 
L 1656 0 
L 538 0 
L 538 3500 
z
M 538 4863 
L 1656 4863 
L 1656 3950 
L 538 3950 
L 538 4863 
z
" transform="scale(0.015625)"/>
     <path id="DejaVuSans-Bold-6f" d="M 2203 2784 
Q 1831 2784 1636 2517 
Q 1441 2250 1441 1747 
Q 1441 1244 1636 976 
Q 1831 709 2203 709 
Q 2569 709 2762 976 
Q 2956 1244 2956 1747 
Q 2956 2250 2762 2517 
Q 2569 2784 2203 2784 
z
M 2203 3584 
Q 3106 3584 3614 3096 
Q 4122 2609 4122 1747 
Q 4122 884 3614 396 
Q 3106 -91 2203 -91 
Q 1297 -91 786 396 
Q 275 884 275 1747 
Q 275 2609 786 3096 
Q 1297 3584 2203 3584 
z
" transform="scale(0.015625)"/>
     <path id="DejaVuSans-Bold-6e" d="M 4056 2131 
L 4056 0 
L 2931 0 
L 2931 347 
L 2931 1631 
Q 2931 2084 2911 2256 
Q 2891 2428 2841 2509 
Q 2775 2619 2662 2680 
Q 2550 2741 2406 2741 
Q 2056 2741 1856 2470 
Q 1656 2200 1656 1722 
L 1656 0 
L 538 0 
L 538 3500 
L 1656 3500 
L 1656 2988 
Q 1909 3294 2193 3439 
Q 2478 3584 2822 3584 
Q 3428 3584 3742 3212 
Q 4056 2841 4056 2131 
z
" transform="scale(0.015625)"/>
     <path id="DejaVuSans-Bold-20" transform="scale(0.015625)"/>
     <path id="DejaVuSans-Bold-52" d="M 2297 2597 
Q 2675 2597 2839 2737 
Q 3003 2878 3003 3200 
Q 3003 3519 2839 3656 
Q 2675 3794 2297 3794 
L 1791 3794 
L 1791 2597 
L 2297 2597 
z
M 1791 1766 
L 1791 0 
L 588 0 
L 588 4666 
L 2425 4666 
Q 3347 4666 3776 4356 
Q 4206 4047 4206 3378 
Q 4206 2916 3982 2619 
Q 3759 2322 3309 2181 
Q 3556 2125 3751 1926 
Q 3947 1728 4147 1325 
L 4800 0 
L 3519 0 
L 2950 1159 
Q 2778 1509 2601 1637 
Q 2425 1766 2131 1766 
L 1791 1766 
z
" transform="scale(0.015625)"/>
     <path id="DejaVuSans-Bold-61" d="M 2106 1575 
Q 1756 1575 1579 1456 
Q 1403 1338 1403 1106 
Q 1403 894 1545 773 
Q 1688 653 1941 653 
Q 2256 653 2472 879 
Q 2688 1106 2688 1447 
L 2688 1575 
L 2106 1575 
z
M 3816 1997 
L 3816 0 
L 2688 0 
L 2688 519 
Q 2463 200 2181 54 
Q 1900 -91 1497 -91 
Q 953 -91 614 226 
Q 275 544 275 1050 
Q 275 1666 698 1953 
Q 1122 2241 2028 2241 
L 2688 2241 
L 2688 2328 
Q 2688 2594 2478 2717 
Q 2269 2841 1825 2841 
Q 1466 2841 1156 2769 
Q 847 2697 581 2553 
L 581 3406 
Q 941 3494 1303 3539 
Q 1666 3584 2028 3584 
Q 2975 3584 3395 3211 
Q 3816 2838 3816 1997 
z
" transform="scale(0.015625)"/>
     <path id="DejaVuSans-Bold-74" d="M 1759 4494 
L 1759 3500 
L 2913 3500 
L 2913 2700 
L 1759 2700 
L 1759 1216 
Q 1759 972 1856 886 
Q 1953 800 2241 800 
L 2816 800 
L 2816 0 
L 1856 0 
Q 1194 0 917 276 
Q 641 553 641 1216 
L 641 2700 
L 84 2700 
L 84 3500 
L 641 3500 
L 641 4494 
L 1759 4494 
z
" transform="scale(0.015625)"/>
     <path id="DejaVuSans-Bold-62" d="M 2400 722 
Q 2759 722 2948 984 
Q 3138 1247 3138 1747 
Q 3138 2247 2948 2509 
Q 2759 2772 2400 2772 
Q 2041 2772 1848 2508 
Q 1656 2244 1656 1747 
Q 1656 1250 1848 986 
Q 2041 722 2400 722 
z
M 1656 2988 
Q 1888 3294 2169 3439 
Q 2450 3584 2816 3584 
Q 3463 3584 3878 3070 
Q 4294 2556 4294 1747 
Q 4294 938 3878 423 
Q 3463 -91 2816 -91 
Q 2450 -91 2169 54 
Q 1888 200 1656 506 
L 1656 0 
L 538 0 
L 538 4863 
L 1656 4863 
L 1656 2988 
z
" transform="scale(0.015625)"/>
     <path id="DejaVuSans-Bold-79" d="M 78 3500 
L 1197 3500 
L 2138 1125 
L 2938 3500 
L 4056 3500 
L 2584 -331 
Q 2363 -916 2067 -1148 
Q 1772 -1381 1288 -1381 
L 641 -1381 
L 641 -647 
L 991 -647 
Q 1275 -647 1404 -556 
Q 1534 -466 1606 -231 
L 1638 -134 
L 78 3500 
z
" transform="scale(0.015625)"/>
     <path id="DejaVuSans-Bold-4b" d="M 588 4666 
L 1791 4666 
L 1791 2963 
L 3525 4666 
L 4922 4666 
L 2675 2456 
L 5153 0 
L 3647 0 
L 1791 1838 
L 1791 0 
L 588 0 
L 588 4666 
z
" transform="scale(0.015625)"/>
     <path id="DejaVuSans-Bold-6b" d="M 538 4863 
L 1656 4863 
L 1656 2216 
L 2944 3500 
L 4244 3500 
L 2534 1894 
L 4378 0 
L 3022 0 
L 1656 1459 
L 1656 0 
L 538 0 
L 538 4863 
z
" transform="scale(0.015625)"/>
     <path id="DejaVuSans-Bold-46" d="M 588 4666 
L 3834 4666 
L 3834 3756 
L 1791 3756 
L 1791 2888 
L 3713 2888 
L 3713 1978 
L 1791 1978 
L 1791 0 
L 588 0 
L 588 4666 
z
" transform="scale(0.015625)"/>
     <path id="DejaVuSans-Bold-63" d="M 3366 3391 
L 3366 2478 
Q 3138 2634 2908 2709 
Q 2678 2784 2431 2784 
Q 1963 2784 1702 2511 
Q 1441 2238 1441 1747 
Q 1441 1256 1702 982 
Q 1963 709 2431 709 
Q 2694 709 2930 787 
Q 3166 866 3366 1019 
L 3366 103 
Q 3103 6 2833 -42 
Q 2563 -91 2291 -91 
Q 1344 -91 809 395 
Q 275 881 275 1747 
Q 275 2613 809 3098 
Q 1344 3584 2291 3584 
Q 2566 3584 2833 3536 
Q 3100 3488 3366 3391 
z
" transform="scale(0.015625)"/>
    </defs>
    <use xlink:href="#DejaVuSans-Bold-44"/>
    <use xlink:href="#DejaVuSans-Bold-65" transform="translate(83.007812 0)"/>
    <use xlink:href="#DejaVuSans-Bold-70" transform="translate(150.830078 0)"/>
    <use xlink:href="#DejaVuSans-Bold-72" transform="translate(222.412109 0)"/>
    <use xlink:href="#DejaVuSans-Bold-65" transform="translate(271.728516 0)"/>
    <use xlink:href="#DejaVuSans-Bold-73" transform="translate(339.550781 0)"/>
    <use xlink:href="#DejaVuSans-Bold-73" transform="translate(399.072266 0)"/>
    <use xlink:href="#DejaVuSans-Bold-69" transform="translate(458.59375 0)"/>
    <use xlink:href="#DejaVuSans-Bold-6f" transform="translate(492.871094 0)"/>
    <use xlink:href="#DejaVuSans-Bold-6e" transform="translate(561.572266 0)"/>
    <use xlink:href="#DejaVuSans-Bold-20" transform="translate(632.763672 0)"/>
    <use xlink:href="#DejaVuSans-Bold-52" transform="translate(667.578125 0)"/>
    <use xlink:href="#DejaVuSans-Bold-61" transform="translate(744.580078 0)"/>
    <use xlink:href="#DejaVuSans-Bold-74" transform="translate(812.060547 0)"/>
    <use xlink:href="#DejaVuSans-Bold-65" transform="translate(859.863281 0)"/>
    <use xlink:href="#DejaVuSans-Bold-20" transform="translate(927.685547 0)"/>
    <use xlink:href="#DejaVuSans-Bold-62" transform="translate(962.5 0)"/>
    <use xlink:href="#DejaVuSans-Bold-79" transform="translate(1034.082031 0)"/>
    <use xlink:href="#DejaVuSans-Bold-20" transform="translate(1099.267578 0)"/>
    <use xlink:href="#DejaVuSans-Bold-4b" transform="translate(1134.082031 0)"/>
    <use xlink:href="#DejaVuSans-Bold-65" transform="translate(1209.822266 0)"/>
    <use xlink:href="#DejaVuSans-Bold-79" transform="translate(1277.644531 0)"/>
    <use xlink:href="#DejaVuSans-Bold-20" transform="translate(1342.830078 0)"/>
    <use xlink:href="#DejaVuSans-Bold-52" transform="translate(1377.644531 0)"/>
    <use xlink:href="#DejaVuSans-Bold-69" transform="translate(1454.646484 0)"/>
    <use xlink:href="#DejaVuSans-Bold-73" transform="translate(1488.923828 0)"/>
    <use xlink:href="#DejaVuSans-Bold-6b" transform="translate(1548.445312 0)"/>
    <use xlink:href="#DejaVuSans-Bold-20" transform="translate(1614.949219 0)"/>
    <use xlink:href="#DejaVuSans-Bold-46" transform="translate(1649.763672 0)"/>
    <use xlink:href="#DejaVuSans-Bold-61" transform="translate(1712.199219 0)"/>
    <use xlink:href="#DejaVuSans-Bold-63" transform="translate(1779.679688 0)"/>
    <use xlink:href="#DejaVuSans-Bold-74" transform="translate(1838.957031 0)"/>
    <use xlink:href="#DejaVuSans-Bold-6f" transform="translate(1886.759766 0)"/>
    <use xlink:href="#DejaVuSans-Bold-72" transform="translate(1955.460938 0)"/>
    <use xlink:href="#DejaVuSans-Bold-73" transform="translate(2004.777344 0)"/>
   </g>
  </g>
  <g id="text_11">
   <!-- Prior suicidal thoughts are the single strongest predictor; family history shows moderate elevation -->
   <g style="fill: #555555" transform="translate(55.835 49.217031) scale(0.11 -0.11)">
    <defs>
     <path id="DejaVuSans-50" d="M 1259 4147 
L 1259 2394 
L 2053 2394 
Q 2494 2394 2734 2622 
Q 2975 2850 2975 3272 
Q 2975 3691 2734 3919 
Q 2494 4147 2053 4147 
L 1259 4147 
z
M 628 4666 
L 2053 4666 
Q 2838 4666 3239 4311 
Q 3641 3956 3641 3272 
Q 3641 2581 3239 2228 
Q 2838 1875 2053 1875 
L 1259 1875 
L 1259 0 
L 628 0 
L 628 4666 
z
" transform="scale(0.015625)"/>
     <path id="DejaVuSans-72" d="M 2631 2963 
Q 2534 3019 2420 3045 
Q 2306 3072 2169 3072 
Q 1681 3072 1420 2755 
Q 1159 2438 1159 1844 
L 1159 0 
L 581 0 
L 581 3500 
L 1159 3500 
L 1159 2956 
Q 1341 3275 1631 3429 
Q 1922 3584 2338 3584 
Q 2397 3584 2469 3576 
Q 2541 3569 2628 3553 
L 2631 2963 
z
" transform="scale(0.015625)"/>
     <path id="DejaVuSans-69" d="M 603 3500 
L 1178 3500 
L 1178 0 
L 603 0 
L 603 3500 
z
M 603 4863 
L 1178 4863 
L 1178 4134 
L 603 4134 
L 603 4863 
z
" transform="scale(0.015625)"/>
     <path id="DejaVuSans-20" transform="scale(0.015625)"/>
     <path id="DejaVuSans-75" d="M 544 1381 
L 544 3500 
L 1119 3500 
L 1119 1403 
Q 1119 906 1312 657 
Q 1506 409 1894 409 
Q 2359 409 2629 706 
Q 2900 1003 2900 1516 
L 2900 3500 
L 3475 3500 
L 3475 0 
L 2900 0 
L 2900 538 
Q 2691 219 2414 64 
Q 2138 -91 1772 -91 
Q 1169 -91 856 284 
Q 544 659 544 1381 
z
M 1991 3584 
L 1991 3584 
z
" transform="scale(0.015625)"/>
     <path id="DejaVuSans-63" d="M 3122 3366 
L 3122 2828 
Q 2878 2963 2633 3030 
Q 2388 3097 2138 3097 
Q 1578 3097 1268 2742 
Q 959 2388 959 1747 
Q 959 1106 1268 751 
Q 1578 397 2138 397 
Q 2388 397 2633 464 
Q 2878 531 3122 666 
L 3122 134 
Q 2881 22 2623 -34 
Q 2366 -91 2075 -91 
Q 1284 -91 818 406 
Q 353 903 353 1747 
Q 353 2603 823 3093 
Q 1294 3584 2113 3584 
Q 2378 3584 2631 3529 
Q 2884 3475 3122 3366 
z
" transform="scale(0.015625)"/>
     <path id="DejaVuSans-64" d="M 2906 2969 
L 2906 4863 
L 3481 4863 
L 3481 0 
L 2906 0 
L 2906 525 
Q 2725 213 2448 61 
Q 2172 -91 1784 -91 
Q 1150 -91 751 415 
Q 353 922 353 1747 
Q 353 2572 751 3078 
Q 1150 3584 1784 3584 
Q 2172 3584 2448 3432 
Q 2725 3281 2906 2969 
z
M 947 1747 
Q 947 1113 1208 752 
Q 1469 391 1925 391 
Q 2381 391 2643 752 
Q 2906 1113 2906 1747 
Q 2906 2381 2643 2742 
Q 2381 3103 1925 3103 
Q 1469 3103 1208 2742 
Q 947 2381 947 1747 
z
" transform="scale(0.015625)"/>
     <path id="DejaVuSans-61" d="M 2194 1759 
Q 1497 1759 1228 1600 
Q 959 1441 959 1056 
Q 959 750 1161 570 
Q 1363 391 1709 391 
Q 2188 391 2477 730 
Q 2766 1069 2766 1631 
L 2766 1759 
L 2194 1759 
z
M 3341 1997 
L 3341 0 
L 2766 0 
L 2766 531 
Q 2569 213 2275 61 
Q 1981 -91 1556 -91 
Q 1019 -91 701 211 
Q 384 513 384 1019 
Q 384 1609 779 1909 
Q 1175 2209 1959 2209 
L 2766 2209 
L 2766 2266 
Q 2766 2663 2505 2880 
Q 2244 3097 1772 3097 
Q 1472 3097 1187 3025 
Q 903 2953 641 2809 
L 641 3341 
Q 956 3463 1253 3523 
Q 1550 3584 1831 3584 
Q 2591 3584 2966 3190 
Q 3341 2797 3341 1997 
z
" transform="scale(0.015625)"/>
     <path id="DejaVuSans-6c" d="M 603 4863 
L 1178 4863 
L 1178 0 
L 603 0 
L 603 4863 
z
" transform="scale(0.015625)"/>
     <path id="DejaVuSans-74" d="M 1172 4494 
L 1172 3500 
L 2356 3500 
L 2356 3053 
L 1172 3053 
L 1172 1153 
Q 1172 725 1289 603 
Q 1406 481 1766 481 
L 2356 481 
L 2356 0 
L 1766 0 
Q 1100 0 847 248 
Q 594 497 594 1153 
L 594 3053 
L 172 3053 
L 172 3500 
L 594 3500 
L 594 4494 
L 1172 4494 
z
" transform="scale(0.015625)"/>
     <path id="DejaVuSans-68" d="M 3513 2113 
L 3513 0 
L 2938 0 
L 2938 2094 
Q 2938 2591 2744 2837 
Q 2550 3084 2163 3084 
Q 1697 3084 1428 2787 
Q 1159 2491 1159 1978 
L 1159 0 
L 581 0 
L 581 4863 
L 1159 4863 
L 1159 2956 
Q 1366 3272 1645 3428 
Q 1925 3584 2291 3584 
Q 2894 3584 3203 3211 
Q 3513 2838 3513 2113 
z
" transform="scale(0.015625)"/>
     <path id="DejaVuSans-67" d="M 2906 1791 
Q 2906 2416 2648 2759 
Q 2391 3103 1925 3103 
Q 1463 3103 1205 2759 
Q 947 2416 947 1791 
Q 947 1169 1205 825 
Q 1463 481 1925 481 
Q 2391 481 2648 825 
Q 2906 1169 2906 1791 
z
M 3481 434 
Q 3481 -459 3084 -895 
Q 2688 -1331 1869 -1331 
Q 1566 -1331 1297 -1286 
Q 1028 -1241 775 -1147 
L 775 -588 
Q 1028 -725 1275 -790 
Q 1522 -856 1778 -856 
Q 2344 -856 2625 -561 
Q 2906 -266 2906 331 
L 2906 616 
Q 2728 306 2450 153 
Q 2172 0 1784 0 
Q 1141 0 747 490 
Q 353 981 353 1791 
Q 353 2603 747 3093 
Q 1141 3584 1784 3584 
Q 2172 3584 2450 3431 
Q 2728 3278 2906 2969 
L 2906 3500 
L 3481 3500 
L 3481 434 
z
" transform="scale(0.015625)"/>
     <path id="DejaVuSans-6e" d="M 3513 2113 
L 3513 0 
L 2938 0 
L 2938 2094 
Q 2938 2591 2744 2837 
Q 2550 3084 2163 3084 
Q 1697 3084 1428 2787 
Q 1159 2491 1159 1978 
L 1159 0 
L 581 0 
L 581 3500 
L 1159 3500 
L 1159 2956 
Q 1366 3272 1645 3428 
Q 1925 3584 2291 3584 
Q 2894 3584 3203 3211 
Q 3513 2838 3513 2113 
z
" transform="scale(0.015625)"/>
     <path id="DejaVuSans-70" d="M 1159 525 
L 1159 -1331 
L 581 -1331 
L 581 3500 
L 1159 3500 
L 1159 2969 
Q 1341 3281 1617 3432 
Q 1894 3584 2278 3584 
Q 2916 3584 3314 3078 
Q 3713 2572 3713 1747 
Q 3713 922 3314 415 
Q 2916 -91 2278 -91 
Q 1894 -91 1617 61 
Q 1341 213 1159 525 
z
M 3116 1747 
Q 3116 2381 2855 2742 
Q 2594 3103 2138 3103 
Q 1681 3103 1420 2742 
Q 1159 2381 1159 1747 
Q 1159 1113 1420 752 
Q 1681 391 2138 391 
Q 2594 391 2855 752 
Q 3116 1113 3116 1747 
z
" transform="scale(0.015625)"/>
     <path id="DejaVuSans-3b" d="M 750 3309 
L 1409 3309 
L 1409 2516 
L 750 2516 
L 750 3309 
z
M 750 794 
L 1409 794 
L 1409 256 
L 897 -744 
L 494 -744 
L 750 256 
L 750 794 
z
" transform="scale(0.015625)"/>
     <path id="DejaVuSans-66" d="M 2375 4863 
L 2375 4384 
L 1825 4384 
Q 1516 4384 1395 4259 
Q 1275 4134 1275 3809 
L 1275 3500 
L 2222 3500 
L 2222 3053 
L 1275 3053 
L 1275 0 
L 697 0 
L 697 3053 
L 147 3053 
L 147 3500 
L 697 3500 
L 697 3744 
Q 697 4328 969 4595 
Q 1241 4863 1831 4863 
L 2375 4863 
z
" transform="scale(0.015625)"/>
     <path id="DejaVuSans-6d" d="M 3328 2828 
Q 3544 3216 3844 3400 
Q 4144 3584 4550 3584 
Q 5097 3584 5394 3201 
Q 5691 2819 5691 2113 
L 5691 0 
L 5113 0 
L 5113 2094 
Q 5113 2597 4934 2840 
Q 4756 3084 4391 3084 
Q 3944 3084 3684 2787 
Q 3425 2491 3425 1978 
L 3425 0 
L 2847 0 
L 2847 2094 
Q 2847 2600 2669 2842 
Q 2491 3084 2119 3084 
Q 1678 3084 1418 2786 
Q 1159 2488 1159 1978 
L 1159 0 
L 581 0 
L 581 3500 
L 1159 3500 
L 1159 2956 
Q 1356 3278 1631 3431 
Q 1906 3584 2284 3584 
Q 2666 3584 2933 3390 
Q 3200 3197 3328 2828 
z
" transform="scale(0.015625)"/>
     <path id="DejaVuSans-79" d="M 2059 -325 
Q 1816 -950 1584 -1140 
Q 1353 -1331 966 -1331 
L 506 -1331 
L 506 -850 
L 844 -850 
Q 1081 -850 1212 -737 
Q 1344 -625 1503 -206 
L 1606 56 
L 191 3500 
L 800 3500 
L 1894 763 
L 2988 3500 
L 3597 3500 
L 2059 -325 
z
" transform="scale(0.015625)"/>
     <path id="DejaVuSans-77" d="M 269 3500 
L 844 3500 
L 1563 769 
L 2278 3500 
L 2956 3500 
L 3675 769 
L 4391 3500 
L 4966 3500 
L 4050 0 
L 3372 0 
L 2619 2869 
L 1863 0 
L 1184 0 
L 269 3500 
z
" transform="scale(0.015625)"/>
     <path id="DejaVuSans-76" d="M 191 3500 
L 800 3500 
L 1894 563 
L 2988 3500 
L 3597 3500 
L 2284 0 
L 1503 0 
L 191 3500 
z
" transform="scale(0.015625)"/>
    </defs>
    <use xlink:href="#DejaVuSans-50"/>
    <use xlink:href="#DejaVuSans-72" transform="translate(58.552734 0)"/>
    <use xlink:href="#DejaVuSans-69" transform="translate(99.666016 0)"/>
    <use xlink:href="#DejaVuSans-6f" transform="translate(127.449219 0)"/>
    <use xlink:href="#DejaVuSans-72" transform="translate(188.630859 0)"/>
    <use xlink:href="#DejaVuSans-20" transform="translate(229.744141 0)"/>
    <use xlink:href="#DejaVuSans-73" transform="translate(261.53125 0)"/>
    <use xlink:href="#DejaVuSans-75" transform="translate(313.630859 0)"/>
    <use xlink:href="#DejaVuSans-69" transform="translate(377.009766 0)"/>
    <use xlink:href="#DejaVuSans-63" transform="translate(404.792969 0)"/>
    <use xlink:href="#DejaVuSans-69" transform="translate(459.773438 0)"/>
    <use xlink:href="#DejaVuSans-64" transform="translate(487.556641 0)"/>
    <use xlink:href="#DejaVuSans-61" transform="translate(551.033203 0)"/>
    <use xlink:href="#DejaVuSans-6c" transform="translate(612.3125 0)"/>
    <use xlink:href="#DejaVuSans-20" transform="translate(640.095703 0)"/>
    <use xlink:href="#DejaVuSans-74" transform="translate(671.882812 0)"/>
    <use xlink:href="#DejaVuSans-68" transform="translate(711.091797 0)"/>
    <use xlink:href="#DejaVuSans-6f" transform="translate(774.470703 0)"/>
    <use xlink:href="#DejaVuSans-75" transform="translate(835.652344 0)"/>
    <use xlink:href="#DejaVuSans-67" transform="translate(899.03125 0)"/>
    <use xlink:href="#DejaVuSans-68" transform="translate(962.507812 0)"/>
    <use xlink:href="#DejaVuSans-74" transform="translate(1025.886719 0)"/>
    <use xlink:href="#DejaVuSans-73" transform="translate(1065.095703 0)"/>
    <use xlink:href="#DejaVuSans-20" transform="translate(1117.195312 0)"/>
    <use xlink:href="#DejaVuSans-61" transform="translate(1148.982422 0)"/>
    <use xlink:href="#DejaVuSans-72" transform="translate(1210.261719 0)"/>
    <use xlink:href="#DejaVuSans-65" transform="translate(1249.125 0)"/>
    <use xlink:href="#DejaVuSans-20" transform="translate(1310.648438 0)"/>
    <use xlink:href="#DejaVuSans-74" transform="translate(1342.435547 0)"/>
    <use xlink:href="#DejaVuSans-68" transform="translate(1381.644531 0)"/>
    <use xlink:href="#DejaVuSans-65" transform="translate(1445.023438 0)"/>
    <use xlink:href="#DejaVuSans-20" transform="translate(1506.546875 0)"/>
    <use xlink:href="#DejaVuSans-73" transform="translate(1538.333984 0)"/>
    <use xlink:href="#DejaVuSans-69" transform="translate(1590.433594 0)"/>
    <use xlink:href="#DejaVuSans-6e" transform="translate(1618.216797 0)"/>
    <use xlink:href="#DejaVuSans-67" transform="translate(1681.595703 0)"/>
    <use xlink:href="#DejaVuSans-6c" transform="translate(1745.072266 0)"/>
    <use xlink:href="#DejaVuSans-65" transform="translate(1772.855469 0)"/>
    <use xlink:href="#DejaVuSans-20" transform="translate(1834.378906 0)"/>
    <use xlink:href="#DejaVuSans-73" transform="translate(1866.166016 0)"/>
    <use xlink:href="#DejaVuSans-74" transform="translate(1918.265625 0)"/>
    <use xlink:href="#DejaVuSans-72" transform="translate(1957.474609 0)"/>
    <use xlink:href="#DejaVuSans-6f" transform="translate(1996.337891 0)"/>
    <use xlink:href="#DejaVuSans-6e" transform="translate(2057.519531 0)"/>
    <use xlink:href="#DejaVuSans-67" transform="translate(2120.898438 0)"/>
    <use xlink:href="#DejaVuSans-65" transform="translate(2184.375 0)"/>
    <use xlink:href="#DejaVuSans-73" transform="translate(2245.898438 0)"/>
    <use xlink:href="#DejaVuSans-74" transform="translate(2297.998047 0)"/>
    <use xlink:href="#DejaVuSans-20" transform="translate(2337.207031 0)"/>
    <use xlink:href="#DejaVuSans-70" transform="translate(2368.994141 0)"/>
    <use xlink:href="#DejaVuSans-72" transform="translate(2432.470703 0)"/>
    <use xlink:href="#DejaVuSans-65" transform="translate(2471.333984 0)"/>
    <use xlink:href="#DejaVuSans-64" transform="translate(2532.857422 0)"/>
    <use xlink:href="#DejaVuSans-69" transform="translate(2596.333984 0)"/>
    <use xlink:href="#DejaVuSans-63" transform="translate(2624.117188 0)"/>
    <use xlink:href="#DejaVuSans-74" transform="translate(2679.097656 0)"/>
    <use xlink:href="#DejaVuSans-6f" transform="translate(2718.306641 0)"/>
    <use xlink:href="#DejaVuSans-72" transform="translate(2779.488281 0)"/>
    <use xlink:href="#DejaVuSans-3b" transform="translate(2820.601562 0)"/>
    <use xlink:href="#DejaVuSans-20" transform="translate(2854.292969 0)"/>
    <use xlink:href="#DejaVuSans-66" transform="translate(2886.080078 0)"/>
    <use xlink:href="#DejaVuSans-61" transform="translate(2921.285156 0)"/>
    <use xlink:href="#DejaVuSans-6d" transform="translate(2982.564453 0)"/>
    <use xlink:href="#DejaVuSans-69" transform="translate(3079.976562 0)"/>
    <use xlink:href="#DejaVuSans-6c" transform="translate(3107.759766 0)"/>
    <use xlink:href="#DejaVuSans-79" transform="translate(3135.542969 0)"/>
    <use xlink:href="#DejaVuSans-20" transform="translate(3194.722656 0)"/>
    <use xlink:href="#DejaVuSans-68" transform="translate(3226.509766 0)"/>
    <use xlink:href="#DejaVuSans-69" transform="translate(3289.888672 0)"/>
    <use xlink:href="#DejaVuSans-73" transform="translate(3317.671875 0)"/>
    <use xlink:href="#DejaVuSans-74" transform="translate(3369.771484 0)"/>
    <use xlink:href="#DejaVuSans-6f" transform="translate(3408.980469 0)"/>
    <use xlink:href="#DejaVuSans-72" transform="translate(3470.162109 0)"/>
    <use xlink:href="#DejaVuSans-79" transform="translate(3511.275391 0)"/>
    <use xlink:href="#DejaVuSans-20" transform="translate(3570.455078 0)"/>
    <use xlink:href="#DejaVuSans-73" transform="translate(3602.242188 0)"/>
    <use xlink:href="#DejaVuSans-68" transform="translate(3654.341797 0)"/>
    <use xlink:href="#DejaVuSans-6f" transform="translate(3717.720703 0)"/>
    <use xlink:href="#DejaVuSans-77" transform="translate(3778.902344 0)"/>
    <use xlink:href="#DejaVuSans-73" transform="translate(3860.689453 0)"/>
    <use xlink:href="#DejaVuSans-20" transform="translate(3912.789062 0)"/>
    <use xlink:href="#DejaVuSans-6d" transform="translate(3944.576172 0)"/>
    <use xlink:href="#DejaVuSans-6f" transform="translate(4041.988281 0)"/>
    <use xlink:href="#DejaVuSans-64" transform="translate(4103.169922 0)"/>
    <use xlink:href="#DejaVuSans-65" transform="translate(4166.646484 0)"/>
    <use xlink:href="#DejaVuSans-72" transform="translate(4228.169922 0)"/>
    <use xlink:href="#DejaVuSans-61" transform="translate(4269.283203 0)"/>
    <use xlink:href="#DejaVuSans-74" transform="translate(4330.5625 0)"/>
    <use xlink:href="#DejaVuSans-65" transform="translate(4369.771484 0)"/>
    <use xlink:href="#DejaVuSans-20" transform="translate(4431.294922 0)"/>
    <use xlink:href="#DejaVuSans-65" transform="translate(4463.082031 0)"/>
    <use xlink:href="#DejaVuSans-6c" transform="translate(4524.605469 0)"/>
    <use xlink:href="#DejaVuSans-65" transform="translate(4552.388672 0)"/>
    <use xlink:href="#DejaVuSans-76" transform="translate(4613.912109 0)"/>
    <use xlink:href="#DejaVuSans-61" transform="translate(4673.091797 0)"/>
    <use xlink:href="#DejaVuSans-74" transform="translate(4734.371094 0)"/>
    <use xlink:href="#DejaVuSans-69" transform="translate(4773.580078 0)"/>
    <use xlink:href="#DejaVuSans-6f" transform="translate(4801.363281 0)"/>
    <use xlink:href="#DejaVuSans-6e" transform="translate(4862.544922 0)"/>
   </g>
  </g>
  <g id="text_12">
   <!-- PS4E11 · train.csv -->
   <g style="fill: #888888" transform="translate(631.441406 350.928281) scale(0.09 -0.09)">
    <defs>
     <path id="DejaVuSans-53" d="M 3425 4513 
L 3425 3897 
Q 3066 4069 2747 4153 
Q 2428 4238 2131 4238 
Q 1616 4238 1336 4038 
Q 1056 3838 1056 3469 
Q 1056 3159 1242 3001 
Q 1428 2844 1947 2747 
L 2328 2669 
Q 3034 2534 3370 2195 
Q 3706 1856 3706 1288 
Q 3706 609 3251 259 
Q 2797 -91 1919 -91 
Q 1588 -91 1214 -16 
Q 841 59 441 206 
L 441 856 
Q 825 641 1194 531 
Q 1563 422 1919 422 
Q 2459 422 2753 634 
Q 3047 847 3047 1241 
Q 3047 1584 2836 1778 
Q 2625 1972 2144 2069 
L 1759 2144 
Q 1053 2284 737 2584 
Q 422 2884 422 3419 
Q 422 4038 858 4394 
Q 1294 4750 2059 4750 
Q 2388 4750 2728 4690 
Q 3069 4631 3425 4513 
z
" transform="scale(0.015625)"/>
     <path id="DejaVuSans-34" d="M 2419 4116 
L 825 1625 
L 2419 1625 
L 2419 4116 
z
M 2253 4666 
L 3047 4666 
L 3047 1625 
L 3713 1625 
L 3713 1100 
L 3047 1100 
L 3047 0 
L 2419 0 
L 2419 1100 
L 313 1100 
L 313 1709 
L 2253 4666 
z
" transform="scale(0.015625)"/>
     <path id="DejaVuSans-45" d="M 628 4666 
L 3578 4666 
L 3578 4134 
L 1259 4134 
L 1259 2753 
L 3481 2753 
L 3481 2222 
L 1259 2222 
L 1259 531 
L 3634 531 
L 3634 0 
L 628 0 
L 628 4666 
z
" transform="scale(0.015625)"/>
     <path id="DejaVuSans-b7" d="M 684 2619 
L 1344 2619 
L 1344 1825 
L 684 1825 
L 684 2619 
z
" transform="scale(0.015625)"/>
     <path id="DejaVuSans-2e" d="M 684 794 
L 1344 794 
L 1344 0 
L 684 0 
L 684 794 
z
" transform="scale(0.015625)"/>
    </defs>
    <use xlink:href="#DejaVuSans-50"/>
    <use xlink:href="#DejaVuSans-53" transform="translate(60.302734 0)"/>
    <use xlink:href="#DejaVuSans-34" transform="translate(123.779297 0)"/>
    <use xlink:href="#DejaVuSans-45" transform="translate(187.402344 0)"/>
    <use xlink:href="#DejaVuSans-31" transform="translate(250.585938 0)"/>
    <use xlink:href="#DejaVuSans-31" transform="translate(314.208984 0)"/>
    <use xlink:href="#DejaVuSans-20" transform="translate(377.832031 0)"/>
    <use xlink:href="#DejaVuSans-b7" transform="translate(409.619141 0)"/>
    <use xlink:href="#DejaVuSans-20" transform="translate(441.40625 0)"/>
    <use xlink:href="#DejaVuSans-74" transform="translate(473.193359 0)"/>
    <use xlink:href="#DejaVuSans-72" transform="translate(512.402344 0)"/>
    <use xlink:href="#DejaVuSans-61" transform="translate(553.515625 0)"/>
    <use xlink:href="#DejaVuSans-69" transform="translate(614.794922 0)"/>
    <use xlink:href="#DejaVuSans-6e" transform="translate(642.578125 0)"/>
    <use xlink:href="#DejaVuSans-2e" transform="translate(705.957031 0)"/>
    <use xlink:href="#DejaVuSans-63" transform="translate(737.744141 0)"/>
    <use xlink:href="#DejaVuSans-73" transform="translate(792.724609 0)"/>
    <use xlink:href="#DejaVuSans-76" transform="translate(844.824219 0)"/>
   </g>
  </g>
  <g id="text_13">
   <!-- Proportion (%) -->
   <g transform="translate(15.558281 270.360328) rotate(-90) scale(0.11 -0.11)">
    <defs>
     <path id="DejaVuSans-Bold-50" d="M 588 4666 
L 2584 4666 
Q 3475 4666 3951 4270 
Q 4428 3875 4428 3144 
Q 4428 2409 3951 2014 
Q 3475 1619 2584 1619 
L 1791 1619 
L 1791 0 
L 588 0 
L 588 4666 
z
M 1791 3794 
L 1791 2491 
L 2456 2491 
Q 2806 2491 2997 2661 
Q 3188 2831 3188 3144 
Q 3188 3456 2997 3625 
Q 2806 3794 2456 3794 
L 1791 3794 
z
" transform="scale(0.015625)"/>
     <path id="DejaVuSans-Bold-28" d="M 2413 -844 
L 1484 -844 
Q 1006 -72 778 623 
Q 550 1319 550 2003 
Q 550 2688 779 3389 
Q 1009 4091 1484 4856 
L 2413 4856 
Q 2013 4116 1813 3408 
Q 1613 2700 1613 2009 
Q 1613 1319 1811 609 
Q 2009 -100 2413 -844 
z
" transform="scale(0.015625)"/>
     <path id="DejaVuSans-Bold-25" d="M 4959 1925 
Q 4738 1925 4616 1733 
Q 4494 1541 4494 1184 
Q 4494 825 4614 633 
Q 4734 441 4959 441 
Q 5184 441 5303 633 
Q 5422 825 5422 1184 
Q 5422 1541 5301 1733 
Q 5181 1925 4959 1925 
z
M 4959 2450 
Q 5541 2450 5875 2112 
Q 6209 1775 6209 1184 
Q 6209 594 5875 251 
Q 5541 -91 4959 -91 
Q 4378 -91 4042 251 
Q 3706 594 3706 1184 
Q 3706 1772 4042 2111 
Q 4378 2450 4959 2450 
z
M 2094 -91 
L 1403 -91 
L 4319 4750 
L 5013 4750 
L 2094 -91 
z
M 1453 4750 
Q 2034 4750 2367 4411 
Q 2700 4072 2700 3481 
Q 2700 2891 2367 2550 
Q 2034 2209 1453 2209 
Q 872 2209 539 2550 
Q 206 2891 206 3481 
Q 206 4072 539 4411 
Q 872 4750 1453 4750 
z
M 1453 4225 
Q 1228 4225 1106 4031 
Q 984 3838 984 3481 
Q 984 3122 1106 2926 
Q 1228 2731 1453 2731 
Q 1678 2731 1798 2926 
Q 1919 3122 1919 3481 
Q 1919 3838 1797 4031 
Q 1675 4225 1453 4225 
z
" transform="scale(0.015625)"/>
     <path id="DejaVuSans-Bold-29" d="M 513 -844 
Q 913 -100 1113 609 
Q 1313 1319 1313 2009 
Q 1313 2700 1113 3408 
Q 913 4116 513 4856 
L 1441 4856 
Q 1916 4091 2145 3389 
Q 2375 2688 2375 2003 
Q 2375 1319 2147 623 
Q 1919 -72 1441 -844 
L 513 -844 
z
" transform="scale(0.015625)"/>
    </defs>
    <use xlink:href="#DejaVuSans-Bold-50"/>
    <use xlink:href="#DejaVuSans-Bold-72" transform="translate(73.291016 0)"/>
    <use xlink:href="#DejaVuSans-Bold-6f" transform="translate(122.607422 0)"/>
    <use xlink:href="#DejaVuSans-Bold-70" transform="translate(191.308594 0)"/>
    <use xlink:href="#DejaVuSans-Bold-6f" transform="translate(262.890625 0)"/>
    <use xlink:href="#DejaVuSans-Bold-72" transform="translate(331.591797 0)"/>
    <use xlink:href="#DejaVuSans-Bold-74" transform="translate(380.908203 0)"/>
    <use xlink:href="#DejaVuSans-Bold-69" transform="translate(428.710938 0)"/>
    <use xlink:href="#DejaVuSans-Bold-6f" transform="translate(462.988281 0)"/>
    <use xlink:href="#DejaVuSans-Bold-6e" transform="translate(531.689453 0)"/>
    <use xlink:href="#DejaVuSans-Bold-20" transform="translate(602.880859 0)"/>
    <use xlink:href="#DejaVuSans-Bold-28" transform="translate(637.695312 0)"/>
    <use xlink:href="#DejaVuSans-Bold-25" transform="translate(683.398438 0)"/>
    <use xlink:href="#DejaVuSans-Bold-29" transform="translate(783.59375 0)"/>
   </g>
  </g>
  <g id="patch_2">
   <path d="M 55.835 133.286438 
L 380.7175 133.286438 
L 380.7175 114.944688 
L 55.835 114.944688 
z
" style="fill: #f0f4f8; stroke: #ffffff; stroke-linejoin: miter"/>
  </g>
  <g id="text_14">
   <!-- Family history of mental illness -->
   <g style="fill: #1a1a1a" transform="translate(129.827031 127.914781) scale(0.1 -0.1)">
    <defs>
     <path id="DejaVuSans-Bold-6d" d="M 3781 2919 
Q 3994 3244 4286 3414 
Q 4578 3584 4928 3584 
Q 5531 3584 5847 3212 
Q 6163 2841 6163 2131 
L 6163 0 
L 5038 0 
L 5038 1825 
Q 5041 1866 5042 1909 
Q 5044 1953 5044 2034 
Q 5044 2406 4934 2573 
Q 4825 2741 4581 2741 
Q 4263 2741 4089 2478 
Q 3916 2216 3909 1719 
L 3909 0 
L 2784 0 
L 2784 1825 
Q 2784 2406 2684 2573 
Q 2584 2741 2328 2741 
Q 2006 2741 1831 2477 
Q 1656 2213 1656 1722 
L 1656 0 
L 531 0 
L 531 3500 
L 1656 3500 
L 1656 2988 
Q 1863 3284 2130 3434 
Q 2397 3584 2719 3584 
Q 3081 3584 3359 3409 
Q 3638 3234 3781 2919 
z
" transform="scale(0.015625)"/>
     <path id="DejaVuSans-Bold-6c" d="M 538 4863 
L 1656 4863 
L 1656 0 
L 538 0 
L 538 4863 
z
" transform="scale(0.015625)"/>
     <path id="DejaVuSans-Bold-68" d="M 4056 2131 
L 4056 0 
L 2931 0 
L 2931 347 
L 2931 1625 
Q 2931 2084 2911 2256 
Q 2891 2428 2841 2509 
Q 2775 2619 2662 2680 
Q 2550 2741 2406 2741 
Q 2056 2741 1856 2470 
Q 1656 2200 1656 1722 
L 1656 0 
L 538 0 
L 538 4863 
L 1656 4863 
L 1656 2988 
Q 1909 3294 2193 3439 
Q 2478 3584 2822 3584 
Q 3428 3584 3742 3212 
Q 4056 2841 4056 2131 
z
" transform="scale(0.015625)"/>
     <path id="DejaVuSans-Bold-66" d="M 2841 4863 
L 2841 4128 
L 2222 4128 
Q 1984 4128 1890 4042 
Q 1797 3956 1797 3744 
L 1797 3500 
L 2753 3500 
L 2753 2700 
L 1797 2700 
L 1797 0 
L 678 0 
L 678 2700 
L 122 2700 
L 122 3500 
L 678 3500 
L 678 3744 
Q 678 4316 997 4589 
Q 1316 4863 1984 4863 
L 2841 4863 
z
" transform="scale(0.015625)"/>
    </defs>
    <use xlink:href="#DejaVuSans-Bold-46"/>
    <use xlink:href="#DejaVuSans-Bold-61" transform="translate(62.435547 0)"/>
    <use xlink:href="#DejaVuSans-Bold-6d" transform="translate(129.916016 0)"/>
    <use xlink:href="#DejaVuSans-Bold-69" transform="translate(234.115234 0)"/>
    <use xlink:href="#DejaVuSans-Bold-6c" transform="translate(268.392578 0)"/>
    <use xlink:href="#DejaVuSans-Bold-79" transform="translate(302.669922 0)"/>
    <use xlink:href="#DejaVuSans-Bold-20" transform="translate(367.855469 0)"/>
    <use xlink:href="#DejaVuSans-Bold-68" transform="translate(402.669922 0)"/>
    <use xlink:href="#DejaVuSans-Bold-69" transform="translate(473.861328 0)"/>
    <use xlink:href="#DejaVuSans-Bold-73" transform="translate(508.138672 0)"/>
    <use xlink:href="#DejaVuSans-Bold-74" transform="translate(567.660156 0)"/>
    <use xlink:href="#DejaVuSans-Bold-6f" transform="translate(615.462891 0)"/>
    <use xlink:href="#DejaVuSans-Bold-72" transform="translate(684.164062 0)"/>
    <use xlink:href="#DejaVuSans-Bold-79" transform="translate(733.480469 0)"/>
    <use xlink:href="#DejaVuSans-Bold-20" transform="translate(798.666016 0)"/>
    <use xlink:href="#DejaVuSans-Bold-6f" transform="translate(833.480469 0)"/>
    <use xlink:href="#DejaVuSans-Bold-66" transform="translate(902.181641 0)"/>
    <use xlink:href="#DejaVuSans-Bold-20" transform="translate(945.6875 0)"/>
    <use xlink:href="#DejaVuSans-Bold-6d" transform="translate(980.501953 0)"/>
    <use xlink:href="#DejaVuSans-Bold-65" transform="translate(1084.701172 0)"/>
    <use xlink:href="#DejaVuSans-Bold-6e" transform="translate(1152.523438 0)"/>
    <use xlink:href="#DejaVuSans-Bold-74" transform="translate(1223.714844 0)"/>
    <use xlink:href="#DejaVuSans-Bold-61" transform="translate(1271.517578 0)"/>
    <use xlink:href="#DejaVuSans-Bold-6c" transform="translate(1338.998047 0)"/>
    <use xlink:href="#DejaVuSans-Bold-20" transform="translate(1373.275391 0)"/>
    <use xlink:href="#DejaVuSans-Bold-69" transform="translate(1408.089844 0)"/>
    <use xlink:href="#DejaVuSans-Bold-6c" transform="translate(1442.367188 0)"/>
    <use xlink:href="#DejaVuSans-Bold-6c" transform="translate(1476.644531 0)"/>
    <use xlink:href="#DejaVuSans-Bold-6e" transform="translate(1510.921875 0)"/>
    <use xlink:href="#DejaVuSans-Bold-65" transform="translate(1582.113281 0)"/>
    <use xlink:href="#DejaVuSans-Bold-73" transform="translate(1649.935547 0)"/>
    <use xlink:href="#DejaVuSans-Bold-73" transform="translate(1709.457031 0)"/>
   </g>
  </g>
  <g id="patch_3">
   <path d="M 387.9175 133.286438 
L 712.8 133.286438 
L 712.8 114.944688 
L 387.9175 114.944688 
z
" style="fill: #f0f4f8; stroke: #ffffff; stroke-linejoin: miter"/>
  </g>
  <g id="text_15">
   <!-- Suicidal thoughts -->
   <g style="fill: #1a1a1a" transform="translate(500.950938 127.914781) scale(0.1 -0.1)">
    <defs>
     <path id="DejaVuSans-Bold-53" d="M 3834 4519 
L 3834 3531 
Q 3450 3703 3084 3790 
Q 2719 3878 2394 3878 
Q 1963 3878 1756 3759 
Q 1550 3641 1550 3391 
Q 1550 3203 1689 3098 
Q 1828 2994 2194 2919 
L 2706 2816 
Q 3484 2659 3812 2340 
Q 4141 2022 4141 1434 
Q 4141 663 3683 286 
Q 3225 -91 2284 -91 
Q 1841 -91 1394 -6 
Q 947 78 500 244 
L 500 1259 
Q 947 1022 1364 901 
Q 1781 781 2169 781 
Q 2563 781 2772 912 
Q 2981 1044 2981 1288 
Q 2981 1506 2839 1625 
Q 2697 1744 2272 1838 
L 1806 1941 
Q 1106 2091 782 2419 
Q 459 2747 459 3303 
Q 459 4000 909 4375 
Q 1359 4750 2203 4750 
Q 2588 4750 2994 4692 
Q 3400 4634 3834 4519 
z
" transform="scale(0.015625)"/>
     <path id="DejaVuSans-Bold-75" d="M 500 1363 
L 500 3500 
L 1625 3500 
L 1625 3150 
Q 1625 2866 1622 2436 
Q 1619 2006 1619 1863 
Q 1619 1441 1641 1255 
Q 1663 1069 1716 984 
Q 1784 875 1895 815 
Q 2006 756 2150 756 
Q 2500 756 2700 1025 
Q 2900 1294 2900 1772 
L 2900 3500 
L 4019 3500 
L 4019 0 
L 2900 0 
L 2900 506 
Q 2647 200 2364 54 
Q 2081 -91 1741 -91 
Q 1134 -91 817 281 
Q 500 653 500 1363 
z
" transform="scale(0.015625)"/>
     <path id="DejaVuSans-Bold-64" d="M 2919 2988 
L 2919 4863 
L 4044 4863 
L 4044 0 
L 2919 0 
L 2919 506 
Q 2688 197 2409 53 
Q 2131 -91 1766 -91 
Q 1119 -91 703 423 
Q 288 938 288 1747 
Q 288 2556 703 3070 
Q 1119 3584 1766 3584 
Q 2128 3584 2408 3439 
Q 2688 3294 2919 2988 
z
M 2181 722 
Q 2541 722 2730 984 
Q 2919 1247 2919 1747 
Q 2919 2247 2730 2509 
Q 2541 2772 2181 2772 
Q 1825 2772 1636 2509 
Q 1447 2247 1447 1747 
Q 1447 1247 1636 984 
Q 1825 722 2181 722 
z
" transform="scale(0.015625)"/>
     <path id="DejaVuSans-Bold-67" d="M 2919 594 
Q 2688 288 2409 144 
Q 2131 0 1766 0 
Q 1125 0 706 504 
Q 288 1009 288 1791 
Q 288 2575 706 3076 
Q 1125 3578 1766 3578 
Q 2131 3578 2409 3434 
Q 2688 3291 2919 2981 
L 2919 3500 
L 4044 3500 
L 4044 353 
Q 4044 -491 3511 -936 
Q 2978 -1381 1966 -1381 
Q 1638 -1381 1331 -1331 
Q 1025 -1281 716 -1178 
L 716 -306 
Q 1009 -475 1290 -558 
Q 1572 -641 1856 -641 
Q 2406 -641 2662 -400 
Q 2919 -159 2919 353 
L 2919 594 
z
M 2181 2772 
Q 1834 2772 1640 2515 
Q 1447 2259 1447 1791 
Q 1447 1309 1634 1061 
Q 1822 813 2181 813 
Q 2531 813 2725 1069 
Q 2919 1325 2919 1791 
Q 2919 2259 2725 2515 
Q 2531 2772 2181 2772 
z
" transform="scale(0.015625)"/>
    </defs>
    <use xlink:href="#DejaVuSans-Bold-53"/>
    <use xlink:href="#DejaVuSans-Bold-75" transform="translate(72.021484 0)"/>
    <use xlink:href="#DejaVuSans-Bold-69" transform="translate(143.212891 0)"/>
    <use xlink:href="#DejaVuSans-Bold-63" transform="translate(177.490234 0)"/>
    <use xlink:href="#DejaVuSans-Bold-69" transform="translate(236.767578 0)"/>
    <use xlink:href="#DejaVuSans-Bold-64" transform="translate(271.044922 0)"/>
    <use xlink:href="#DejaVuSans-Bold-61" transform="translate(342.626953 0)"/>
    <use xlink:href="#DejaVuSans-Bold-6c" transform="translate(410.107422 0)"/>
    <use xlink:href="#DejaVuSans-Bold-20" transform="translate(444.384766 0)"/>
    <use xlink:href="#DejaVuSans-Bold-74" transform="translate(479.199219 0)"/>
    <use xlink:href="#DejaVuSans-Bold-68" transform="translate(527.001953 0)"/>
    <use xlink:href="#DejaVuSans-Bold-6f" transform="translate(598.193359 0)"/>
    <use xlink:href="#DejaVuSans-Bold-75" transform="translate(666.894531 0)"/>
    <use xlink:href="#DejaVuSans-Bold-67" transform="translate(738.085938 0)"/>
    <use xlink:href="#DejaVuSans-Bold-68" transform="translate(809.667969 0)"/>
    <use xlink:href="#DejaVuSans-Bold-74" transform="translate(880.859375 0)"/>
    <use xlink:href="#DejaVuSans-Bold-73" transform="translate(928.662109 0)"/>
   </g>
  </g>
  <g id="patch_4">
   <path d="M 303.594687 92.344687 
L 319.434687 92.344687 
L 319.434687 76.504687 
L 303.594687 76.504687 
z
" clip-path="url(#p5d024b9881)" style="fill: #e05c6b"/>
  </g>
  <g id="text_16">
   <!-- Depression -->
   <g transform="translate(324.234688 87.184062) scale(0.1 -0.1)">
    <defs>
     <path id="DejaVuSans-44" d="M 1259 4147 
L 1259 519 
L 2022 519 
Q 2988 519 3436 956 
Q 3884 1394 3884 2338 
Q 3884 3275 3436 3711 
Q 2988 4147 2022 4147 
L 1259 4147 
z
M 628 4666 
L 1925 4666 
Q 3281 4666 3915 4102 
Q 4550 3538 4550 2338 
Q 4550 1131 3912 565 
Q 3275 0 1925 0 
L 628 0 
L 628 4666 
z
" transform="scale(0.015625)"/>
    </defs>
    <use xlink:href="#DejaVuSans-44"/>
    <use xlink:href="#DejaVuSans-65" transform="translate(77.001953 0)"/>
    <use xlink:href="#DejaVuSans-70" transform="translate(138.525391 0)"/>
    <use xlink:href="#DejaVuSans-72" transform="translate(202.001953 0)"/>
    <use xlink:href="#DejaVuSans-65" transform="translate(240.865234 0)"/>
    <use xlink:href="#DejaVuSans-73" transform="translate(302.388672 0)"/>
    <use xlink:href="#DejaVuSans-73" transform="translate(354.488281 0)"/>
    <use xlink:href="#DejaVuSans-69" transform="translate(406.587891 0)"/>
    <use xlink:href="#DejaVuSans-6f" transform="translate(434.371094 0)"/>
    <use xlink:href="#DejaVuSans-6e" transform="translate(495.552734 0)"/>
   </g>
  </g>
  <g id="patch_5">
   <path d="M 386.128437 92.344687 
L 401.968437 92.344687 
L 401.968437 76.504687 
L 386.128437 76.504687 
z
" clip-path="url(#pe7c3651d75)" style="fill: #5b8db8"/>
  </g>
  <g id="text_17">
   <!-- No Depression -->
   <g transform="translate(406.768437 87.184062) scale(0.1 -0.1)">
    <use xlink:href="#DejaVuSans-4e"/>
    <use xlink:href="#DejaVuSans-6f" transform="translate(74.804688 0)"/>
    <use xlink:href="#DejaVuSans-20" transform="translate(135.986328 0)"/>
    <use xlink:href="#DejaVuSans-44" transform="translate(167.773438 0)"/>
    <use xlink:href="#DejaVuSans-65" transform="translate(244.775391 0)"/>
    <use xlink:href="#DejaVuSans-70" transform="translate(306.298828 0)"/>
    <use xlink:href="#DejaVuSans-72" transform="translate(369.775391 0)"/>
    <use xlink:href="#DejaVuSans-65" transform="translate(408.638672 0)"/>
    <use xlink:href="#DejaVuSans-73" transform="translate(470.162109 0)"/>
    <use xlink:href="#DejaVuSans-73" transform="translate(522.261719 0)"/>
    <use xlink:href="#DejaVuSans-69" transform="translate(574.361328 0)"/>
    <use xlink:href="#DejaVuSans-6f" transform="translate(602.144531 0)"/>
    <use xlink:href="#DejaVuSans-6e" transform="translate(663.326172 0)"/>
   </g>
  </g>
 </g>
 <defs>
  <clipPath id="pbd777b0f72">
   <rect x="55.835" y="133.286438" width="324.8825" height="182.925125"/>
  </clipPath>
  <clipPath id="pbe4c04ce26">
   <rect x="387.9175" y="133.286438" width="324.8825" height="182.925125"/>
  </clipPath>
  <clipPath id="p5d024b9881">
   <path d="M 303.594687 92.344687 
L 303.594687 76.504687 
L 319.434687 76.504687 
L 319.434687 92.344687 
"/>
  </clipPath>
  <clipPath id="pe7c3651d75">
   <path d="M 386.128437 92.344687 
L 386.128437 76.504687 
L 401.968437 76.504687 
L 401.968437 92.344687 
"/>
  </clipPath>
 </defs>
</svg>
