<?xml version="1.0" encoding="utf-8" standalone="no"?>
<!DOCTYPE svg PUBLIC "-//W3C//DTD SVG 1.1//EN"
  "http://www.w3.org/Graphics/SVG/1.1/DTD/svg11.dtd">
<svg xmlns:xlink="http://www.w3.org/1999/xlink" width="720pt" height="576pt" viewBox="0 0 720 576" xmlns="http://www.w3.org/2000/svg" version="1.1">
 <metadata>
  <rdf:RDF xmlns:dc="http://purl.org/dc/elements/1.1/" xmlns:cc="http://creativecommons.org/ns#" xmlns:rdf="http://www.w3.org/1999/02/22-rdf-syntax-ns#">
   <cc:Work>
    <dc:type rdf:resource="http://purl.org/dc/dcmitype/StillImage"/>
    <dc:date>2026-03-10T21:40:08.983431</dc:date>
    <dc:format>image/svg+xml</dc:format>
    <dc:creator>
     <cc:Agent>
      <dc:title>Matplotlib v3.10.8, https://matplotlib.org/</dc:title>
     </cc:Agent>
    </dc:creator>
   </cc:Work>
  </rdf:RDF>
 </metadata>
 <defs>
  <style type="text/css">*{stroke-linejoin: round; stroke-linecap: butt}</style>
 </defs>
 <g id="figure_1">
  <g id="patch_1">
   <path d="M 0 576 
L 720 576 
L 720 0 
L 0 0 
z
" style="fill: #ffffff"/>
  </g>
  <g id="axes_1">
   <g id="matplotlib.axis_1">
    <g id="xtick_1">
     <g id="line2d_1">
      <path d="M 125.340625 520.365625 
L 125.340625 59.004688 
" clip-path="url(#pc1f6128707)" style="fill: none; stroke: #e8e8e8; stroke-width: 0.5; stroke-linecap: square"/>
     </g>
     <g id="text_1">
      <!-- 0% -->
      <g style="fill: #4d4d4d" transform="translate(117.408594 530.164062) scale(0.1 -0.1)">
       <defs>
        <path id="DejaVuSans-30" d="M 2034 4250 
Q 1547 4250 1301 3770 
Q 1056 3291 1056 2328 
Q 1056 1369 1301 889 
Q 1547 409 2034 409 
Q 2525 409 2770 889 
Q 3016 1369 3016 2328 
Q 3016 3291 2770 3770 
Q 2525 4250 2034 4250 
z
M 2034 4750 
Q 2819 4750 3233 4129 
Q 3647 3509 3647 2328 
Q 3647 1150 3233 529 
Q 2819 -91 2034 -91 
Q 1250 -91 836 529 
Q 422 1150 422 2328 
Q 422 3509 836 4129 
Q 1250 4750 2034 4750 
z
" transform="scale(0.015625)"/>
        <path id="DejaVuSans-25" d="M 4653 2053 
Q 4381 2053 4226 1822 
Q 4072 1591 4072 1178 
Q 4072 772 4226 539 
Q 4381 306 4653 306 
Q 4919 306 5073 539 
Q 5228 772 5228 1178 
Q 5228 1588 5073 1820 
Q 4919 2053 4653 2053 
z
M 4653 2450 
Q 5147 2450 5437 2106 
Q 5728 1763 5728 1178 
Q 5728 594 5436 251 
Q 5144 -91 4653 -91 
Q 4153 -91 3862 251 
Q 3572 594 3572 1178 
Q 3572 1766 3864 2108 
Q 4156 2450 4653 2450 
z
M 1428 4353 
Q 1159 4353 1004 4120 
Q 850 3888 850 3481 
Q 850 3069 1003 2837 
Q 1156 2606 1428 2606 
Q 1700 2606 1854 2837 
Q 2009 3069 2009 3481 
Q 2009 3884 1853 4118 
Q 1697 4353 1428 4353 
z
M 4250 4750 
L 4750 4750 
L 1831 -91 
L 1331 -91 
L 4250 4750 
z
M 1428 4750 
Q 1922 4750 2215 4408 
Q 2509 4066 2509 3481 
Q 2509 2891 2217 2550 
Q 1925 2209 1428 2209 
Q 931 2209 642 2551 
Q 353 2894 353 3481 
Q 353 4063 643 4406 
Q 934 4750 1428 4750 
z
" transform="scale(0.015625)"/>
       </defs>
       <use xlink:href="#DejaVuSans-30"/>
       <use xlink:href="#DejaVuSans-25" transform="translate(63.623047 0)"/>
      </g>
     </g>
    </g>
    <g id="xtick_2">
     <g id="line2d_2">
      <path d="M 269.880346 520.365625 
L 269.880346 59.004688 
" clip-path="url(#pc1f6128707)" style="fill: none; stroke: #e8e8e8; stroke-width: 0.5; stroke-linecap: square"/>
     </g>
     <g id="text_2">
      <!-- 5% -->
      <g style="fill: #4d4d4d" transform="translate(261.948314 530.164062) scale(0.1 -0.1)">
       <defs>
        <path id="DejaVuSans-35" d="M 691 4666 
L 3169 4666 
L 3169 4134 
L 1269 4134 
L 1269 2991 
Q 1406 3038 1543 3061 
Q 1681 3084 1819 3084 
Q 2600 3084 3056 2656 
Q 3513 2228 3513 1497 
Q 3513 744 3044 326 
Q 2575 -91 1722 -91 
Q 1428 -91 1123 -41 
Q 819 9 494 109 
L 494 744 
Q 775 591 1075 516 
Q 1375 441 1709 441 
Q 2250 441 2565 725 
Q 2881 1009 2881 1497 
Q 2881 1984 2565 2268 
Q 2250 2553 1709 2553 
Q 1456 2553 1204 2497 
Q 953 2441 691 2322 
L 691 4666 
z
" transform="scale(0.015625)"/>
       </defs>
       <use xlink:href="#DejaVuSans-35"/>
       <use xlink:href="#DejaVuSans-25" transform="translate(63.623047 0)"/>
      </g>
     </g>
    </g>
    <g id="xtick_3">
     <g id="line2d_3">
      <path d="M 414.420066 520.365625 
L 414.420066 59.004688 
" clip-path="url(#pc1f6128707)" style="fill: none; stroke: #e8e8e8; stroke-width: 0.5; stroke-linecap: square"/>
     </g>
     <g id="text_3">
      <!-- 10% -->
      <g style="fill: #4d4d4d" transform="translate(403.306785 530.164062) scale(0.1 -0.1)">
       <defs>
        <path id="DejaVuSans-31" d="M 794 531 
L 1825 531 
L 1825 4091 
L 703 3866 
L 703 4441 
L 1819 4666 
L 2450 4666 
L 2450 531 
L 3481 531 
L 3481 0 
L 794 0 
L 794 531 
z
" transform="scale(0.015625)"/>
       </defs>
       <use xlink:href="#DejaVuSans-31"/>
       <use xlink:href="#DejaVuSans-30" transform="translate(63.623047 0)"/>
       <use xlink:href="#DejaVuSans-25" transform="translate(127.246094 0)"/>
      </g>
     </g>
    </g>
    <g id="xtick_4">
     <g id="line2d_4">
      <path d="M 558.959787 520.365625 
L 558.959787 59.004688 
" clip-path="url(#pc1f6128707)" style="fill: none; stroke: #e8e8e8; stroke-width: 0.5; stroke-linecap: square"/>
     </g>
     <g id="text_4">
      <!-- 15% -->
      <g style="fill: #4d4d4d" transform="translate(547.846505 530.164062) scale(0.1 -0.1)">
       <use xlink:href="#DejaVuSans-31"/>
       <use xlink:href="#DejaVuSans-35" transform="translate(63.623047 0)"/>
       <use xlink:href="#DejaVuSans-25" transform="translate(127.246094 0)"/>
      </g>
     </g>
    </g>
    <g id="xtick_5">
     <g id="line2d_5">
      <path d="M 703.499507 520.365625 
L 703.499507 59.004688 
" clip-path="url(#pc1f6128707)" style="fill: none; stroke: #e8e8e8; stroke-width: 0.5; stroke-linecap: square"/>
     </g>
     <g id="text_5">
      <!-- 20% -->
      <g style="fill: #4d4d4d" transform="translate(692.386226 530.164062) scale(0.1 -0.1)">
       <defs>
        <path id="DejaVuSans-32" d="M 1228 531 
L 3431 531 
L 3431 0 
L 469 0 
L 469 531 
Q 828 903 1448 1529 
Q 2069 2156 2228 2338 
Q 2531 2678 2651 2914 
Q 2772 3150 2772 3378 
Q 2772 3750 2511 3984 
Q 2250 4219 1831 4219 
Q 1534 4219 1204 4116 
Q 875 4013 500 3803 
L 500 4441 
Q 881 4594 1212 4672 
Q 1544 4750 1819 4750 
Q 2544 4750 2975 4387 
Q 3406 4025 3406 3419 
Q 3406 3131 3298 2873 
Q 3191 2616 2906 2266 
Q 2828 2175 2409 1742 
Q 1991 1309 1228 531 
z
" transform="scale(0.015625)"/>
       </defs>
       <use xlink:href="#DejaVuSans-32"/>
       <use xlink:href="#DejaVuSans-30" transform="translate(63.623047 0)"/>
       <use xlink:href="#DejaVuSans-25" transform="translate(127.246094 0)"/>
      </g>
     </g>
    </g>
    <g id="xtick_6"/>
    <g id="xtick_7"/>
    <g id="xtick_8"/>
    <g id="xtick_9"/>
   </g>
   <g id="matplotlib.axis_2">
    <g id="ytick_1">
     <g id="text_6">
      <!-- Marketing Manager -->
      <g style="fill: #4d4d4d" transform="translate(26.295313 510.461054) scale(0.1 -0.1)">
       <defs>
        <path id="DejaVuSans-4d" d="M 628 4666 
L 1569 4666 
L 2759 1491 
L 3956 4666 
L 4897 4666 
L 4897 0 
L 4281 0 
L 4281 4097 
L 3078 897 
L 2444 897 
L 1241 4097 
L 1241 0 
L 628 0 
L 628 4666 
z
" transform="scale(0.015625)"/>
        <path id="DejaVuSans-61" d="M 2194 1759 
Q 1497 1759 1228 1600 
Q 959 1441 959 1056 
Q 959 750 1161 570 
Q 1363 391 1709 391 
Q 2188 391 2477 730 
Q 2766 1069 2766 1631 
L 2766 1759 
L 2194 1759 
z
M 3341 1997 
L 3341 0 
L 2766 0 
L 2766 531 
Q 2569 213 2275 61 
Q 1981 -91 1556 -91 
Q 1019 -91 701 211 
Q 384 513 384 1019 
Q 384 1609 779 1909 
Q 1175 2209 1959 2209 
L 2766 2209 
L 2766 2266 
Q 2766 2663 2505 2880 
Q 2244 3097 1772 3097 
Q 1472 3097 1187 3025 
Q 903 2953 641 2809 
L 641 3341 
Q 956 3463 1253 3523 
Q 1550 3584 1831 3584 
Q 2591 3584 2966 3190 
Q 3341 2797 3341 1997 
z
" transform="scale(0.015625)"/>
        <path id="DejaVuSans-72" d="M 2631 2963 
Q 2534 3019 2420 3045 
Q 2306 3072 2169 3072 
Q 1681 3072 1420 2755 
Q 1159 2438 1159 1844 
L 1159 0 
L 581 0 
L 581 3500 
L 1159 3500 
L 1159 2956 
Q 1341 3275 1631 3429 
Q 1922 3584 2338 3584 
Q 2397 3584 2469 3576 
Q 2541 3569 2628 3553 
L 2631 2963 
z
" transform="scale(0.015625)"/>
        <path id="DejaVuSans-6b" d="M 581 4863 
L 1159 4863 
L 1159 1991 
L 2875 3500 
L 3609 3500 
L 1753 1863 
L 3688 0 
L 2938 0 
L 1159 1709 
L 1159 0 
L 581 0 
L 581 4863 
z
" transform="scale(0.015625)"/>
        <path id="DejaVuSans-65" d="M 3597 1894 
L 3597 1613 
L 953 1613 
Q 991 1019 1311 708 
Q 1631 397 2203 397 
Q 2534 397 2845 478 
Q 3156 559 3463 722 
L 3463 178 
Q 3153 47 2828 -22 
Q 2503 -91 2169 -91 
Q 1331 -91 842 396 
Q 353 884 353 1716 
Q 353 2575 817 3079 
Q 1281 3584 2069 3584 
Q 2775 3584 3186 3129 
Q 3597 2675 3597 1894 
z
M 3022 2063 
Q 3016 2534 2758 2815 
Q 2500 3097 2075 3097 
Q 1594 3097 1305 2825 
Q 1016 2553 972 2059 
L 3022 2063 
z
" transform="scale(0.015625)"/>
        <path id="DejaVuSans-74" d="M 1172 4494 
L 1172 3500 
L 2356 3500 
L 2356 3053 
L 1172 3053 
L 1172 1153 
Q 1172 725 1289 603 
Q 1406 481 1766 481 
L 2356 481 
L 2356 0 
L 1766 0 
Q 1100 0 847 248 
Q 594 497 594 1153 
L 594 3053 
L 172 3053 
L 172 3500 
L 594 3500 
L 594 4494 
L 1172 4494 
z
" transform="scale(0.015625)"/>
        <path id="DejaVuSans-69" d="M 603 3500 
L 1178 3500 
L 1178 0 
L 603 0 
L 603 3500 
z
M 603 4863 
L 1178 4863 
L 1178 4134 
L 603 4134 
L 603 4863 
z
" transform="scale(0.015625)"/>
        <path id="DejaVuSans-6e" d="M 3513 2113 
L 3513 0 
L 2938 0 
L 2938 2094 
Q 2938 2591 2744 2837 
Q 2550 3084 2163 3084 
Q 1697 3084 1428 2787 
Q 1159 2491 1159 1978 
L 1159 0 
L 581 0 
L 581 3500 
L 1159 3500 
L 1159 2956 
Q 1366 3272 1645 3428 
Q 1925 3584 2291 3584 
Q 2894 3584 3203 3211 
Q 3513 2838 3513 2113 
z
" transform="scale(0.015625)"/>
        <path id="DejaVuSans-67" d="M 2906 1791 
Q 2906 2416 2648 2759 
Q 2391 3103 1925 3103 
Q 1463 3103 1205 2759 
Q 947 2416 947 1791 
Q 947 1169 1205 825 
Q 1463 481 1925 481 
Q 2391 481 2648 825 
Q 2906 1169 2906 1791 
z
M 3481 434 
Q 3481 -459 3084 -895 
Q 2688 -1331 1869 -1331 
Q 1566 -1331 1297 -1286 
Q 1028 -1241 775 -1147 
L 775 -588 
Q 1028 -725 1275 -790 
Q 1522 -856 1778 -856 
Q 2344 -856 2625 -561 
Q 2906 -266 2906 331 
L 2906 616 
Q 2728 306 2450 153 
Q 2172 0 1784 0 
Q 1141 0 747 490 
Q 353 981 353 1791 
Q 353 2603 747 3093 
Q 1141 3584 1784 3584 
Q 2172 3584 2450 3431 
Q 2728 3278 2906 2969 
L 2906 3500 
L 3481 3500 
L 3481 434 
z
" transform="scale(0.015625)"/>
        <path id="DejaVuSans-20" transform="scale(0.015625)"/>
       </defs>
       <use xlink:href="#DejaVuSans-4d"/>
       <use xlink:href="#DejaVuSans-61" transform="translate(86.279297 0)"/>
       <use xlink:href="#DejaVuSans-72" transform="translate(147.558594 0)"/>
       <use xlink:href="#DejaVuSans-6b" transform="translate(188.671875 0)"/>
       <use xlink:href="#DejaVuSans-65" transform="translate(242.957031 0)"/>
       <use xlink:href="#DejaVuSans-74" transform="translate(304.480469 0)"/>
       <use xlink:href="#DejaVuSans-69" transform="translate(343.689453 0)"/>
       <use xlink:href="#DejaVuSans-6e" transform="translate(371.472656 0)"/>
       <use xlink:href="#DejaVuSans-67" transform="translate(434.851562 0)"/>
       <use xlink:href="#DejaVuSans-20" transform="translate(498.328125 0)"/>
       <use xlink:href="#DejaVuSans-4d" transform="translate(530.115234 0)"/>
       <use xlink:href="#DejaVuSans-61" transform="translate(616.394531 0)"/>
       <use xlink:href="#DejaVuSans-6e" transform="translate(677.673828 0)"/>
       <use xlink:href="#DejaVuSans-61" transform="translate(741.052734 0)"/>
       <use xlink:href="#DejaVuSans-67" transform="translate(802.332031 0)"/>
       <use xlink:href="#DejaVuSans-65" transform="translate(865.808594 0)"/>
       <use xlink:href="#DejaVuSans-72" transform="translate(927.332031 0)"/>
      </g>
     </g>
    </g>
    <g id="ytick_2">
     <g id="text_7">
      <!-- Pilot -->
      <g style="fill: #4d4d4d" transform="translate(101.740625 487.621403) scale(0.1 -0.1)">
       <defs>
        <path id="DejaVuSans-50" d="M 1259 4147 
L 1259 2394 
L 2053 2394 
Q 2494 2394 2734 2622 
Q 2975 2850 2975 3272 
Q 2975 3691 2734 3919 
Q 2494 4147 2053 4147 
L 1259 4147 
z
M 628 4666 
L 2053 4666 
Q 2838 4666 3239 4311 
Q 3641 3956 3641 3272 
Q 3641 2581 3239 2228 
Q 2838 1875 2053 1875 
L 1259 1875 
L 1259 0 
L 628 0 
L 628 4666 
z
" transform="scale(0.015625)"/>
        <path id="DejaVuSans-6c" d="M 603 4863 
L 1178 4863 
L 1178 0 
L 603 0 
L 603 4863 
z
" transform="scale(0.015625)"/>
        <path id="DejaVuSans-6f" d="M 1959 3097 
Q 1497 3097 1228 2736 
Q 959 2375 959 1747 
Q 959 1119 1226 758 
Q 1494 397 1959 397 
Q 2419 397 2687 759 
Q 2956 1122 2956 1747 
Q 2956 2369 2687 2733 
Q 2419 3097 1959 3097 
z
M 1959 3584 
Q 2709 3584 3137 3096 
Q 3566 2609 3566 1747 
Q 3566 888 3137 398 
Q 2709 -91 1959 -91 
Q 1206 -91 779 398 
Q 353 888 353 1747 
Q 353 2609 779 3096 
Q 1206 3584 1959 3584 
z
" transform="scale(0.015625)"/>
       </defs>
       <use xlink:href="#DejaVuSans-50"/>
       <use xlink:href="#DejaVuSans-69" transform="translate(58.052734 0)"/>
       <use xlink:href="#DejaVuSans-6c" transform="translate(85.835938 0)"/>
       <use xlink:href="#DejaVuSans-6f" transform="translate(113.619141 0)"/>
       <use xlink:href="#DejaVuSans-74" transform="translate(174.800781 0)"/>
      </g>
     </g>
    </g>
    <g id="ytick_3">
     <g id="text_8">
      <!-- Doctor -->
      <g style="fill: #4d4d4d" transform="translate(89.673438 464.781753) scale(0.1 -0.1)">
       <defs>
        <path id="DejaVuSans-44" d="M 1259 4147 
L 1259 519 
L 2022 519 
Q 2988 519 3436 956 
Q 3884 1394 3884 2338 
Q 3884 3275 3436 3711 
Q 2988 4147 2022 4147 
L 1259 4147 
z
M 628 4666 
L 1925 4666 
Q 3281 4666 3915 4102 
Q 4550 3538 4550 2338 
Q 4550 1131 3912 565 
Q 3275 0 1925 0 
L 628 0 
L 628 4666 
z
" transform="scale(0.015625)"/>
        <path id="DejaVuSans-63" d="M 3122 3366 
L 3122 2828 
Q 2878 2963 2633 3030 
Q 2388 3097 2138 3097 
Q 1578 3097 1268 2742 
Q 959 2388 959 1747 
Q 959 1106 1268 751 
Q 1578 397 2138 397 
Q 2388 397 2633 464 
Q 2878 531 3122 666 
L 3122 134 
Q 2881 22 2623 -34 
Q 2366 -91 2075 -91 
Q 1284 -91 818 406 
Q 353 903 353 1747 
Q 353 2603 823 3093 
Q 1294 3584 2113 3584 
Q 2378 3584 2631 3529 
Q 2884 3475 3122 3366 
z
" transform="scale(0.015625)"/>
       </defs>
       <use xlink:href="#DejaVuSans-44"/>
       <use xlink:href="#DejaVuSans-6f" transform="translate(77.001953 0)"/>
       <use xlink:href="#DejaVuSans-63" transform="translate(138.183594 0)"/>
       <use xlink:href="#DejaVuSans-74" transform="translate(193.164062 0)"/>
       <use xlink:href="#DejaVuSans-6f" transform="translate(232.373047 0)"/>
       <use xlink:href="#DejaVuSans-72" transform="translate(293.554688 0)"/>
      </g>
     </g>
    </g>
    <g id="ytick_4">
     <g id="text_9">
      <!-- Teacher -->
      <g style="fill: #4d4d4d" transform="translate(84.351563 441.942102) scale(0.1 -0.1)">
       <defs>
        <path id="DejaVuSans-54" d="M -19 4666 
L 3928 4666 
L 3928 4134 
L 2272 4134 
L 2272 0 
L 1638 0 
L 1638 4134 
L -19 4134 
L -19 4666 
z
" transform="scale(0.015625)"/>
        <path id="DejaVuSans-68" d="M 3513 2113 
L 3513 0 
L 2938 0 
L 2938 2094 
Q 2938 2591 2744 2837 
Q 2550 3084 2163 3084 
Q 1697 3084 1428 2787 
Q 1159 2491 1159 1978 
L 1159 0 
L 581 0 
L 581 4863 
L 1159 4863 
L 1159 2956 
Q 1366 3272 1645 3428 
Q 1925 3584 2291 3584 
Q 2894 3584 3203 3211 
Q 3513 2838 3513 2113 
z
" transform="scale(0.015625)"/>
       </defs>
       <use xlink:href="#DejaVuSans-54"/>
       <use xlink:href="#DejaVuSans-65" transform="translate(44.083984 0)"/>
       <use xlink:href="#DejaVuSans-61" transform="translate(105.607422 0)"/>
       <use xlink:href="#DejaVuSans-63" transform="translate(166.886719 0)"/>
       <use xlink:href="#DejaVuSans-68" transform="translate(221.867188 0)"/>
       <use xlink:href="#DejaVuSans-65" transform="translate(285.246094 0)"/>
       <use xlink:href="#DejaVuSans-72" transform="translate(346.769531 0)"/>
      </g>
     </g>
    </g>
    <g id="ytick_5">
     <g id="text_10">
      <!-- Business Analyst -->
      <g style="fill: #4d4d4d" transform="translate(38.734375 419.102452) scale(0.1 -0.1)">
       <defs>
        <path id="DejaVuSans-42" d="M 1259 2228 
L 1259 519 
L 2272 519 
Q 2781 519 3026 730 
Q 3272 941 3272 1375 
Q 3272 1813 3026 2020 
Q 2781 2228 2272 2228 
L 1259 2228 
z
M 1259 4147 
L 1259 2741 
L 2194 2741 
Q 2656 2741 2882 2914 
Q 3109 3088 3109 3444 
Q 3109 3797 2882 3972 
Q 2656 4147 2194 4147 
L 1259 4147 
z
M 628 4666 
L 2241 4666 
Q 2963 4666 3353 4366 
Q 3744 4066 3744 3513 
Q 3744 3084 3544 2831 
Q 3344 2578 2956 2516 
Q 3422 2416 3680 2098 
Q 3938 1781 3938 1306 
Q 3938 681 3513 340 
Q 3088 0 2303 0 
L 628 0 
L 628 4666 
z
" transform="scale(0.015625)"/>
        <path id="DejaVuSans-75" d="M 544 1381 
L 544 3500 
L 1119 3500 
L 1119 1403 
Q 1119 906 1312 657 
Q 1506 409 1894 409 
Q 2359 409 2629 706 
Q 2900 1003 2900 1516 
L 2900 3500 
L 3475 3500 
L 3475 0 
L 2900 0 
L 2900 538 
Q 2691 219 2414 64 
Q 2138 -91 1772 -91 
Q 1169 -91 856 284 
Q 544 659 544 1381 
z
M 1991 3584 
L 1991 3584 
z
" transform="scale(0.015625)"/>
        <path id="DejaVuSans-73" d="M 2834 3397 
L 2834 2853 
Q 2591 2978 2328 3040 
Q 2066 3103 1784 3103 
Q 1356 3103 1142 2972 
Q 928 2841 928 2578 
Q 928 2378 1081 2264 
Q 1234 2150 1697 2047 
L 1894 2003 
Q 2506 1872 2764 1633 
Q 3022 1394 3022 966 
Q 3022 478 2636 193 
Q 2250 -91 1575 -91 
Q 1294 -91 989 -36 
Q 684 19 347 128 
L 347 722 
Q 666 556 975 473 
Q 1284 391 1588 391 
Q 1994 391 2212 530 
Q 2431 669 2431 922 
Q 2431 1156 2273 1281 
Q 2116 1406 1581 1522 
L 1381 1569 
Q 847 1681 609 1914 
Q 372 2147 372 2553 
Q 372 3047 722 3315 
Q 1072 3584 1716 3584 
Q 2034 3584 2315 3537 
Q 2597 3491 2834 3397 
z
" transform="scale(0.015625)"/>
        <path id="DejaVuSans-41" d="M 2188 4044 
L 1331 1722 
L 3047 1722 
L 2188 4044 
z
M 1831 4666 
L 2547 4666 
L 4325 0 
L 3669 0 
L 3244 1197 
L 1141 1197 
L 716 0 
L 50 0 
L 1831 4666 
z
" transform="scale(0.015625)"/>
        <path id="DejaVuSans-79" d="M 2059 -325 
Q 1816 -950 1584 -1140 
Q 1353 -1331 966 -1331 
L 506 -1331 
L 506 -850 
L 844 -850 
Q 1081 -850 1212 -737 
Q 1344 -625 1503 -206 
L 1606 56 
L 191 3500 
L 800 3500 
L 1894 763 
L 2988 3500 
L 3597 3500 
L 2059 -325 
z
" transform="scale(0.015625)"/>
       </defs>
       <use xlink:href="#DejaVuSans-42"/>
       <use xlink:href="#DejaVuSans-75" transform="translate(68.603516 0)"/>
       <use xlink:href="#DejaVuSans-73" transform="translate(131.982422 0)"/>
       <use xlink:href="#DejaVuSans-69" transform="translate(184.082031 0)"/>
       <use xlink:href="#DejaVuSans-6e" transform="translate(211.865234 0)"/>
       <use xlink:href="#DejaVuSans-65" transform="translate(275.244141 0)"/>
       <use xlink:href="#DejaVuSans-73" transform="translate(336.767578 0)"/>
       <use xlink:href="#DejaVuSans-73" transform="translate(388.867188 0)"/>
       <use xlink:href="#DejaVuSans-20" transform="translate(440.966797 0)"/>
       <use xlink:href="#DejaVuSans-41" transform="translate(472.753906 0)"/>
       <use xlink:href="#DejaVuSans-6e" transform="translate(541.162109 0)"/>
       <use xlink:href="#DejaVuSans-61" transform="translate(604.541016 0)"/>
       <use xlink:href="#DejaVuSans-6c" transform="translate(665.820312 0)"/>
       <use xlink:href="#DejaVuSans-79" transform="translate(693.603516 0)"/>
       <use xlink:href="#DejaVuSans-73" transform="translate(752.783203 0)"/>
       <use xlink:href="#DejaVuSans-74" transform="translate(804.882812 0)"/>
      </g>
     </g>
    </g>
    <g id="ytick_6">
     <g id="text_11">
      <!-- Software Engineer -->
      <g style="fill: #4d4d4d" transform="translate(31.346875 396.262802) scale(0.1 -0.1)">
       <defs>
        <path id="DejaVuSans-53" d="M 3425 4513 
L 3425 3897 
Q 3066 4069 2747 4153 
Q 2428 4238 2131 4238 
Q 1616 4238 1336 4038 
Q 1056 3838 1056 3469 
Q 1056 3159 1242 3001 
Q 1428 2844 1947 2747 
L 2328 2669 
Q 3034 2534 3370 2195 
Q 3706 1856 3706 1288 
Q 3706 609 3251 259 
Q 2797 -91 1919 -91 
Q 1588 -91 1214 -16 
Q 841 59 441 206 
L 441 856 
Q 825 641 1194 531 
Q 1563 422 1919 422 
Q 2459 422 2753 634 
Q 3047 847 3047 1241 
Q 3047 1584 2836 1778 
Q 2625 1972 2144 2069 
L 1759 2144 
Q 1053 2284 737 2584 
Q 422 2884 422 3419 
Q 422 4038 858 4394 
Q 1294 4750 2059 4750 
Q 2388 4750 2728 4690 
Q 3069 4631 3425 4513 
z
" transform="scale(0.015625)"/>
        <path id="DejaVuSans-66" d="M 2375 4863 
L 2375 4384 
L 1825 4384 
Q 1516 4384 1395 4259 
Q 1275 4134 1275 3809 
L 1275 3500 
L 2222 3500 
L 2222 3053 
L 1275 3053 
L 1275 0 
L 697 0 
L 697 3053 
L 147 3053 
L 147 3500 
L 697 3500 
L 697 3744 
Q 697 4328 969 4595 
Q 1241 4863 1831 4863 
L 2375 4863 
z
" transform="scale(0.015625)"/>
        <path id="DejaVuSans-77" d="M 269 3500 
L 844 3500 
L 1563 769 
L 2278 3500 
L 2956 3500 
L 3675 769 
L 4391 3500 
L 4966 3500 
L 4050 0 
L 3372 0 
L 2619 2869 
L 1863 0 
L 1184 0 
L 269 3500 
z
" transform="scale(0.015625)"/>
        <path id="DejaVuSans-45" d="M 628 4666 
L 3578 4666 
L 3578 4134 
L 1259 4134 
L 1259 2753 
L 3481 2753 
L 3481 2222 
L 1259 2222 
L 1259 531 
L 3634 531 
L 3634 0 
L 628 0 
L 628 4666 
z
" transform="scale(0.015625)"/>
       </defs>
       <use xlink:href="#DejaVuSans-53"/>
       <use xlink:href="#DejaVuSans-6f" transform="translate(63.476562 0)"/>
       <use xlink:href="#DejaVuSans-66" transform="translate(124.658203 0)"/>
       <use xlink:href="#DejaVuSans-74" transform="translate(158.113281 0)"/>
       <use xlink:href="#DejaVuSans-77" transform="translate(197.322266 0)"/>
       <use xlink:href="#DejaVuSans-61" transform="translate(279.109375 0)"/>
       <use xlink:href="#DejaVuSans-72" transform="translate(340.388672 0)"/>
       <use xlink:href="#DejaVuSans-65" transform="translate(379.251953 0)"/>
       <use xlink:href="#DejaVuSans-20" transform="translate(440.775391 0)"/>
       <use xlink:href="#DejaVuSans-45" transform="translate(472.5625 0)"/>
       <use xlink:href="#DejaVuSans-6e" transform="translate(535.746094 0)"/>
       <use xlink:href="#DejaVuSans-67" transform="translate(599.125 0)"/>
       <use xlink:href="#DejaVuSans-69" transform="translate(662.601562 0)"/>
       <use xlink:href="#DejaVuSans-6e" transform="translate(690.384766 0)"/>
       <use xlink:href="#DejaVuSans-65" transform="translate(753.763672 0)"/>
       <use xlink:href="#DejaVuSans-65" transform="translate(815.287109 0)"/>
       <use xlink:href="#DejaVuSans-72" transform="translate(876.810547 0)"/>
      </g>
     </g>
    </g>
    <g id="ytick_7">
     <g id="text_12">
      <!-- Research Analyst -->
      <g style="fill: #4d4d4d" transform="translate(36.965625 373.423151) scale(0.1 -0.1)">
       <defs>
        <path id="DejaVuSans-52" d="M 2841 2188 
Q 3044 2119 3236 1894 
Q 3428 1669 3622 1275 
L 4263 0 
L 3584 0 
L 2988 1197 
Q 2756 1666 2539 1819 
Q 2322 1972 1947 1972 
L 1259 1972 
L 1259 0 
L 628 0 
L 628 4666 
L 2053 4666 
Q 2853 4666 3247 4331 
Q 3641 3997 3641 3322 
Q 3641 2881 3436 2590 
Q 3231 2300 2841 2188 
z
M 1259 4147 
L 1259 2491 
L 2053 2491 
Q 2509 2491 2742 2702 
Q 2975 2913 2975 3322 
Q 2975 3731 2742 3939 
Q 2509 4147 2053 4147 
L 1259 4147 
z
" transform="scale(0.015625)"/>
       </defs>
       <use xlink:href="#DejaVuSans-52"/>
       <use xlink:href="#DejaVuSans-65" transform="translate(64.982422 0)"/>
       <use xlink:href="#DejaVuSans-73" transform="translate(126.505859 0)"/>
       <use xlink:href="#DejaVuSans-65" transform="translate(178.605469 0)"/>
       <use xlink:href="#DejaVuSans-61" transform="translate(240.128906 0)"/>
       <use xlink:href="#DejaVuSans-72" transform="translate(301.408203 0)"/>
       <use xlink:href="#DejaVuSans-63" transform="translate(340.271484 0)"/>
       <use xlink:href="#DejaVuSans-68" transform="translate(395.251953 0)"/>
       <use xlink:href="#DejaVuSans-20" transform="translate(458.630859 0)"/>
       <use xlink:href="#DejaVuSans-41" transform="translate(490.417969 0)"/>
       <use xlink:href="#DejaVuSans-6e" transform="translate(558.826172 0)"/>
       <use xlink:href="#DejaVuSans-61" transform="translate(622.205078 0)"/>
       <use xlink:href="#DejaVuSans-6c" transform="translate(683.484375 0)"/>
       <use xlink:href="#DejaVuSans-79" transform="translate(711.267578 0)"/>
       <use xlink:href="#DejaVuSans-73" transform="translate(770.447266 0)"/>
       <use xlink:href="#DejaVuSans-74" transform="translate(822.546875 0)"/>
      </g>
     </g>
    </g>
    <g id="ytick_8">
     <g id="text_13">
      <!-- Plumber -->
      <g style="fill: #4d4d4d" transform="translate(81.642188 350.583501) scale(0.1 -0.1)">
       <defs>
        <path id="DejaVuSans-6d" d="M 3328 2828 
Q 3544 3216 3844 3400 
Q 4144 3584 4550 3584 
Q 5097 3584 5394 3201 
Q 5691 2819 5691 2113 
L 5691 0 
L 5113 0 
L 5113 2094 
Q 5113 2597 4934 2840 
Q 4756 3084 4391 3084 
Q 3944 3084 3684 2787 
Q 3425 2491 3425 1978 
L 3425 0 
L 2847 0 
L 2847 2094 
Q 2847 2600 2669 2842 
Q 2491 3084 2119 3084 
Q 1678 3084 1418 2786 
Q 1159 2488 1159 1978 
L 1159 0 
L 581 0 
L 581 3500 
L 1159 3500 
L 1159 2956 
Q 1356 3278 1631 3431 
Q 1906 3584 2284 3584 
Q 2666 3584 2933 3390 
Q 3200 3197 3328 2828 
z
" transform="scale(0.015625)"/>
        <path id="DejaVuSans-62" d="M 3116 1747 
Q 3116 2381 2855 2742 
Q 2594 3103 2138 3103 
Q 1681 3103 1420 2742 
Q 1159 2381 1159 1747 
Q 1159 1113 1420 752 
Q 1681 391 2138 391 
Q 2594 391 2855 752 
Q 3116 1113 3116 1747 
z
M 1159 2969 
Q 1341 3281 1617 3432 
Q 1894 3584 2278 3584 
Q 2916 3584 3314 3078 
Q 3713 2572 3713 1747 
Q 3713 922 3314 415 
Q 2916 -91 2278 -91 
Q 1894 -91 1617 61 
Q 1341 213 1159 525 
L 1159 0 
L 581 0 
L 581 4863 
L 1159 4863 
L 1159 2969 
z
" transform="scale(0.015625)"/>
       </defs>
       <use xlink:href="#DejaVuSans-50"/>
       <use xlink:href="#DejaVuSans-6c" transform="translate(60.302734 0)"/>
       <use xlink:href="#DejaVuSans-75" transform="translate(88.085938 0)"/>
       <use xlink:href="#DejaVuSans-6d" transform="translate(151.464844 0)"/>
       <use xlink:href="#DejaVuSans-62" transform="translate(248.876953 0)"/>
       <use xlink:href="#DejaVuSans-65" transform="translate(312.353516 0)"/>
       <use xlink:href="#DejaVuSans-72" transform="translate(373.876953 0)"/>
      </g>
     </g>
    </g>
    <g id="ytick_9">
     <g id="text_14">
      <!-- Accountant -->
      <g style="fill: #4d4d4d" transform="translate(66.378125 327.743851) scale(0.1 -0.1)">
       <use xlink:href="#DejaVuSans-41"/>
       <use xlink:href="#DejaVuSans-63" transform="translate(66.658203 0)"/>
       <use xlink:href="#DejaVuSans-63" transform="translate(121.638672 0)"/>
       <use xlink:href="#DejaVuSans-6f" transform="translate(176.619141 0)"/>
       <use xlink:href="#DejaVuSans-75" transform="translate(237.800781 0)"/>
       <use xlink:href="#DejaVuSans-6e" transform="translate(301.179688 0)"/>
       <use xlink:href="#DejaVuSans-74" transform="translate(364.558594 0)"/>
       <use xlink:href="#DejaVuSans-61" transform="translate(403.767578 0)"/>
       <use xlink:href="#DejaVuSans-6e" transform="translate(465.046875 0)"/>
       <use xlink:href="#DejaVuSans-74" transform="translate(528.425781 0)"/>
      </g>
     </g>
    </g>
    <g id="ytick_10">
     <g id="text_15">
      <!-- Educational Consultant -->
      <g style="fill: #4d4d4d" transform="translate(7.2 304.9042) scale(0.1 -0.1)">
       <defs>
        <path id="DejaVuSans-64" d="M 2906 2969 
L 2906 4863 
L 3481 4863 
L 3481 0 
L 2906 0 
L 2906 525 
Q 2725 213 2448 61 
Q 2172 -91 1784 -91 
Q 1150 -91 751 415 
Q 353 922 353 1747 
Q 353 2572 751 3078 
Q 1150 3584 1784 3584 
Q 2172 3584 2448 3432 
Q 2725 3281 2906 2969 
z
M 947 1747 
Q 947 1113 1208 752 
Q 1469 391 1925 391 
Q 2381 391 2643 752 
Q 2906 1113 2906 1747 
Q 2906 2381 2643 2742 
Q 2381 3103 1925 3103 
Q 1469 3103 1208 2742 
Q 947 2381 947 1747 
z
" transform="scale(0.015625)"/>
        <path id="DejaVuSans-43" d="M 4122 4306 
L 4122 3641 
Q 3803 3938 3442 4084 
Q 3081 4231 2675 4231 
Q 1875 4231 1450 3742 
Q 1025 3253 1025 2328 
Q 1025 1406 1450 917 
Q 1875 428 2675 428 
Q 3081 428 3442 575 
Q 3803 722 4122 1019 
L 4122 359 
Q 3791 134 3420 21 
Q 3050 -91 2638 -91 
Q 1578 -91 968 557 
Q 359 1206 359 2328 
Q 359 3453 968 4101 
Q 1578 4750 2638 4750 
Q 3056 4750 3426 4639 
Q 3797 4528 4122 4306 
z
" transform="scale(0.015625)"/>
       </defs>
       <use xlink:href="#DejaVuSans-45"/>
       <use xlink:href="#DejaVuSans-64" transform="translate(63.183594 0)"/>
       <use xlink:href="#DejaVuSans-75" transform="translate(126.660156 0)"/>
       <use xlink:href="#DejaVuSans-63" transform="translate(190.039062 0)"/>
       <use xlink:href="#DejaVuSans-61" transform="translate(245.019531 0)"/>
       <use xlink:href="#DejaVuSans-74" transform="translate(306.298828 0)"/>
       <use xlink:href="#DejaVuSans-69" transform="translate(345.507812 0)"/>
       <use xlink:href="#DejaVuSans-6f" transform="translate(373.291016 0)"/>
       <use xlink:href="#DejaVuSans-6e" transform="translate(434.472656 0)"/>
       <use xlink:href="#DejaVuSans-61" transform="translate(497.851562 0)"/>
       <use xlink:href="#DejaVuSans-6c" transform="translate(559.130859 0)"/>
       <use xlink:href="#DejaVuSans-20" transform="translate(586.914062 0)"/>
       <use xlink:href="#DejaVuSans-43" transform="translate(618.701172 0)"/>
       <use xlink:href="#DejaVuSans-6f" transform="translate(688.525391 0)"/>
       <use xlink:href="#DejaVuSans-6e" transform="translate(749.707031 0)"/>
       <use xlink:href="#DejaVuSans-73" transform="translate(813.085938 0)"/>
       <use xlink:href="#DejaVuSans-75" transform="translate(865.185547 0)"/>
       <use xlink:href="#DejaVuSans-6c" transform="translate(928.564453 0)"/>
       <use xlink:href="#DejaVuSans-74" transform="translate(956.347656 0)"/>
       <use xlink:href="#DejaVuSans-61" transform="translate(995.556641 0)"/>
       <use xlink:href="#DejaVuSans-6e" transform="translate(1056.835938 0)"/>
       <use xlink:href="#DejaVuSans-74" transform="translate(1120.214844 0)"/>
      </g>
     </g>
    </g>
    <g id="ytick_11">
     <g id="text_16">
      <!-- Lawyer -->
      <g style="fill: #4d4d4d" transform="translate(87.079688 282.06455) scale(0.1 -0.1)">
       <defs>
        <path id="DejaVuSans-4c" d="M 628 4666 
L 1259 4666 
L 1259 531 
L 3531 531 
L 3531 0 
L 628 0 
L 628 4666 
z
" transform="scale(0.015625)"/>
       </defs>
       <use xlink:href="#DejaVuSans-4c"/>
       <use xlink:href="#DejaVuSans-61" transform="translate(55.712891 0)"/>
       <use xlink:href="#DejaVuSans-77" transform="translate(116.992188 0)"/>
       <use xlink:href="#DejaVuSans-79" transform="translate(198.779297 0)"/>
       <use xlink:href="#DejaVuSans-65" transform="translate(257.958984 0)"/>
       <use xlink:href="#DejaVuSans-72" transform="translate(319.482422 0)"/>
      </g>
     </g>
    </g>
    <g id="ytick_12">
     <g id="text_17">
      <!-- Data Scientist -->
      <g style="fill: #4d4d4d" transform="translate(53.142188 259.224899) scale(0.1 -0.1)">
       <use xlink:href="#DejaVuSans-44"/>
       <use xlink:href="#DejaVuSans-61" transform="translate(77.001953 0)"/>
       <use xlink:href="#DejaVuSans-74" transform="translate(138.28125 0)"/>
       <use xlink:href="#DejaVuSans-61" transform="translate(177.490234 0)"/>
       <use xlink:href="#DejaVuSans-20" transform="translate(238.769531 0)"/>
       <use xlink:href="#DejaVuSans-53" transform="translate(270.556641 0)"/>
       <use xlink:href="#DejaVuSans-63" transform="translate(334.033203 0)"/>
       <use xlink:href="#DejaVuSans-69" transform="translate(389.013672 0)"/>
       <use xlink:href="#DejaVuSans-65" transform="translate(416.796875 0)"/>
       <use xlink:href="#DejaVuSans-6e" transform="translate(478.320312 0)"/>
       <use xlink:href="#DejaVuSans-74" transform="translate(541.699219 0)"/>
       <use xlink:href="#DejaVuSans-69" transform="translate(580.908203 0)"/>
       <use xlink:href="#DejaVuSans-73" transform="translate(608.691406 0)"/>
       <use xlink:href="#DejaVuSans-74" transform="translate(660.791016 0)"/>
      </g>
     </g>
    </g>
    <g id="ytick_13">
     <g id="text_18">
      <!-- Civil Engineer -->
      <g style="fill: #4d4d4d" transform="translate(54.189063 236.385249) scale(0.1 -0.1)">
       <defs>
        <path id="DejaVuSans-76" d="M 191 3500 
L 800 3500 
L 1894 563 
L 2988 3500 
L 3597 3500 
L 2284 0 
L 1503 0 
L 191 3500 
z
" transform="scale(0.015625)"/>
       </defs>
       <use xlink:href="#DejaVuSans-43"/>
       <use xlink:href="#DejaVuSans-69" transform="translate(69.824219 0)"/>
       <use xlink:href="#DejaVuSans-76" transform="translate(97.607422 0)"/>
       <use xlink:href="#DejaVuSans-69" transform="translate(156.787109 0)"/>
       <use xlink:href="#DejaVuSans-6c" transform="translate(184.570312 0)"/>
       <use xlink:href="#DejaVuSans-20" transform="translate(212.353516 0)"/>
       <use xlink:href="#DejaVuSans-45" transform="translate(244.140625 0)"/>
       <use xlink:href="#DejaVuSans-6e" transform="translate(307.324219 0)"/>
       <use xlink:href="#DejaVuSans-67" transform="translate(370.703125 0)"/>
       <use xlink:href="#DejaVuSans-69" transform="translate(434.179688 0)"/>
       <use xlink:href="#DejaVuSans-6e" transform="translate(461.962891 0)"/>
       <use xlink:href="#DejaVuSans-65" transform="translate(525.341797 0)"/>
       <use xlink:href="#DejaVuSans-65" transform="translate(586.865234 0)"/>
       <use xlink:href="#DejaVuSans-72" transform="translate(648.388672 0)"/>
      </g>
     </g>
    </g>
    <g id="ytick_14">
     <g id="text_19">
      <!-- Manager -->
      <g style="fill: #4d4d4d" transform="translate(79.30625 213.545599) scale(0.1 -0.1)">
       <use xlink:href="#DejaVuSans-4d"/>
       <use xlink:href="#DejaVuSans-61" transform="translate(86.279297 0)"/>
       <use xlink:href="#DejaVuSans-6e" transform="translate(147.558594 0)"/>
       <use xlink:href="#DejaVuSans-61" transform="translate(210.9375 0)"/>
       <use xlink:href="#DejaVuSans-67" transform="translate(272.216797 0)"/>
       <use xlink:href="#DejaVuSans-65" transform="translate(335.693359 0)"/>
       <use xlink:href="#DejaVuSans-72" transform="translate(397.216797 0)"/>
      </g>
     </g>
    </g>
    <g id="ytick_15">
     <g id="text_20">
      <!-- Financial Analyst -->
      <g style="fill: #4d4d4d" transform="translate(39.039063 190.705948) scale(0.1 -0.1)">
       <defs>
        <path id="DejaVuSans-46" d="M 628 4666 
L 3309 4666 
L 3309 4134 
L 1259 4134 
L 1259 2759 
L 3109 2759 
L 3109 2228 
L 1259 2228 
L 1259 0 
L 628 0 
L 628 4666 
z
" transform="scale(0.015625)"/>
       </defs>
       <use xlink:href="#DejaVuSans-46"/>
       <use xlink:href="#DejaVuSans-69" transform="translate(50.269531 0)"/>
       <use xlink:href="#DejaVuSans-6e" transform="translate(78.052734 0)"/>
       <use xlink:href="#DejaVuSans-61" transform="translate(141.431641 0)"/>
       <use xlink:href="#DejaVuSans-6e" transform="translate(202.710938 0)"/>
       <use xlink:href="#DejaVuSans-63" transform="translate(266.089844 0)"/>
       <use xlink:href="#DejaVuSans-69" transform="translate(321.070312 0)"/>
       <use xlink:href="#DejaVuSans-61" transform="translate(348.853516 0)"/>
       <use xlink:href="#DejaVuSans-6c" transform="translate(410.132812 0)"/>
       <use xlink:href="#DejaVuSans-20" transform="translate(437.916016 0)"/>
       <use xlink:href="#DejaVuSans-41" transform="translate(469.703125 0)"/>
       <use xlink:href="#DejaVuSans-6e" transform="translate(538.111328 0)"/>
       <use xlink:href="#DejaVuSans-61" transform="translate(601.490234 0)"/>
       <use xlink:href="#DejaVuSans-6c" transform="translate(662.769531 0)"/>
       <use xlink:href="#DejaVuSans-79" transform="translate(690.552734 0)"/>
       <use xlink:href="#DejaVuSans-73" transform="translate(749.732422 0)"/>
       <use xlink:href="#DejaVuSans-74" transform="translate(801.832031 0)"/>
      </g>
     </g>
    </g>
    <g id="ytick_16">
     <g id="text_21">
      <!-- Architect -->
      <g style="fill: #4d4d4d" transform="translate(78.307813 167.866298) scale(0.1 -0.1)">
       <use xlink:href="#DejaVuSans-41"/>
       <use xlink:href="#DejaVuSans-72" transform="translate(68.408203 0)"/>
       <use xlink:href="#DejaVuSans-63" transform="translate(107.271484 0)"/>
       <use xlink:href="#DejaVuSans-68" transform="translate(162.251953 0)"/>
       <use xlink:href="#DejaVuSans-69" transform="translate(225.630859 0)"/>
       <use xlink:href="#DejaVuSans-74" transform="translate(253.414062 0)"/>
       <use xlink:href="#DejaVuSans-65" transform="translate(292.623047 0)"/>
       <use xlink:href="#DejaVuSans-63" transform="translate(354.146484 0)"/>
       <use xlink:href="#DejaVuSans-74" transform="translate(409.126953 0)"/>
      </g>
     </g>
    </g>
    <g id="ytick_17">
     <g id="text_22">
      <!-- Mechanical Engineer -->
      <g style="fill: #4d4d4d" transform="translate(19.159375 145.026648) scale(0.1 -0.1)">
       <use xlink:href="#DejaVuSans-4d"/>
       <use xlink:href="#DejaVuSans-65" transform="translate(86.279297 0)"/>
       <use xlink:href="#DejaVuSans-63" transform="translate(147.802734 0)"/>
       <use xlink:href="#DejaVuSans-68" transform="translate(202.783203 0)"/>
       <use xlink:href="#DejaVuSans-61" transform="translate(266.162109 0)"/>
       <use xlink:href="#DejaVuSans-6e" transform="translate(327.441406 0)"/>
       <use xlink:href="#DejaVuSans-69" transform="translate(390.820312 0)"/>
       <use xlink:href="#DejaVuSans-63" transform="translate(418.603516 0)"/>
       <use xlink:href="#DejaVuSans-61" transform="translate(473.583984 0)"/>
       <use xlink:href="#DejaVuSans-6c" transform="translate(534.863281 0)"/>
       <use xlink:href="#DejaVuSans-20" transform="translate(562.646484 0)"/>
       <use xlink:href="#DejaVuSans-45" transform="translate(594.433594 0)"/>
       <use xlink:href="#DejaVuSans-6e" transform="translate(657.617188 0)"/>
       <use xlink:href="#DejaVuSans-67" transform="translate(720.996094 0)"/>
       <use xlink:href="#DejaVuSans-69" transform="translate(784.472656 0)"/>
       <use xlink:href="#DejaVuSans-6e" transform="translate(812.255859 0)"/>
       <use xlink:href="#DejaVuSans-65" transform="translate(875.634766 0)"/>
       <use xlink:href="#DejaVuSans-65" transform="translate(937.158203 0)"/>
       <use xlink:href="#DejaVuSans-72" transform="translate(998.681641 0)"/>
      </g>
     </g>
    </g>
    <g id="ytick_18">
     <g id="text_23">
      <!-- HR Manager -->
      <g style="fill: #4d4d4d" transform="translate(61.659375 122.186997) scale(0.1 -0.1)">
       <defs>
        <path id="DejaVuSans-48" d="M 628 4666 
L 1259 4666 
L 1259 2753 
L 3553 2753 
L 3553 4666 
L 4184 4666 
L 4184 0 
L 3553 0 
L 3553 2222 
L 1259 2222 
L 1259 0 
L 628 0 
L 628 4666 
z
" transform="scale(0.015625)"/>
       </defs>
       <use xlink:href="#DejaVuSans-48"/>
       <use xlink:href="#DejaVuSans-52" transform="translate(75.195312 0)"/>
       <use xlink:href="#DejaVuSans-20" transform="translate(144.677734 0)"/>
       <use xlink:href="#DejaVuSans-4d" transform="translate(176.464844 0)"/>
       <use xlink:href="#DejaVuSans-61" transform="translate(262.744141 0)"/>
       <use xlink:href="#DejaVuSans-6e" transform="translate(324.023438 0)"/>
       <use xlink:href="#DejaVuSans-61" transform="translate(387.402344 0)"/>
       <use xlink:href="#DejaVuSans-67" transform="translate(448.681641 0)"/>
       <use xlink:href="#DejaVuSans-65" transform="translate(512.158203 0)"/>
       <use xlink:href="#DejaVuSans-72" transform="translate(573.681641 0)"/>
      </g>
     </g>
    </g>
    <g id="ytick_19">
     <g id="text_24">
      <!-- Judge -->
      <g style="fill: #4d4d4d" transform="translate(95.003125 99.347347) scale(0.1 -0.1)">
       <defs>
        <path id="DejaVuSans-4a" d="M 628 4666 
L 1259 4666 
L 1259 325 
Q 1259 -519 939 -900 
Q 619 -1281 -91 -1281 
L -331 -1281 
L -331 -750 
L -134 -750 
Q 284 -750 456 -515 
Q 628 -281 628 325 
L 628 4666 
z
" transform="scale(0.015625)"/>
       </defs>
       <use xlink:href="#DejaVuSans-4a"/>
       <use xlink:href="#DejaVuSans-75" transform="translate(29.492188 0)"/>
       <use xlink:href="#DejaVuSans-64" transform="translate(92.871094 0)"/>
       <use xlink:href="#DejaVuSans-67" transform="translate(156.347656 0)"/>
       <use xlink:href="#DejaVuSans-65" transform="translate(219.824219 0)"/>
      </g>
     </g>
    </g>
    <g id="ytick_20">
     <g id="text_25">
      <!-- Graphic Designer -->
      <g style="fill: #4d4d4d" transform="translate(36.221875 76.507696) scale(0.1 -0.1)">
       <defs>
        <path id="DejaVuSans-47" d="M 3809 666 
L 3809 1919 
L 2778 1919 
L 2778 2438 
L 4434 2438 
L 4434 434 
Q 4069 175 3628 42 
Q 3188 -91 2688 -91 
Q 1594 -91 976 548 
Q 359 1188 359 2328 
Q 359 3472 976 4111 
Q 1594 4750 2688 4750 
Q 3144 4750 3555 4637 
Q 3966 4525 4313 4306 
L 4313 3634 
Q 3963 3931 3569 4081 
Q 3175 4231 2741 4231 
Q 1884 4231 1454 3753 
Q 1025 3275 1025 2328 
Q 1025 1384 1454 906 
Q 1884 428 2741 428 
Q 3075 428 3337 486 
Q 3600 544 3809 666 
z
" transform="scale(0.015625)"/>
        <path id="DejaVuSans-70" d="M 1159 525 
L 1159 -1331 
L 581 -1331 
L 581 3500 
L 1159 3500 
L 1159 2969 
Q 1341 3281 1617 3432 
Q 1894 3584 2278 3584 
Q 2916 3584 3314 3078 
Q 3713 2572 3713 1747 
Q 3713 922 3314 415 
Q 2916 -91 2278 -91 
Q 1894 -91 1617 61 
Q 1341 213 1159 525 
z
M 3116 1747 
Q 3116 2381 2855 2742 
Q 2594 3103 2138 3103 
Q 1681 3103 1420 2742 
Q 1159 2381 1159 1747 
Q 1159 1113 1420 752 
Q 1681 391 2138 391 
Q 2594 391 2855 752 
Q 3116 1113 3116 1747 
z
" transform="scale(0.015625)"/>
       </defs>
       <use xlink:href="#DejaVuSans-47"/>
       <use xlink:href="#DejaVuSans-72" transform="translate(77.490234 0)"/>
       <use xlink:href="#DejaVuSans-61" transform="translate(118.603516 0)"/>
       <use xlink:href="#DejaVuSans-70" transform="translate(179.882812 0)"/>
       <use xlink:href="#DejaVuSans-68" transform="translate(243.359375 0)"/>
       <use xlink:href="#DejaVuSans-69" transform="translate(306.738281 0)"/>
       <use xlink:href="#DejaVuSans-63" transform="translate(334.521484 0)"/>
       <use xlink:href="#DejaVuSans-20" transform="translate(389.501953 0)"/>
       <use xlink:href="#DejaVuSans-44" transform="translate(421.289062 0)"/>
       <use xlink:href="#DejaVuSans-65" transform="translate(498.291016 0)"/>
       <use xlink:href="#DejaVuSans-73" transform="translate(559.814453 0)"/>
       <use xlink:href="#DejaVuSans-69" transform="translate(611.914062 0)"/>
       <use xlink:href="#DejaVuSans-67" transform="translate(639.697266 0)"/>
       <use xlink:href="#DejaVuSans-6e" transform="translate(703.173828 0)"/>
       <use xlink:href="#DejaVuSans-65" transform="translate(766.552734 0)"/>
       <use xlink:href="#DejaVuSans-72" transform="translate(828.076172 0)"/>
      </g>
     </g>
    </g>
   </g>
   <g id="PolyCollection_1">
    <path d="M 125.340625 514.655712 
L 125.340625 498.667957 
L 271.635889 498.667957 
L 271.635889 514.655712 
z
" clip-path="url(#pc1f6128707)" style="fill: #99a589"/>
    <path d="M 125.340625 491.816062 
L 125.340625 475.828307 
L 273.431504 475.828307 
L 273.431504 491.816062 
z
" clip-path="url(#pc1f6128707)" style="fill: #99a589"/>
    <path d="M 125.340625 468.976412 
L 125.340625 452.988656 
L 276.411959 452.988656 
L 276.411959 468.976412 
z
" clip-path="url(#pc1f6128707)" style="fill: #9aa588"/>
    <path d="M 125.340625 446.136761 
L 125.340625 430.149006 
L 285.669423 430.149006 
L 285.669423 446.136761 
z
" clip-path="url(#pc1f6128707)" style="fill: #9ba687"/>
    <path d="M 125.340625 423.297111 
L 125.340625 407.309356 
L 289.039518 407.309356 
L 289.039518 423.297111 
z
" clip-path="url(#pc1f6128707)" style="fill: #9ca686"/>
    <path d="M 125.340625 400.457461 
L 125.340625 384.469705 
L 303.38293 384.469705 
L 303.38293 400.457461 
z
" clip-path="url(#pc1f6128707)" style="fill: #a0a783"/>
    <path d="M 125.340625 377.61781 
L 125.340625 361.630055 
L 305.491581 361.630055 
L 305.491581 377.61781 
z
" clip-path="url(#pc1f6128707)" style="fill: #a1a882"/>
    <path d="M 125.340625 354.77816 
L 125.340625 338.790405 
L 310.56315 338.790405 
L 310.56315 354.77816 
z
" clip-path="url(#pc1f6128707)" style="fill: #a2a881"/>
    <path d="M 125.340625 331.938509 
L 125.340625 315.950754 
L 311.007779 315.950754 
L 311.007779 331.938509 
z
" clip-path="url(#pc1f6128707)" style="fill: #a2a881"/>
    <path d="M 125.340625 309.098859 
L 125.340625 293.111104 
L 340.299732 293.111104 
L 340.299732 309.098859 
z
" clip-path="url(#pc1f6128707)" style="fill: #aaab7c"/>
    <path d="M 125.340625 286.259209 
L 125.340625 270.271453 
L 341.071551 270.271453 
L 341.071551 286.259209 
z
" clip-path="url(#pc1f6128707)" style="fill: #aaab7c"/>
    <path d="M 125.340625 263.419558 
L 125.340625 247.431803 
L 350.314583 247.431803 
L 350.314583 263.419558 
z
" clip-path="url(#pc1f6128707)" style="fill: #acac7a"/>
    <path d="M 125.340625 240.579908 
L 125.340625 224.592153 
L 357.548753 224.592153 
L 357.548753 240.579908 
z
" clip-path="url(#pc1f6128707)" style="fill: #adac79"/>
    <path d="M 125.340625 217.740258 
L 125.340625 201.752502 
L 360.134411 201.752502 
L 360.134411 217.740258 
z
" clip-path="url(#pc1f6128707)" style="fill: #aead78"/>
    <path d="M 125.340625 194.900607 
L 125.340625 178.912852 
L 365.934061 178.912852 
L 365.934061 194.900607 
z
" clip-path="url(#pc1f6128707)" style="fill: #b0ad77"/>
    <path d="M 125.340625 172.060957 
L 125.340625 156.073202 
L 407.660299 156.073202 
L 407.660299 172.060957 
z
" clip-path="url(#pc1f6128707)" style="fill: #b9b170"/>
    <path d="M 125.340625 149.221306 
L 125.340625 133.233551 
L 417.612957 133.233551 
L 417.612957 149.221306 
z
" clip-path="url(#pc1f6128707)" style="fill: #bcb26e"/>
    <path d="M 125.340625 126.381656 
L 125.340625 110.393901 
L 434.401191 110.393901 
L 434.401191 126.381656 
z
" clip-path="url(#pc1f6128707)" style="fill: #c0b46a"/>
    <path d="M 125.340625 103.542006 
L 125.340625 87.55425 
L 439.410578 87.55425 
L 439.410578 103.542006 
z
" clip-path="url(#pc1f6128707)" style="fill: #c2b469"/>
    <path d="M 125.340625 80.702355 
L 125.340625 64.7146 
L 662.237953 64.7146 
L 662.237953 80.702355 
z
" clip-path="url(#pc1f6128707)" style="fill: #f5c643"/>
   </g>
   <g id="LineCollection_1">
    <path d="M 651.465208 520.365625 
L 651.465208 59.004687 
" clip-path="url(#pc1f6128707)" style="fill: none; stroke-dasharray: 3.934848,1.701556; stroke-dashoffset: 0; stroke: #555555; stroke-width: 1.063472"/>
   </g>
   <g id="text_26">
    <g clip-path="url(#pc1f6128707)">
     <!-- 5.1% -->
     <g transform="translate(277.417477 509.007304) scale(0.085 -0.085)">
      <defs>
       <path id="DejaVuSans-2e" d="M 684 794 
L 1344 794 
L 1344 0 
L 684 0 
L 684 794 
z
" transform="scale(0.015625)"/>
      </defs>
      <use xlink:href="#DejaVuSans-35"/>
      <use xlink:href="#DejaVuSans-2e" transform="translate(63.623047 0)"/>
      <use xlink:href="#DejaVuSans-31" transform="translate(95.410156 0)"/>
      <use xlink:href="#DejaVuSans-25" transform="translate(159.033203 0)"/>
     </g>
    </g>
   </g>
   <g id="text_27">
    <g clip-path="url(#pc1f6128707)">
     <!-- 5.1% -->
     <g transform="translate(279.213093 486.167653) scale(0.085 -0.085)">
      <use xlink:href="#DejaVuSans-35"/>
      <use xlink:href="#DejaVuSans-2e" transform="translate(63.623047 0)"/>
      <use xlink:href="#DejaVuSans-31" transform="translate(95.410156 0)"/>
      <use xlink:href="#DejaVuSans-25" transform="translate(159.033203 0)"/>
     </g>
    </g>
   </g>
   <g id="text_28">
    <g clip-path="url(#pc1f6128707)">
     <!-- 5.2% -->
     <g transform="translate(282.193548 463.328003) scale(0.085 -0.085)">
      <use xlink:href="#DejaVuSans-35"/>
      <use xlink:href="#DejaVuSans-2e" transform="translate(63.623047 0)"/>
      <use xlink:href="#DejaVuSans-32" transform="translate(95.410156 0)"/>
      <use xlink:href="#DejaVuSans-25" transform="translate(159.033203 0)"/>
     </g>
    </g>
   </g>
   <g id="text_29">
    <g clip-path="url(#pc1f6128707)">
     <!-- 5.5% -->
     <g transform="translate(291.451012 440.488352) scale(0.085 -0.085)">
      <use xlink:href="#DejaVuSans-35"/>
      <use xlink:href="#DejaVuSans-2e" transform="translate(63.623047 0)"/>
      <use xlink:href="#DejaVuSans-35" transform="translate(95.410156 0)"/>
      <use xlink:href="#DejaVuSans-25" transform="translate(159.033203 0)"/>
     </g>
    </g>
   </g>
   <g id="text_30">
    <g clip-path="url(#pc1f6128707)">
     <!-- 5.7% -->
     <g transform="translate(294.821106 417.648702) scale(0.085 -0.085)">
      <defs>
       <path id="DejaVuSans-37" d="M 525 4666 
L 3525 4666 
L 3525 4397 
L 1831 0 
L 1172 0 
L 2766 4134 
L 525 4134 
L 525 4666 
z
" transform="scale(0.015625)"/>
      </defs>
      <use xlink:href="#DejaVuSans-35"/>
      <use xlink:href="#DejaVuSans-2e" transform="translate(63.623047 0)"/>
      <use xlink:href="#DejaVuSans-37" transform="translate(95.410156 0)"/>
      <use xlink:href="#DejaVuSans-25" transform="translate(159.033203 0)"/>
     </g>
    </g>
   </g>
   <g id="text_31">
    <g clip-path="url(#pc1f6128707)">
     <!-- 6.2% -->
     <g transform="translate(309.164519 394.809052) scale(0.085 -0.085)">
      <defs>
       <path id="DejaVuSans-36" d="M 2113 2584 
Q 1688 2584 1439 2293 
Q 1191 2003 1191 1497 
Q 1191 994 1439 701 
Q 1688 409 2113 409 
Q 2538 409 2786 701 
Q 3034 994 3034 1497 
Q 3034 2003 2786 2293 
Q 2538 2584 2113 2584 
z
M 3366 4563 
L 3366 3988 
Q 3128 4100 2886 4159 
Q 2644 4219 2406 4219 
Q 1781 4219 1451 3797 
Q 1122 3375 1075 2522 
Q 1259 2794 1537 2939 
Q 1816 3084 2150 3084 
Q 2853 3084 3261 2657 
Q 3669 2231 3669 1497 
Q 3669 778 3244 343 
Q 2819 -91 2113 -91 
Q 1303 -91 875 529 
Q 447 1150 447 2328 
Q 447 3434 972 4092 
Q 1497 4750 2381 4750 
Q 2619 4750 2861 4703 
Q 3103 4656 3366 4563 
z
" transform="scale(0.015625)"/>
      </defs>
      <use xlink:href="#DejaVuSans-36"/>
      <use xlink:href="#DejaVuSans-2e" transform="translate(63.623047 0)"/>
      <use xlink:href="#DejaVuSans-32" transform="translate(95.410156 0)"/>
      <use xlink:href="#DejaVuSans-25" transform="translate(159.033203 0)"/>
     </g>
    </g>
   </g>
   <g id="text_32">
    <g clip-path="url(#pc1f6128707)">
     <!-- 6.2% -->
     <g transform="translate(311.27317 371.969401) scale(0.085 -0.085)">
      <use xlink:href="#DejaVuSans-36"/>
      <use xlink:href="#DejaVuSans-2e" transform="translate(63.623047 0)"/>
      <use xlink:href="#DejaVuSans-32" transform="translate(95.410156 0)"/>
      <use xlink:href="#DejaVuSans-25" transform="translate(159.033203 0)"/>
     </g>
    </g>
   </g>
   <g id="text_33">
    <g clip-path="url(#pc1f6128707)">
     <!-- 6.4% -->
     <g transform="translate(316.344739 349.129751) scale(0.085 -0.085)">
      <defs>
       <path id="DejaVuSans-34" d="M 2419 4116 
L 825 1625 
L 2419 1625 
L 2419 4116 
z
M 2253 4666 
L 3047 4666 
L 3047 1625 
L 3713 1625 
L 3713 1100 
L 3047 1100 
L 3047 0 
L 2419 0 
L 2419 1100 
L 313 1100 
L 313 1709 
L 2253 4666 
z
" transform="scale(0.015625)"/>
      </defs>
      <use xlink:href="#DejaVuSans-36"/>
      <use xlink:href="#DejaVuSans-2e" transform="translate(63.623047 0)"/>
      <use xlink:href="#DejaVuSans-34" transform="translate(95.410156 0)"/>
      <use xlink:href="#DejaVuSans-25" transform="translate(159.033203 0)"/>
     </g>
    </g>
   </g>
   <g id="text_34">
    <g clip-path="url(#pc1f6128707)">
     <!-- 6.4% -->
     <g transform="translate(316.789368 326.290101) scale(0.085 -0.085)">
      <use xlink:href="#DejaVuSans-36"/>
      <use xlink:href="#DejaVuSans-2e" transform="translate(63.623047 0)"/>
      <use xlink:href="#DejaVuSans-34" transform="translate(95.410156 0)"/>
      <use xlink:href="#DejaVuSans-25" transform="translate(159.033203 0)"/>
     </g>
    </g>
   </g>
   <g id="text_35">
    <g clip-path="url(#pc1f6128707)">
     <!-- 7.4% -->
     <g transform="translate(346.081321 303.45045) scale(0.085 -0.085)">
      <use xlink:href="#DejaVuSans-37"/>
      <use xlink:href="#DejaVuSans-2e" transform="translate(63.623047 0)"/>
      <use xlink:href="#DejaVuSans-34" transform="translate(95.410156 0)"/>
      <use xlink:href="#DejaVuSans-25" transform="translate(159.033203 0)"/>
     </g>
    </g>
   </g>
   <g id="text_36">
    <g clip-path="url(#pc1f6128707)">
     <!-- 7.5% -->
     <g transform="translate(346.85314 280.6108) scale(0.085 -0.085)">
      <use xlink:href="#DejaVuSans-37"/>
      <use xlink:href="#DejaVuSans-2e" transform="translate(63.623047 0)"/>
      <use xlink:href="#DejaVuSans-35" transform="translate(95.410156 0)"/>
      <use xlink:href="#DejaVuSans-25" transform="translate(159.033203 0)"/>
     </g>
    </g>
   </g>
   <g id="text_37">
    <g clip-path="url(#pc1f6128707)">
     <!-- 7.8% -->
     <g transform="translate(356.096172 257.771149) scale(0.085 -0.085)">
      <defs>
       <path id="DejaVuSans-38" d="M 2034 2216 
Q 1584 2216 1326 1975 
Q 1069 1734 1069 1313 
Q 1069 891 1326 650 
Q 1584 409 2034 409 
Q 2484 409 2743 651 
Q 3003 894 3003 1313 
Q 3003 1734 2745 1975 
Q 2488 2216 2034 2216 
z
M 1403 2484 
Q 997 2584 770 2862 
Q 544 3141 544 3541 
Q 544 4100 942 4425 
Q 1341 4750 2034 4750 
Q 2731 4750 3128 4425 
Q 3525 4100 3525 3541 
Q 3525 3141 3298 2862 
Q 3072 2584 2669 2484 
Q 3125 2378 3379 2068 
Q 3634 1759 3634 1313 
Q 3634 634 3220 271 
Q 2806 -91 2034 -91 
Q 1263 -91 848 271 
Q 434 634 434 1313 
Q 434 1759 690 2068 
Q 947 2378 1403 2484 
z
M 1172 3481 
Q 1172 3119 1398 2916 
Q 1625 2713 2034 2713 
Q 2441 2713 2670 2916 
Q 2900 3119 2900 3481 
Q 2900 3844 2670 4047 
Q 2441 4250 2034 4250 
Q 1625 4250 1398 4047 
Q 1172 3844 1172 3481 
z
" transform="scale(0.015625)"/>
      </defs>
      <use xlink:href="#DejaVuSans-37"/>
      <use xlink:href="#DejaVuSans-2e" transform="translate(63.623047 0)"/>
      <use xlink:href="#DejaVuSans-38" transform="translate(95.410156 0)"/>
      <use xlink:href="#DejaVuSans-25" transform="translate(159.033203 0)"/>
     </g>
    </g>
   </g>
   <g id="text_38">
    <g clip-path="url(#pc1f6128707)">
     <!-- 8.0% -->
     <g transform="translate(363.330342 234.931499) scale(0.085 -0.085)">
      <use xlink:href="#DejaVuSans-38"/>
      <use xlink:href="#DejaVuSans-2e" transform="translate(63.623047 0)"/>
      <use xlink:href="#DejaVuSans-30" transform="translate(95.410156 0)"/>
      <use xlink:href="#DejaVuSans-25" transform="translate(159.033203 0)"/>
     </g>
    </g>
   </g>
   <g id="text_39">
    <g clip-path="url(#pc1f6128707)">
     <!-- 8.1% -->
     <g transform="translate(365.915999 212.091849) scale(0.085 -0.085)">
      <use xlink:href="#DejaVuSans-38"/>
      <use xlink:href="#DejaVuSans-2e" transform="translate(63.623047 0)"/>
      <use xlink:href="#DejaVuSans-31" transform="translate(95.410156 0)"/>
      <use xlink:href="#DejaVuSans-25" transform="translate(159.033203 0)"/>
     </g>
    </g>
   </g>
   <g id="text_40">
    <g clip-path="url(#pc1f6128707)">
     <!-- 8.3% -->
     <g transform="translate(371.715649 189.252198) scale(0.085 -0.085)">
      <defs>
       <path id="DejaVuSans-33" d="M 2597 2516 
Q 3050 2419 3304 2112 
Q 3559 1806 3559 1356 
Q 3559 666 3084 287 
Q 2609 -91 1734 -91 
Q 1441 -91 1130 -33 
Q 819 25 488 141 
L 488 750 
Q 750 597 1062 519 
Q 1375 441 1716 441 
Q 2309 441 2620 675 
Q 2931 909 2931 1356 
Q 2931 1769 2642 2001 
Q 2353 2234 1838 2234 
L 1294 2234 
L 1294 2753 
L 1863 2753 
Q 2328 2753 2575 2939 
Q 2822 3125 2822 3475 
Q 2822 3834 2567 4026 
Q 2313 4219 1838 4219 
Q 1578 4219 1281 4162 
Q 984 4106 628 3988 
L 628 4550 
Q 988 4650 1302 4700 
Q 1616 4750 1894 4750 
Q 2613 4750 3031 4423 
Q 3450 4097 3450 3541 
Q 3450 3153 3228 2886 
Q 3006 2619 2597 2516 
z
" transform="scale(0.015625)"/>
      </defs>
      <use xlink:href="#DejaVuSans-38"/>
      <use xlink:href="#DejaVuSans-2e" transform="translate(63.623047 0)"/>
      <use xlink:href="#DejaVuSans-33" transform="translate(95.410156 0)"/>
      <use xlink:href="#DejaVuSans-25" transform="translate(159.033203 0)"/>
     </g>
    </g>
   </g>
   <g id="text_41">
    <g clip-path="url(#pc1f6128707)">
     <!-- 9.8% -->
     <g transform="translate(413.441888 166.412548) scale(0.085 -0.085)">
      <defs>
       <path id="DejaVuSans-39" d="M 703 97 
L 703 672 
Q 941 559 1184 500 
Q 1428 441 1663 441 
Q 2288 441 2617 861 
Q 2947 1281 2994 2138 
Q 2813 1869 2534 1725 
Q 2256 1581 1919 1581 
Q 1219 1581 811 2004 
Q 403 2428 403 3163 
Q 403 3881 828 4315 
Q 1253 4750 1959 4750 
Q 2769 4750 3195 4129 
Q 3622 3509 3622 2328 
Q 3622 1225 3098 567 
Q 2575 -91 1691 -91 
Q 1453 -91 1209 -44 
Q 966 3 703 97 
z
M 1959 2075 
Q 2384 2075 2632 2365 
Q 2881 2656 2881 3163 
Q 2881 3666 2632 3958 
Q 2384 4250 1959 4250 
Q 1534 4250 1286 3958 
Q 1038 3666 1038 3163 
Q 1038 2656 1286 2365 
Q 1534 2075 1959 2075 
z
" transform="scale(0.015625)"/>
      </defs>
      <use xlink:href="#DejaVuSans-39"/>
      <use xlink:href="#DejaVuSans-2e" transform="translate(63.623047 0)"/>
      <use xlink:href="#DejaVuSans-38" transform="translate(95.410156 0)"/>
      <use xlink:href="#DejaVuSans-25" transform="translate(159.033203 0)"/>
     </g>
    </g>
   </g>
   <g id="text_42">
    <g clip-path="url(#pc1f6128707)">
     <!-- 10.1% -->
     <g transform="translate(423.394546 143.572898) scale(0.085 -0.085)">
      <use xlink:href="#DejaVuSans-31"/>
      <use xlink:href="#DejaVuSans-30" transform="translate(63.623047 0)"/>
      <use xlink:href="#DejaVuSans-2e" transform="translate(127.246094 0)"/>
      <use xlink:href="#DejaVuSans-31" transform="translate(159.033203 0)"/>
      <use xlink:href="#DejaVuSans-25" transform="translate(222.65625 0)"/>
     </g>
    </g>
   </g>
   <g id="text_43">
    <g clip-path="url(#pc1f6128707)">
     <!-- 10.7% -->
     <g transform="translate(440.18278 120.733247) scale(0.085 -0.085)">
      <use xlink:href="#DejaVuSans-31"/>
      <use xlink:href="#DejaVuSans-30" transform="translate(63.623047 0)"/>
      <use xlink:href="#DejaVuSans-2e" transform="translate(127.246094 0)"/>
      <use xlink:href="#DejaVuSans-37" transform="translate(159.033203 0)"/>
      <use xlink:href="#DejaVuSans-25" transform="translate(222.65625 0)"/>
     </g>
    </g>
   </g>
   <g id="text_44">
    <g clip-path="url(#pc1f6128707)">
     <!-- 10.9% -->
     <g transform="translate(445.192167 97.893597) scale(0.085 -0.085)">
      <use xlink:href="#DejaVuSans-31"/>
      <use xlink:href="#DejaVuSans-30" transform="translate(63.623047 0)"/>
      <use xlink:href="#DejaVuSans-2e" transform="translate(127.246094 0)"/>
      <use xlink:href="#DejaVuSans-39" transform="translate(159.033203 0)"/>
      <use xlink:href="#DejaVuSans-25" transform="translate(222.65625 0)"/>
     </g>
    </g>
   </g>
   <g id="text_45">
    <g clip-path="url(#pc1f6128707)">
     <!-- 18.6% -->
     <g transform="translate(668.019542 75.053946) scale(0.085 -0.085)">
      <use xlink:href="#DejaVuSans-31"/>
      <use xlink:href="#DejaVuSans-38" transform="translate(63.623047 0)"/>
      <use xlink:href="#DejaVuSans-2e" transform="translate(127.246094 0)"/>
      <use xlink:href="#DejaVuSans-36" transform="translate(159.033203 0)"/>
      <use xlink:href="#DejaVuSans-25" transform="translate(222.65625 0)"/>
     </g>
    </g>
   </g>
  </g>
  <g id="text_46">
   <!-- Depression Rate by Profession (Top 20) -->
   <g transform="translate(125.340625 17.837812) scale(0.14 -0.14)">
    <defs>
     <path id="DejaVuSans-Bold-44" d="M 1791 3756 
L 1791 909 
L 2222 909 
Q 2959 909 3348 1275 
Q 3738 1641 3738 2338 
Q 3738 3031 3350 3393 
Q 2963 3756 2222 3756 
L 1791 3756 
z
M 588 4666 
L 1856 4666 
Q 2919 4666 3439 4514 
Q 3959 4363 4331 4000 
Q 4659 3684 4818 3271 
Q 4978 2859 4978 2338 
Q 4978 1809 4818 1395 
Q 4659 981 4331 666 
Q 3956 303 3431 151 
Q 2906 0 1856 0 
L 588 0 
L 588 4666 
z
" transform="scale(0.015625)"/>
     <path id="DejaVuSans-Bold-65" d="M 4031 1759 
L 4031 1441 
L 1416 1441 
Q 1456 1047 1700 850 
Q 1944 653 2381 653 
Q 2734 653 3104 758 
Q 3475 863 3866 1075 
L 3866 213 
Q 3469 63 3072 -14 
Q 2675 -91 2278 -91 
Q 1328 -91 801 392 
Q 275 875 275 1747 
Q 275 2603 792 3093 
Q 1309 3584 2216 3584 
Q 3041 3584 3536 3087 
Q 4031 2591 4031 1759 
z
M 2881 2131 
Q 2881 2450 2695 2645 
Q 2509 2841 2209 2841 
Q 1884 2841 1681 2658 
Q 1478 2475 1428 2131 
L 2881 2131 
z
" transform="scale(0.015625)"/>
     <path id="DejaVuSans-Bold-70" d="M 1656 506 
L 1656 -1331 
L 538 -1331 
L 538 3500 
L 1656 3500 
L 1656 2988 
Q 1888 3294 2169 3439 
Q 2450 3584 2816 3584 
Q 3463 3584 3878 3070 
Q 4294 2556 4294 1747 
Q 4294 938 3878 423 
Q 3463 -91 2816 -91 
Q 2450 -91 2169 54 
Q 1888 200 1656 506 
z
M 2400 2772 
Q 2041 2772 1848 2508 
Q 1656 2244 1656 1747 
Q 1656 1250 1848 986 
Q 2041 722 2400 722 
Q 2759 722 2948 984 
Q 3138 1247 3138 1747 
Q 3138 2247 2948 2509 
Q 2759 2772 2400 2772 
z
" transform="scale(0.015625)"/>
     <path id="DejaVuSans-Bold-72" d="M 3138 2547 
Q 2991 2616 2845 2648 
Q 2700 2681 2553 2681 
Q 2122 2681 1889 2404 
Q 1656 2128 1656 1613 
L 1656 0 
L 538 0 
L 538 3500 
L 1656 3500 
L 1656 2925 
Q 1872 3269 2151 3426 
Q 2431 3584 2822 3584 
Q 2878 3584 2943 3579 
Q 3009 3575 3134 3559 
L 3138 2547 
z
" transform="scale(0.015625)"/>
     <path id="DejaVuSans-Bold-73" d="M 3272 3391 
L 3272 2541 
Q 2913 2691 2578 2766 
Q 2244 2841 1947 2841 
Q 1628 2841 1473 2761 
Q 1319 2681 1319 2516 
Q 1319 2381 1436 2309 
Q 1553 2238 1856 2203 
L 2053 2175 
Q 2913 2066 3209 1816 
Q 3506 1566 3506 1031 
Q 3506 472 3093 190 
Q 2681 -91 1863 -91 
Q 1516 -91 1145 -36 
Q 775 19 384 128 
L 384 978 
Q 719 816 1070 734 
Q 1422 653 1784 653 
Q 2113 653 2278 743 
Q 2444 834 2444 1013 
Q 2444 1163 2330 1236 
Q 2216 1309 1875 1350 
L 1678 1375 
Q 931 1469 631 1722 
Q 331 1975 331 2491 
Q 331 3047 712 3315 
Q 1094 3584 1881 3584 
Q 2191 3584 2531 3537 
Q 2872 3491 3272 3391 
z
" transform="scale(0.015625)"/>
     <path id="DejaVuSans-Bold-69" d="M 538 3500 
L 1656 3500 
L 1656 0 
L 538 0 
L 538 3500 
z
M 538 4863 
L 1656 4863 
L 1656 3950 
L 538 3950 
L 538 4863 
z
" transform="scale(0.015625)"/>
     <path id="DejaVuSans-Bold-6f" d="M 2203 2784 
Q 1831 2784 1636 2517 
Q 1441 2250 1441 1747 
Q 1441 1244 1636 976 
Q 1831 709 2203 709 
Q 2569 709 2762 976 
Q 2956 1244 2956 1747 
Q 2956 2250 2762 2517 
Q 2569 2784 2203 2784 
z
M 2203 3584 
Q 3106 3584 3614 3096 
Q 4122 2609 4122 1747 
Q 4122 884 3614 396 
Q 3106 -91 2203 -91 
Q 1297 -91 786 396 
Q 275 884 275 1747 
Q 275 2609 786 3096 
Q 1297 3584 2203 3584 
z
" transform="scale(0.015625)"/>
     <path id="DejaVuSans-Bold-6e" d="M 4056 2131 
L 4056 0 
L 2931 0 
L 2931 347 
L 2931 1631 
Q 2931 2084 2911 2256 
Q 2891 2428 2841 2509 
Q 2775 2619 2662 2680 
Q 2550 2741 2406 2741 
Q 2056 2741 1856 2470 
Q 1656 2200 1656 1722 
L 1656 0 
L 538 0 
L 538 3500 
L 1656 3500 
L 1656 2988 
Q 1909 3294 2193 3439 
Q 2478 3584 2822 3584 
Q 3428 3584 3742 3212 
Q 4056 2841 4056 2131 
z
" transform="scale(0.015625)"/>
     <path id="DejaVuSans-Bold-20" transform="scale(0.015625)"/>
     <path id="DejaVuSans-Bold-52" d="M 2297 2597 
Q 2675 2597 2839 2737 
Q 3003 2878 3003 3200 
Q 3003 3519 2839 3656 
Q 2675 3794 2297 3794 
L 1791 3794 
L 1791 2597 
L 2297 2597 
z
M 1791 1766 
L 1791 0 
L 588 0 
L 588 4666 
L 2425 4666 
Q 3347 4666 3776 4356 
Q 4206 4047 4206 3378 
Q 4206 2916 3982 2619 
Q 3759 2322 3309 2181 
Q 3556 2125 3751 1926 
Q 3947 1728 4147 1325 
L 4800 0 
L 3519 0 
L 2950 1159 
Q 2778 1509 2601 1637 
Q 2425 1766 2131 1766 
L 1791 1766 
z
" transform="scale(0.015625)"/>
     <path id="DejaVuSans-Bold-61" d="M 2106 1575 
Q 1756 1575 1579 1456 
Q 1403 1338 1403 1106 
Q 1403 894 1545 773 
Q 1688 653 1941 653 
Q 2256 653 2472 879 
Q 2688 1106 2688 1447 
L 2688 1575 
L 2106 1575 
z
M 3816 1997 
L 3816 0 
L 2688 0 
L 2688 519 
Q 2463 200 2181 54 
Q 1900 -91 1497 -91 
Q 953 -91 614 226 
Q 275 544 275 1050 
Q 275 1666 698 1953 
Q 1122 2241 2028 2241 
L 2688 2241 
L 2688 2328 
Q 2688 2594 2478 2717 
Q 2269 2841 1825 2841 
Q 1466 2841 1156 2769 
Q 847 2697 581 2553 
L 581 3406 
Q 941 3494 1303 3539 
Q 1666 3584 2028 3584 
Q 2975 3584 3395 3211 
Q 3816 2838 3816 1997 
z
" transform="scale(0.015625)"/>
     <path id="DejaVuSans-Bold-74" d="M 1759 4494 
L 1759 3500 
L 2913 3500 
L 2913 2700 
L 1759 2700 
L 1759 1216 
Q 1759 972 1856 886 
Q 1953 800 2241 800 
L 2816 800 
L 2816 0 
L 1856 0 
Q 1194 0 917 276 
Q 641 553 641 1216 
L 641 2700 
L 84 2700 
L 84 3500 
L 641 3500 
L 641 4494 
L 1759 4494 
z
" transform="scale(0.015625)"/>
     <path id="DejaVuSans-Bold-62" d="M 2400 722 
Q 2759 722 2948 984 
Q 3138 1247 3138 1747 
Q 3138 2247 2948 2509 
Q 2759 2772 2400 2772 
Q 2041 2772 1848 2508 
Q 1656 2244 1656 1747 
Q 1656 1250 1848 986 
Q 2041 722 2400 722 
z
M 1656 2988 
Q 1888 3294 2169 3439 
Q 2450 3584 2816 3584 
Q 3463 3584 3878 3070 
Q 4294 2556 4294 1747 
Q 4294 938 3878 423 
Q 3463 -91 2816 -91 
Q 2450 -91 2169 54 
Q 1888 200 1656 506 
L 1656 0 
L 538 0 
L 538 4863 
L 1656 4863 
L 1656 2988 
z
" transform="scale(0.015625)"/>
     <path id="DejaVuSans-Bold-79" d="M 78 3500 
L 1197 3500 
L 2138 1125 
L 2938 3500 
L 4056 3500 
L 2584 -331 
Q 2363 -916 2067 -1148 
Q 1772 -1381 1288 -1381 
L 641 -1381 
L 641 -647 
L 991 -647 
Q 1275 -647 1404 -556 
Q 1534 -466 1606 -231 
L 1638 -134 
L 78 3500 
z
" transform="scale(0.015625)"/>
     <path id="DejaVuSans-Bold-50" d="M 588 4666 
L 2584 4666 
Q 3475 4666 3951 4270 
Q 4428 3875 4428 3144 
Q 4428 2409 3951 2014 
Q 3475 1619 2584 1619 
L 1791 1619 
L 1791 0 
L 588 0 
L 588 4666 
z
M 1791 3794 
L 1791 2491 
L 2456 2491 
Q 2806 2491 2997 2661 
Q 3188 2831 3188 3144 
Q 3188 3456 2997 3625 
Q 2806 3794 2456 3794 
L 1791 3794 
z
" transform="scale(0.015625)"/>
     <path id="DejaVuSans-Bold-66" d="M 2841 4863 
L 2841 4128 
L 2222 4128 
Q 1984 4128 1890 4042 
Q 1797 3956 1797 3744 
L 1797 3500 
L 2753 3500 
L 2753 2700 
L 1797 2700 
L 1797 0 
L 678 0 
L 678 2700 
L 122 2700 
L 122 3500 
L 678 3500 
L 678 3744 
Q 678 4316 997 4589 
Q 1316 4863 1984 4863 
L 2841 4863 
z
" transform="scale(0.015625)"/>
     <path id="DejaVuSans-Bold-28" d="M 2413 -844 
L 1484 -844 
Q 1006 -72 778 623 
Q 550 1319 550 2003 
Q 550 2688 779 3389 
Q 1009 4091 1484 4856 
L 2413 4856 
Q 2013 4116 1813 3408 
Q 1613 2700 1613 2009 
Q 1613 1319 1811 609 
Q 2009 -100 2413 -844 
z
" transform="scale(0.015625)"/>
     <path id="DejaVuSans-Bold-54" d="M 31 4666 
L 4331 4666 
L 4331 3756 
L 2784 3756 
L 2784 0 
L 1581 0 
L 1581 3756 
L 31 3756 
L 31 4666 
z
" transform="scale(0.015625)"/>
     <path id="DejaVuSans-Bold-32" d="M 1844 884 
L 3897 884 
L 3897 0 
L 506 0 
L 506 884 
L 2209 2388 
Q 2438 2594 2547 2791 
Q 2656 2988 2656 3200 
Q 2656 3528 2436 3728 
Q 2216 3928 1850 3928 
Q 1569 3928 1234 3808 
Q 900 3688 519 3450 
L 519 4475 
Q 925 4609 1322 4679 
Q 1719 4750 2100 4750 
Q 2938 4750 3402 4381 
Q 3866 4013 3866 3353 
Q 3866 2972 3669 2642 
Q 3472 2313 2841 1759 
L 1844 884 
z
" transform="scale(0.015625)"/>
     <path id="DejaVuSans-Bold-30" d="M 2944 2338 
Q 2944 3213 2780 3570 
Q 2616 3928 2228 3928 
Q 1841 3928 1675 3570 
Q 1509 3213 1509 2338 
Q 1509 1453 1675 1090 
Q 1841 728 2228 728 
Q 2613 728 2778 1090 
Q 2944 1453 2944 2338 
z
M 4147 2328 
Q 4147 1169 3647 539 
Q 3147 -91 2228 -91 
Q 1306 -91 806 539 
Q 306 1169 306 2328 
Q 306 3491 806 4120 
Q 1306 4750 2228 4750 
Q 3147 4750 3647 4120 
Q 4147 3491 4147 2328 
z
" transform="scale(0.015625)"/>
     <path id="DejaVuSans-Bold-29" d="M 513 -844 
Q 913 -100 1113 609 
Q 1313 1319 1313 2009 
Q 1313 2700 1113 3408 
Q 913 4116 513 4856 
L 1441 4856 
Q 1916 4091 2145 3389 
Q 2375 2688 2375 2003 
Q 2375 1319 2147 623 
Q 1919 -72 1441 -844 
L 513 -844 
z
" transform="scale(0.015625)"/>
    </defs>
    <use xlink:href="#DejaVuSans-Bold-44"/>
    <use xlink:href="#DejaVuSans-Bold-65" transform="translate(83.007812 0)"/>
    <use xlink:href="#DejaVuSans-Bold-70" transform="translate(150.830078 0)"/>
    <use xlink:href="#DejaVuSans-Bold-72" transform="translate(222.412109 0)"/>
    <use xlink:href="#DejaVuSans-Bold-65" transform="translate(271.728516 0)"/>
    <use xlink:href="#DejaVuSans-Bold-73" transform="translate(339.550781 0)"/>
    <use xlink:href="#DejaVuSans-Bold-73" transform="translate(399.072266 0)"/>
    <use xlink:href="#DejaVuSans-Bold-69" transform="translate(458.59375 0)"/>
    <use xlink:href="#DejaVuSans-Bold-6f" transform="translate(492.871094 0)"/>
    <use xlink:href="#DejaVuSans-Bold-6e" transform="translate(561.572266 0)"/>
    <use xlink:href="#DejaVuSans-Bold-20" transform="translate(632.763672 0)"/>
    <use xlink:href="#DejaVuSans-Bold-52" transform="translate(667.578125 0)"/>
    <use xlink:href="#DejaVuSans-Bold-61" transform="translate(744.580078 0)"/>
    <use xlink:href="#DejaVuSans-Bold-74" transform="translate(812.060547 0)"/>
    <use xlink:href="#DejaVuSans-Bold-65" transform="translate(859.863281 0)"/>
    <use xlink:href="#DejaVuSans-Bold-20" transform="translate(927.685547 0)"/>
    <use xlink:href="#DejaVuSans-Bold-62" transform="translate(962.5 0)"/>
    <use xlink:href="#DejaVuSans-Bold-79" transform="translate(1034.082031 0)"/>
    <use xlink:href="#DejaVuSans-Bold-20" transform="translate(1099.267578 0)"/>
    <use xlink:href="#DejaVuSans-Bold-50" transform="translate(1134.082031 0)"/>
    <use xlink:href="#DejaVuSans-Bold-72" transform="translate(1207.373047 0)"/>
    <use xlink:href="#DejaVuSans-Bold-6f" transform="translate(1256.689453 0)"/>
    <use xlink:href="#DejaVuSans-Bold-66" transform="translate(1325.390625 0)"/>
    <use xlink:href="#DejaVuSans-Bold-65" transform="translate(1368.896484 0)"/>
    <use xlink:href="#DejaVuSans-Bold-73" transform="translate(1436.71875 0)"/>
    <use xlink:href="#DejaVuSans-Bold-73" transform="translate(1496.240234 0)"/>
    <use xlink:href="#DejaVuSans-Bold-69" transform="translate(1555.761719 0)"/>
    <use xlink:href="#DejaVuSans-Bold-6f" transform="translate(1590.039062 0)"/>
    <use xlink:href="#DejaVuSans-Bold-6e" transform="translate(1658.740234 0)"/>
    <use xlink:href="#DejaVuSans-Bold-20" transform="translate(1729.931641 0)"/>
    <use xlink:href="#DejaVuSans-Bold-28" transform="translate(1764.746094 0)"/>
    <use xlink:href="#DejaVuSans-Bold-54" transform="translate(1810.449219 0)"/>
    <use xlink:href="#DejaVuSans-Bold-6f" transform="translate(1865.412109 0)"/>
    <use xlink:href="#DejaVuSans-Bold-70" transform="translate(1934.113281 0)"/>
    <use xlink:href="#DejaVuSans-Bold-20" transform="translate(2005.695312 0)"/>
    <use xlink:href="#DejaVuSans-Bold-32" transform="translate(2040.509766 0)"/>
    <use xlink:href="#DejaVuSans-Bold-30" transform="translate(2110.089844 0)"/>
    <use xlink:href="#DejaVuSans-Bold-29" transform="translate(2179.669922 0)"/>
   </g>
  </g>
  <g id="text_47">
   <!-- Dashed line = overall average (18.2%). Creative and high-pressure roles show elevated rates. -->
   <g style="fill: #555555" transform="translate(125.340625 41.717031) scale(0.11 -0.11)">
    <defs>
     <path id="DejaVuSans-3d" d="M 678 2906 
L 4684 2906 
L 4684 2381 
L 678 2381 
L 678 2906 
z
M 678 1631 
L 4684 1631 
L 4684 1100 
L 678 1100 
L 678 1631 
z
" transform="scale(0.015625)"/>
     <path id="DejaVuSans-28" d="M 1984 4856 
Q 1566 4138 1362 3434 
Q 1159 2731 1159 2009 
Q 1159 1288 1364 580 
Q 1569 -128 1984 -844 
L 1484 -844 
Q 1016 -109 783 600 
Q 550 1309 550 2009 
Q 550 2706 781 3412 
Q 1013 4119 1484 4856 
L 1984 4856 
z
" transform="scale(0.015625)"/>
     <path id="DejaVuSans-29" d="M 513 4856 
L 1013 4856 
Q 1481 4119 1714 3412 
Q 1947 2706 1947 2009 
Q 1947 1309 1714 600 
Q 1481 -109 1013 -844 
L 513 -844 
Q 928 -128 1133 580 
Q 1338 1288 1338 2009 
Q 1338 2731 1133 3434 
Q 928 4138 513 4856 
z
" transform="scale(0.015625)"/>
     <path id="DejaVuSans-2d" d="M 313 2009 
L 1997 2009 
L 1997 1497 
L 313 1497 
L 313 2009 
z
" transform="scale(0.015625)"/>
    </defs>
    <use xlink:href="#DejaVuSans-44"/>
    <use xlink:href="#DejaVuSans-61" transform="translate(77.001953 0)"/>
    <use xlink:href="#DejaVuSans-73" transform="translate(138.28125 0)"/>
    <use xlink:href="#DejaVuSans-68" transform="translate(190.380859 0)"/>
    <use xlink:href="#DejaVuSans-65" transform="translate(253.759766 0)"/>
    <use xlink:href="#DejaVuSans-64" transform="translate(315.283203 0)"/>
    <use xlink:href="#DejaVuSans-20" transform="translate(378.759766 0)"/>
    <use xlink:href="#DejaVuSans-6c" transform="translate(410.546875 0)"/>
    <use xlink:href="#DejaVuSans-69" transform="translate(438.330078 0)"/>
    <use xlink:href="#DejaVuSans-6e" transform="translate(466.113281 0)"/>
    <use xlink:href="#DejaVuSans-65" transform="translate(529.492188 0)"/>
    <use xlink:href="#DejaVuSans-20" transform="translate(591.015625 0)"/>
    <use xlink:href="#DejaVuSans-3d" transform="translate(622.802734 0)"/>
    <use xlink:href="#DejaVuSans-20" transform="translate(706.591797 0)"/>
    <use xlink:href="#DejaVuSans-6f" transform="translate(738.378906 0)"/>
    <use xlink:href="#DejaVuSans-76" transform="translate(799.560547 0)"/>
    <use xlink:href="#DejaVuSans-65" transform="translate(858.740234 0)"/>
    <use xlink:href="#DejaVuSans-72" transform="translate(920.263672 0)"/>
    <use xlink:href="#DejaVuSans-61" transform="translate(961.376953 0)"/>
    <use xlink:href="#DejaVuSans-6c" transform="translate(1022.65625 0)"/>
    <use xlink:href="#DejaVuSans-6c" transform="translate(1050.439453 0)"/>
    <use xlink:href="#DejaVuSans-20" transform="translate(1078.222656 0)"/>
    <use xlink:href="#DejaVuSans-61" transform="translate(1110.009766 0)"/>
    <use xlink:href="#DejaVuSans-76" transform="translate(1171.289062 0)"/>
    <use xlink:href="#DejaVuSans-65" transform="translate(1230.46875 0)"/>
    <use xlink:href="#DejaVuSans-72" transform="translate(1291.992188 0)"/>
    <use xlink:href="#DejaVuSans-61" transform="translate(1333.105469 0)"/>
    <use xlink:href="#DejaVuSans-67" transform="translate(1394.384766 0)"/>
    <use xlink:href="#DejaVuSans-65" transform="translate(1457.861328 0)"/>
    <use xlink:href="#DejaVuSans-20" transform="translate(1519.384766 0)"/>
    <use xlink:href="#DejaVuSans-28" transform="translate(1551.171875 0)"/>
    <use xlink:href="#DejaVuSans-31" transform="translate(1590.185547 0)"/>
    <use xlink:href="#DejaVuSans-38" transform="translate(1653.808594 0)"/>
    <use xlink:href="#DejaVuSans-2e" transform="translate(1717.431641 0)"/>
    <use xlink:href="#DejaVuSans-32" transform="translate(1749.21875 0)"/>
    <use xlink:href="#DejaVuSans-25" transform="translate(1812.841797 0)"/>
    <use xlink:href="#DejaVuSans-29" transform="translate(1907.861328 0)"/>
    <use xlink:href="#DejaVuSans-2e" transform="translate(1946.875 0)"/>
    <use xlink:href="#DejaVuSans-20" transform="translate(1978.662109 0)"/>
    <use xlink:href="#DejaVuSans-43" transform="translate(2010.449219 0)"/>
    <use xlink:href="#DejaVuSans-72" transform="translate(2080.273438 0)"/>
    <use xlink:href="#DejaVuSans-65" transform="translate(2119.136719 0)"/>
    <use xlink:href="#DejaVuSans-61" transform="translate(2180.660156 0)"/>
    <use xlink:href="#DejaVuSans-74" transform="translate(2241.939453 0)"/>
    <use xlink:href="#DejaVuSans-69" transform="translate(2281.148438 0)"/>
    <use xlink:href="#DejaVuSans-76" transform="translate(2308.931641 0)"/>
    <use xlink:href="#DejaVuSans-65" transform="translate(2368.111328 0)"/>
    <use xlink:href="#DejaVuSans-20" transform="translate(2429.634766 0)"/>
    <use xlink:href="#DejaVuSans-61" transform="translate(2461.421875 0)"/>
    <use xlink:href="#DejaVuSans-6e" transform="translate(2522.701172 0)"/>
    <use xlink:href="#DejaVuSans-64" transform="translate(2586.080078 0)"/>
    <use xlink:href="#DejaVuSans-20" transform="translate(2649.556641 0)"/>
    <use xlink:href="#DejaVuSans-68" transform="translate(2681.34375 0)"/>
    <use xlink:href="#DejaVuSans-69" transform="translate(2744.722656 0)"/>
    <use xlink:href="#DejaVuSans-67" transform="translate(2772.505859 0)"/>
    <use xlink:href="#DejaVuSans-68" transform="translate(2835.982422 0)"/>
    <use xlink:href="#DejaVuSans-2d" transform="translate(2899.361328 0)"/>
    <use xlink:href="#DejaVuSans-70" transform="translate(2935.445312 0)"/>
    <use xlink:href="#DejaVuSans-72" transform="translate(2998.921875 0)"/>
    <use xlink:href="#DejaVuSans-65" transform="translate(3037.785156 0)"/>
    <use xlink:href="#DejaVuSans-73" transform="translate(3099.308594 0)"/>
    <use xlink:href="#DejaVuSans-73" transform="translate(3151.408203 0)"/>
    <use xlink:href="#DejaVuSans-75" transform="translate(3203.507812 0)"/>
    <use xlink:href="#DejaVuSans-72" transform="translate(3266.886719 0)"/>
    <use xlink:href="#DejaVuSans-65" transform="translate(3305.75 0)"/>
    <use xlink:href="#DejaVuSans-20" transform="translate(3367.273438 0)"/>
    <use xlink:href="#DejaVuSans-72" transform="translate(3399.060547 0)"/>
    <use xlink:href="#DejaVuSans-6f" transform="translate(3437.923828 0)"/>
    <use xlink:href="#DejaVuSans-6c" transform="translate(3499.105469 0)"/>
    <use xlink:href="#DejaVuSans-65" transform="translate(3526.888672 0)"/>
    <use xlink:href="#DejaVuSans-73" transform="translate(3588.412109 0)"/>
    <use xlink:href="#DejaVuSans-20" transform="translate(3640.511719 0)"/>
    <use xlink:href="#DejaVuSans-73" transform="translate(3672.298828 0)"/>
    <use xlink:href="#DejaVuSans-68" transform="translate(3724.398438 0)"/>
    <use xlink:href="#DejaVuSans-6f" transform="translate(3787.777344 0)"/>
    <use xlink:href="#DejaVuSans-77" transform="translate(3848.958984 0)"/>
    <use xlink:href="#DejaVuSans-20" transform="translate(3930.746094 0)"/>
    <use xlink:href="#DejaVuSans-65" transform="translate(3962.533203 0)"/>
    <use xlink:href="#DejaVuSans-6c" transform="translate(4024.056641 0)"/>
    <use xlink:href="#DejaVuSans-65" transform="translate(4051.839844 0)"/>
    <use xlink:href="#DejaVuSans-76" transform="translate(4113.363281 0)"/>
    <use xlink:href="#DejaVuSans-61" transform="translate(4172.542969 0)"/>
    <use xlink:href="#DejaVuSans-74" transform="translate(4233.822266 0)"/>
    <use xlink:href="#DejaVuSans-65" transform="translate(4273.03125 0)"/>
    <use xlink:href="#DejaVuSans-64" transform="translate(4334.554688 0)"/>
    <use xlink:href="#DejaVuSans-20" transform="translate(4398.03125 0)"/>
    <use xlink:href="#DejaVuSans-72" transform="translate(4429.818359 0)"/>
    <use xlink:href="#DejaVuSans-61" transform="translate(4470.931641 0)"/>
    <use xlink:href="#DejaVuSans-74" transform="translate(4532.210938 0)"/>
    <use xlink:href="#DejaVuSans-65" transform="translate(4571.419922 0)"/>
    <use xlink:href="#DejaVuSans-73" transform="translate(4632.943359 0)"/>
    <use xlink:href="#DejaVuSans-2e" transform="translate(4685.042969 0)"/>
   </g>
  </g>
  <g id="text_48">
   <!-- PS4E11 · Working Professionals only · min. 500 respondents -->
   <g style="fill: #888888" transform="translate(441.480262 566.928281) scale(0.09 -0.09)">
    <defs>
     <path id="DejaVuSans-b7" d="M 684 2619 
L 1344 2619 
L 1344 1825 
L 684 1825 
L 684 2619 
z
" transform="scale(0.015625)"/>
     <path id="DejaVuSans-57" d="M 213 4666 
L 850 4666 
L 1831 722 
L 2809 4666 
L 3519 4666 
L 4500 722 
L 5478 4666 
L 6119 4666 
L 4947 0 
L 4153 0 
L 3169 4050 
L 2175 0 
L 1381 0 
L 213 4666 
z
" transform="scale(0.015625)"/>
    </defs>
    <use xlink:href="#DejaVuSans-50"/>
    <use xlink:href="#DejaVuSans-53" transform="translate(60.302734 0)"/>
    <use xlink:href="#DejaVuSans-34" transform="translate(123.779297 0)"/>
    <use xlink:href="#DejaVuSans-45" transform="translate(187.402344 0)"/>
    <use xlink:href="#DejaVuSans-31" transform="translate(250.585938 0)"/>
    <use xlink:href="#DejaVuSans-31" transform="translate(314.208984 0)"/>
    <use xlink:href="#DejaVuSans-20" transform="translate(377.832031 0)"/>
    <use xlink:href="#DejaVuSans-b7" transform="translate(409.619141 0)"/>
    <use xlink:href="#DejaVuSans-20" transform="translate(441.40625 0)"/>
    <use xlink:href="#DejaVuSans-57" transform="translate(473.193359 0)"/>
    <use xlink:href="#DejaVuSans-6f" transform="translate(566.195312 0)"/>
    <use xlink:href="#DejaVuSans-72" transform="translate(627.376953 0)"/>
    <use xlink:href="#DejaVuSans-6b" transform="translate(668.490234 0)"/>
    <use xlink:href="#DejaVuSans-69" transform="translate(726.400391 0)"/>
    <use xlink:href="#DejaVuSans-6e" transform="translate(754.183594 0)"/>
    <use xlink:href="#DejaVuSans-67" transform="translate(817.5625 0)"/>
    <use xlink:href="#DejaVuSans-20" transform="translate(881.039062 0)"/>
    <use xlink:href="#DejaVuSans-50" transform="translate(912.826172 0)"/>
    <use xlink:href="#DejaVuSans-72" transform="translate(971.378906 0)"/>
    <use xlink:href="#DejaVuSans-6f" transform="translate(1010.242188 0)"/>
    <use xlink:href="#DejaVuSans-66" transform="translate(1071.423828 0)"/>
    <use xlink:href="#DejaVuSans-65" transform="translate(1106.628906 0)"/>
    <use xlink:href="#DejaVuSans-73" transform="translate(1168.152344 0)"/>
    <use xlink:href="#DejaVuSans-73" transform="translate(1220.251953 0)"/>
    <use xlink:href="#DejaVuSans-69" transform="translate(1272.351562 0)"/>
    <use xlink:href="#DejaVuSans-6f" transform="translate(1300.134766 0)"/>
    <use xlink:href="#DejaVuSans-6e" transform="translate(1361.316406 0)"/>
    <use xlink:href="#DejaVuSans-61" transform="translate(1424.695312 0)"/>
    <use xlink:href="#DejaVuSans-6c" transform="translate(1485.974609 0)"/>
    <use xlink:href="#DejaVuSans-73" transform="translate(1513.757812 0)"/>
    <use xlink:href="#DejaVuSans-20" transform="translate(1565.857422 0)"/>
    <use xlink:href="#DejaVuSans-6f" transform="translate(1597.644531 0)"/>
    <use xlink:href="#DejaVuSans-6e" transform="translate(1658.826172 0)"/>
    <use xlink:href="#DejaVuSans-6c" transform="translate(1722.205078 0)"/>
    <use xlink:href="#DejaVuSans-79" transform="translate(1749.988281 0)"/>
    <use xlink:href="#DejaVuSans-20" transform="translate(1809.167969 0)"/>
    <use xlink:href="#DejaVuSans-b7" transform="translate(1840.955078 0)"/>
    <use xlink:href="#DejaVuSans-20" transform="translate(1872.742188 0)"/>
    <use xlink:href="#DejaVuSans-6d" transform="translate(1904.529297 0)"/>
    <use xlink:href="#DejaVuSans-69" transform="translate(2001.941406 0)"/>
    <use xlink:href="#DejaVuSans-6e" transform="translate(2029.724609 0)"/>
    <use xlink:href="#DejaVuSans-2e" transform="translate(2093.103516 0)"/>
    <use xlink:href="#DejaVuSans-20" transform="translate(2124.890625 0)"/>
    <use xlink:href="#DejaVuSans-35" transform="translate(2156.677734 0)"/>
    <use xlink:href="#DejaVuSans-30" transform="translate(2220.300781 0)"/>
    <use xlink:href="#DejaVuSans-30" transform="translate(2283.923828 0)"/>
    <use xlink:href="#DejaVuSans-20" transform="translate(2347.546875 0)"/>
    <use xlink:href="#DejaVuSans-72" transform="translate(2379.333984 0)"/>
    <use xlink:href="#DejaVuSans-65" transform="translate(2418.197266 0)"/>
    <use xlink:href="#DejaVuSans-73" transform="translate(2479.720703 0)"/>
    <use xlink:href="#DejaVuSans-70" transform="translate(2531.820312 0)"/>
    <use xlink:href="#DejaVuSans-6f" transform="translate(2595.296875 0)"/>
    <use xlink:href="#DejaVuSans-6e" transform="translate(2656.478516 0)"/>
    <use xlink:href="#DejaVuSans-64" transform="translate(2719.857422 0)"/>
    <use xlink:href="#DejaVuSans-65" transform="translate(2783.333984 0)"/>
    <use xlink:href="#DejaVuSans-6e" transform="translate(2844.857422 0)"/>
    <use xlink:href="#DejaVuSans-74" transform="translate(2908.236328 0)"/>
    <use xlink:href="#DejaVuSans-73" transform="translate(2947.445312 0)"/>
   </g>
  </g>
  <g id="text_49">
   <!-- Depression rate (%) -->
   <g transform="translate(356.434037 547.802031) scale(0.11 -0.11)">
    <defs>
     <path id="DejaVuSans-Bold-25" d="M 4959 1925 
Q 4738 1925 4616 1733 
Q 4494 1541 4494 1184 
Q 4494 825 4614 633 
Q 4734 441 4959 441 
Q 5184 441 5303 633 
Q 5422 825 5422 1184 
Q 5422 1541 5301 1733 
Q 5181 1925 4959 1925 
z
M 4959 2450 
Q 5541 2450 5875 2112 
Q 6209 1775 6209 1184 
Q 6209 594 5875 251 
Q 5541 -91 4959 -91 
Q 4378 -91 4042 251 
Q 3706 594 3706 1184 
Q 3706 1772 4042 2111 
Q 4378 2450 4959 2450 
z
M 2094 -91 
L 1403 -91 
L 4319 4750 
L 5013 4750 
L 2094 -91 
z
M 1453 4750 
Q 2034 4750 2367 4411 
Q 2700 4072 2700 3481 
Q 2700 2891 2367 2550 
Q 2034 2209 1453 2209 
Q 872 2209 539 2550 
Q 206 2891 206 3481 
Q 206 4072 539 4411 
Q 872 4750 1453 4750 
z
M 1453 4225 
Q 1228 4225 1106 4031 
Q 984 3838 984 3481 
Q 984 3122 1106 2926 
Q 1228 2731 1453 2731 
Q 1678 2731 1798 2926 
Q 1919 3122 1919 3481 
Q 1919 3838 1797 4031 
Q 1675 4225 1453 4225 
z
" transform="scale(0.015625)"/>
    </defs>
    <use xlink:href="#DejaVuSans-Bold-44"/>
    <use xlink:href="#DejaVuSans-Bold-65" transform="translate(83.007812 0)"/>
    <use xlink:href="#DejaVuSans-Bold-70" transform="translate(150.830078 0)"/>
    <use xlink:href="#DejaVuSans-Bold-72" transform="translate(222.412109 0)"/>
    <use xlink:href="#DejaVuSans-Bold-65" transform="translate(271.728516 0)"/>
    <use xlink:href="#DejaVuSans-Bold-73" transform="translate(339.550781 0)"/>
    <use xlink:href="#DejaVuSans-Bold-73" transform="translate(399.072266 0)"/>
    <use xlink:href="#DejaVuSans-Bold-69" transform="translate(458.59375 0)"/>
    <use xlink:href="#DejaVuSans-Bold-6f" transform="translate(492.871094 0)"/>
    <use xlink:href="#DejaVuSans-Bold-6e" transform="translate(561.572266 0)"/>
    <use xlink:href="#DejaVuSans-Bold-20" transform="translate(632.763672 0)"/>
    <use xlink:href="#DejaVuSans-Bold-72" transform="translate(667.578125 0)"/>
    <use xlink:href="#DejaVuSans-Bold-61" transform="translate(716.894531 0)"/>
    <use xlink:href="#DejaVuSans-Bold-74" transform="translate(784.375 0)"/>
    <use xlink:href="#DejaVuSans-Bold-65" transform="translate(832.177734 0)"/>
    <use xlink:href="#DejaVuSans-Bold-20" transform="translate(900 0)"/>
    <use xlink:href="#DejaVuSans-Bold-28" transform="translate(934.814453 0)"/>
    <use xlink:href="#DejaVuSans-Bold-25" transform="translate(980.517578 0)"/>
    <use xlink:href="#DejaVuSans-Bold-29" transform="translate(1080.712891 0)"/>
   </g>
  </g>
 </g>
 <defs>
  <clipPath id="pc1f6128707">
   <rect x="125.340625" y="59.004688" width="586.09323" height="461.360937"/>
  </clipPath>
 </defs>
</svg>
